{
  "asset": {
    "generator": "glTF-Transform v4.1.4",
    "version": "2.0",
    "copyright": "Genies, Inc."
  },
  "accessors": [
    {
      "type": "VEC3",
      "componentType": 5126,
      "count": 1220,
      "max": [
        0.09927619993686676,
        1.413824439048767,
        0.11783348768949509
      ],
      "min": [
        -0.09986121207475662,
        1.338484287261963,
        -0.07716888934373856
      ],
      "bufferView": 0,
      "byteOffset": 0
    },
    {
      "type": "VEC3",
      "componentType": 5126,
      "count": 1220,
      "bufferView": 0,
      "byteOffset": 12
    },
    {
      "type": "VEC2",
      "componentType": 5126,
      "count": 1220,
      "bufferView": 0,
      "byteOffset": 24
    },
    {
      "type": "VEC4",
      "componentType": 5121,
      "count": 1220,
      "bufferView": 0,
      "byteOffset": 32
    },
    {
      "type": "VEC4",
      "componentType": 5126,
      "count": 1220,
      "bufferView": 0,
      "byteOffset": 36
    },
    {
      "type": "SCALAR",
      "componentType": 5123,
      "count": 5064,
      "bufferView": 1,
      "byteOffset": 0
    },
    {
      "type": "SCALAR",
      "componentType": 5123,
      "count": 4944,
      "bufferView": 1,
      "byteOffset": 10128
    },
    {
      "type": "SCALAR",
      "componentType": 5123,
      "count": 29502,
      "bufferView": 1,
      "byteOffset": 20016
    },
    {
      "type": "SCALAR",
      "componentType": 5123,
      "count": 2880,
      "bufferView": 1,
      "byteOffset": 79020
    },
    {
      "type": "SCALAR",
      "componentType": 5123,
      "count": 1830,
      "bufferView": 1,
      "byteOffset": 84780
    },
    {
      "type": "SCALAR",
      "componentType": 5123,
      "count": 816,
      "bufferView": 1,
      "byteOffset": 88440
    },
    {
      "type": "SCALAR",
      "componentType": 5123,
      "count": 756,
      "bufferView": 1,
      "byteOffset": 90072
    },
    {
      "type": "SCALAR",
      "componentType": 5123,
      "count": 14556,
      "bufferView": 1,
      "byteOffset": 91584
    },
    {
      "type": "SCALAR",
      "componentType": 5123,
      "count": 30642,
      "bufferView": 1,
      "byteOffset": 120696
    },
    {
      "type": "MAT4",
      "componentType": 5126,
      "count": 136,
      "bufferView": 2,
      "byteOffset": 0
    },
    {
      "type": "VEC3",
      "componentType": 5126,
      "count": 911,
      "max": [
        0.1547267884016037,
        1.5845508575439453,
        0.10006958991289139
      ],
      "min": [
        -0.15195828676223755,
        1.3387749195098877,
        -0.18507474660873413
      ],
      "bufferView": 3,
      "byteOffset": 0
    },
    {
      "type": "VEC3",
      "componentType": 5126,
      "count": 911,
      "bufferView": 3,
      "byteOffset": 12
    },
    {
      "type": "VEC2",
      "componentType": 5126,
      "count": 911,
      "bufferView": 3,
      "byteOffset": 24
    },
    {
      "type": "VEC4",
      "componentType": 5121,
      "count": 911,
      "bufferView": 3,
      "byteOffset": 32
    },
    {
      "type": "VEC4",
      "componentType": 5126,
      "count": 911,
      "bufferView": 3,
      "byteOffset": 36
    },
    {
      "type": "VEC3",
      "componentType": 5126,
      "count": 5690,
      "max": [
        0.7209936380386353,
        1.5324350595474243,
        0.19438818097114563
      ],
      "min": [
        -0.7209935784339905,
        0.03259783238172531,
        -0.1309260129928589
      ],
      "bufferView": 4,
      "byteOffset": 0
    },
    {
      "type": "VEC3",
      "componentType": 5126,
      "count": 5690,
      "bufferView": 4,
      "byteOffset": 12
    },
    {
      "type": "VEC2",
      "componentType": 5126,
      "count": 5690,
      "bufferView": 4,
      "byteOffset": 24
    },
    {
      "type": "VEC4",
      "componentType": 5121,
      "count": 5690,
      "bufferView": 4,
      "byteOffset": 32
    },
    {
      "type": "VEC4",
      "componentType": 5126,
      "count": 5690,
      "bufferView": 4,
      "byteOffset": 36
    },
    {
      "type": "VEC3",
      "componentType": 5126,
      "count": 516,
      "max": [
        0.0787317305803299,
        1.4295928478240967,
        0.08528199046850204
      ],
      "min": [
        -0.07873160392045975,
        1.3428270816802979,
        -0.0014053004560992122
      ],
      "bufferView": 5,
      "byteOffset": 0
    },
    {
      "type": "VEC3",
      "componentType": 5126,
      "count": 516,
      "bufferView": 5,
      "byteOffset": 12
    },
    {
      "type": "VEC2",
      "componentType": 5126,
      "count": 516,
      "bufferView": 5,
      "byteOffset": 24
    },
    {
      "type": "VEC4",
      "componentType": 5121,
      "count": 516,
      "bufferView": 5,
      "byteOffset": 32
    },
    {
      "type": "VEC4",
      "componentType": 5126,
      "count": 516,
      "bufferView": 5,
      "byteOffset": 36
    },
    {
      "type": "VEC3",
      "componentType": 5126,
      "count": 710,
      "max": [
        0.0359288714826107,
        1.3305132389068604,
        0.10477760434150696
      ],
      "min": [
        -0.03592877835035324,
        1.2803142070770264,
        0.04087010771036148
      ],
      "bufferView": 6,
      "byteOffset": 0
    },
    {
      "type": "VEC3",
      "componentType": 5126,
      "count": 710,
      "bufferView": 6,
      "byteOffset": 12
    },
    {
      "type": "VEC2",
      "componentType": 5126,
      "count": 710,
      "bufferView": 6,
      "byteOffset": 24
    },
    {
      "type": "VEC4",
      "componentType": 5121,
      "count": 710,
      "bufferView": 6,
      "byteOffset": 32
    },
    {
      "type": "VEC4",
      "componentType": 5126,
      "count": 710,
      "bufferView": 6,
      "byteOffset": 36
    },
    {
      "type": "VEC3",
      "componentType": 5126,
      "count": 162,
      "max": [
        0.08885172009468079,
        1.433210849761963,
        0.10923605412244797
      ],
      "min": [
        -0.08885172009468079,
        1.4133607149124146,
        0.050409507006406784
      ],
      "bufferView": 7,
      "byteOffset": 0
    },
    {
      "type": "VEC3",
      "componentType": 5126,
      "count": 162,
      "bufferView": 7,
      "byteOffset": 12
    },
    {
      "type": "VEC2",
      "componentType": 5126,
      "count": 162,
      "bufferView": 7,
      "byteOffset": 24
    },
    {
      "type": "VEC4",
      "componentType": 5121,
      "count": 162,
      "bufferView": 7,
      "byteOffset": 32
    },
    {
      "type": "VEC4",
      "componentType": 5126,
      "count": 162,
      "bufferView": 7,
      "byteOffset": 36
    },
    {
      "type": "VEC3",
      "componentType": 5126,
      "count": 539,
      "max": [
        0.08633226901292801,
        1.4072840213775635,
        0.10215052217245102
      ],
      "min": [
        -0.08633226156234741,
        1.361873745918274,
        0.06627006828784943
      ],
      "bufferView": 8,
      "byteOffset": 0
    },
    {
      "type": "VEC3",
      "componentType": 5126,
      "count": 539,
      "bufferView": 8,
      "byteOffset": 12
    },
    {
      "type": "VEC2",
      "componentType": 5126,
      "count": 539,
      "bufferView": 8,
      "byteOffset": 24
    },
    {
      "type": "VEC4",
      "componentType": 5121,
      "count": 539,
      "bufferView": 8,
      "byteOffset": 32
    },
    {
      "type": "VEC4",
      "componentType": 5126,
      "count": 539,
      "bufferView": 8,
      "byteOffset": 36
    },
    {
      "type": "VEC3",
      "componentType": 5126,
      "count": 3910,
      "max": [
        0.12998351454734802,
        1.5410425662994385,
        0.12232863903045654
      ],
      "min": [
        -0.13002511858940125,
        1.2305161952972412,
        -0.1703822910785675
      ],
      "bufferView": 9,
      "byteOffset": 0
    },
    {
      "type": "VEC3",
      "componentType": 5126,
      "count": 3910,
      "bufferView": 9,
      "byteOffset": 12
    },
    {
      "type": "VEC2",
      "componentType": 5126,
      "count": 3910,
      "bufferView": 9,
      "byteOffset": 24
    },
    {
      "type": "VEC4",
      "componentType": 5121,
      "count": 3910,
      "bufferView": 9,
      "byteOffset": 32
    },
    {
      "type": "VEC4",
      "componentType": 5126,
      "count": 3910,
      "bufferView": 9,
      "byteOffset": 36
    },
    {
      "type": "VEC3",
      "componentType": 5126,
      "count": 6425,
      "max": [
        0.21519193053245544,
        1.2630937099456787,
        0.20083218812942505
      ],
      "min": [
        -0.21517781913280487,
        5.960719704489748e-7,
        -0.10378120094537735
      ],
      "bufferView": 10,
      "byteOffset": 0
    },
    {
      "type": "VEC3",
      "componentType": 5126,
      "count": 6425,
      "bufferView": 10,
      "byteOffset": 12
    },
    {
      "type": "VEC2",
      "componentType": 5126,
      "count": 6425,
      "bufferView": 10,
      "byteOffset": 24
    },
    {
      "type": "VEC4",
      "componentType": 5121,
      "count": 6425,
      "bufferView": 10,
      "byteOffset": 32
    },
    {
      "type": "VEC4",
      "componentType": 5126,
      "count": 6425,
      "bufferView": 10,
      "byteOffset": 36
    }
  ],
  "bufferViews": [
    {
      "buffer": 0,
      "byteOffset": 0,
      "byteLength": 63440,
      "byteStride": 52,
      "target": 34962
    },
    {
      "buffer": 0,
      "byteOffset": 63440,
      "byteLength": 181980,
      "target": 34963
    },
    {
      "buffer": 0,
      "byteOffset": 245420,
      "byteLength": 8704
    },
    {
      "buffer": 0,
      "byteOffset": 254124,
      "byteLength": 47372,
      "byteStride": 52,
      "target": 34962
    },
    {
      "buffer": 0,
      "byteOffset": 301496,
      "byteLength": 295880,
      "byteStride": 52,
      "target": 34962
    },
    {
      "buffer": 0,
      "byteOffset": 597376,
      "byteLength": 26832,
      "byteStride": 52,
      "target": 34962
    },
    {
      "buffer": 0,
      "byteOffset": 624208,
      "byteLength": 36920,
      "byteStride": 52,
      "target": 34962
    },
    {
      "buffer": 0,
      "byteOffset": 661128,
      "byteLength": 8424,
      "byteStride": 52,
      "target": 34962
    },
    {
      "buffer": 0,
      "byteOffset": 669552,
      "byteLength": 28028,
      "byteStride": 52,
      "target": 34962
    },
    {
      "buffer": 0,
      "byteOffset": 697580,
      "byteLength": 203320,
      "byteStride": 52,
      "target": 34962
    },
    {
      "buffer": 0,
      "byteOffset": 900900,
      "byteLength": 334100,
      "byteStride": 52,
      "target": 34962
    }
  ],
  "samplers": [
    {
      "magFilter": 9729,
      "minFilter": 9987,
      "wrapS": 10497,
      "wrapT": 10497
    }
  ],
  "textures": [
    {
      "source": 0,
      "sampler": 0
    },
    {
      "source": 3,
      "sampler": 0
    },
    {
      "source": 1,
      "sampler": 0
    },
    {
      "source": 2,
      "sampler": 0
    },
    {
      "source": 6,
      "sampler": 0
    },
    {
      "source": 4,
      "sampler": 0
    },
    {
      "source": 5,
      "sampler": 0
    },
    {
      "source": 8,
      "sampler": 0
    },
    {
      "source": 7,
      "sampler": 0
    },
    {
      "source": 11,
      "sampler": 0
    },
    {
      "source": 9,
      "sampler": 0
    },
    {
      "source": 10,
      "sampler": 0
    },
    {
      "source": 14,
      "sampler": 0
    },
    {
      "source": 12,
      "sampler": 0
    },
    {
      "source": 13,
      "sampler": 0
    },
    {
      "source": 17,
      "sampler": 0
    },
    {
      "source": 15,
      "sampler": 0
    },
    {
      "source": 16,
      "sampler": 0
    },
    {
      "source": 19,
      "sampler": 0
    },
    {
      "source": 18,
      "sampler": 0
    }
  ],
  "images": [
    {
      "name": "URP_Default--_AlbedoTransparency",
      "mimeType": "image/png",
      "uri": "baseColor_1.png"
    },
    {
      "name": "Submesh_0_Emission",
      "mimeType": "image/png",
      "uri": "emissive_1.png"
    },
    {
      "name": "NormalMap_Texture",
      "mimeType": "image/png",
      "uri": "normal_1.png"
    },
    {
      "name": "Submesh_0_Albedo",
      "mimeType": "image/png",
      "uri": "baseColor_2.png"
    },
    {
      "name": "Submesh_1_Emission",
      "mimeType": "image/png",
      "uri": "emissive_2.png"
    },
    {
      "name": "NormalMap_Texture_1",
      "mimeType": "image/png",
      "uri": "normal_2.png"
    },
    {
      "name": "Submesh_1_Albedo",
      "mimeType": "image/png",
      "uri": "baseColor_3.png"
    },
    {
      "name": "NormalMap_Texture_2",
      "mimeType": "image/png",
      "uri": "normal_3.png"
    },
    {
      "name": "Submesh_2_Albedo",
      "mimeType": "image/png",
      "uri": "baseColor_4.png"
    },
    {
      "name": "Submesh_3_Emission",
      "mimeType": "image/png",
      "uri": "emissive_3.png"
    },
    {
      "name": "NormalMap_Texture_3",
      "mimeType": "image/png",
      "uri": "normal_4.png"
    },
    {
      "name": "Submesh_3_Albedo",
      "mimeType": "image/png",
      "uri": "baseColor_5.png"
    },
    {
      "name": "Submesh_4_Emission",
      "mimeType": "image/png",
      "uri": "emissive_4.png"
    },
    {
      "name": "NormalMap_Texture_4",
      "mimeType": "image/png",
      "uri": "normal_5.png"
    },
    {
      "name": "Submesh_4_Albedo",
      "mimeType": "image/png",
      "uri": "baseColor_6.png"
    },
    {
      "name": "Submesh_5_Emission",
      "mimeType": "image/png",
      "uri": "emissive_5.png"
    },
    {
      "name": "NormalMap_Texture_5",
      "mimeType": "image/png",
      "uri": "normal_6.png"
    },
    {
      "name": "Submesh_5_Albedo",
      "mimeType": "image/png",
      "uri": "baseColor_7.png"
    },
    {
      "name": "NormalMap_Texture_6",
      "mimeType": "image/png",
      "uri": "normal_7.png"
    },
    {
      "name": "Submesh_6_Albedo",
      "mimeType": "image/png",
      "uri": "baseColor_8.png"
    }
  ],
  "buffers": [
    {
      "uri": "Sticker.bin",
      "byteLength": 1235000
    }
  ],
  "materials": [
    {
      "name": "Clothes_Mat",
      "alphaMode": "BLEND",
      "doubleSided": true,
      "pbrMetallicRoughness": {
        "roughnessFactor": 0.858578622341156,
        "metallicFactor": 0.5,
        "baseColorTexture": {
          "index": 0
        }
      }
    },
    {
      "name": "Submesh_0.003",
      "doubleSided": true,
      "pbrMetallicRoughness": {
        "roughnessFactor": 0.5527864098548889,
        "metallicFactor": 0,
        "baseColorTexture": {
          "index": 1
        }
      },
      "emissiveFactor": [
        1,
        1,
        1
      ],
      "emissiveTexture": {
        "index": 2
      },
      "normalTexture": {
        "index": 3
      }
    },
    {
      "name": "Submesh_1.003",
      "doubleSided": true,
      "pbrMetallicRoughness": {
        "roughnessFactor": 0.5527864098548889,
        "metallicFactor": 0,
        "baseColorTexture": {
          "index": 4
        }
      },
      "emissiveFactor": [
        1,
        1,
        1
      ],
      "emissiveTexture": {
        "index": 5
      },
      "normalTexture": {
        "index": 6
      }
    },
    {
      "name": "Submesh_2.003",
      "alphaMode": "BLEND",
      "doubleSided": true,
      "pbrMetallicRoughness": {
        "roughnessFactor": 0.5527864098548889,
        "metallicFactor": 0,
        "baseColorTexture": {
          "index": 7
        }
      },
      "normalTexture": {
        "index": 8
      }
    },
    {
      "name": "Submesh_3.003",
      "alphaMode": "BLEND",
      "doubleSided": true,
      "pbrMetallicRoughness": {
        "roughnessFactor": 0.5527864098548889,
        "metallicFactor": 0,
        "baseColorTexture": {
          "index": 9
        }
      },
      "emissiveFactor": [
        1,
        1,
        1
      ],
      "emissiveTexture": {
        "index": 10
      },
      "normalTexture": {
        "index": 11
      }
    },
    {
      "name": "Submesh_4.003",
      "alphaMode": "BLEND",
      "doubleSided": true,
      "pbrMetallicRoughness": {
        "roughnessFactor": 0.5527864098548889,
        "metallicFactor": 0,
        "baseColorTexture": {
          "index": 12
        }
      },
      "emissiveFactor": [
        1,
        1,
        1
      ],
      "emissiveTexture": {
        "index": 13
      },
      "normalTexture": {
        "index": 14
      }
    },
    {
      "name": "Submesh_5.003",
      "alphaMode": "BLEND",
      "doubleSided": true,
      "pbrMetallicRoughness": {
        "roughnessFactor": 0.5527864098548889,
        "metallicFactor": 0,
        "baseColorTexture": {
          "index": 15
        }
      },
      "emissiveFactor": [
        1,
        1,
        1
      ],
      "emissiveTexture": {
        "index": 16
      },
      "normalTexture": {
        "index": 17
      }
    },
    {
      "name": "Submesh_6.003",
      "alphaMode": "BLEND",
      "doubleSided": true,
      "pbrMetallicRoughness": {
        "roughnessFactor": 0.5527864098548889,
        "metallicFactor": 0,
        "baseColorTexture": {
          "index": 18
        }
      },
      "normalTexture": {
        "index": 19
      }
    }
  ],
  "meshes": [
    {
      "name": "Mesh.029",
      "primitives": [
        {
          "attributes": {
            "POSITION": 0,
            "NORMAL": 1,
            "TEXCOORD_0": 2,
            "JOINTS_0": 3,
            "WEIGHTS_0": 4
          },
          "mode": 4,
          "material": 0,
          "indices": 5
        }
      ]
    },
    {
      "name": "Mesh.028",
      "primitives": [
        {
          "attributes": {
            "POSITION": 15,
            "NORMAL": 16,
            "TEXCOORD_0": 17,
            "JOINTS_0": 18,
            "WEIGHTS_0": 19
          },
          "mode": 4,
          "material": 0,
          "indices": 6
        }
      ]
    },
    {
      "name": "Mesh.021",
      "primitives": [
        {
          "attributes": {
            "POSITION": 20,
            "NORMAL": 21,
            "TEXCOORD_0": 22,
            "JOINTS_0": 23,
            "WEIGHTS_0": 24
          },
          "mode": 4,
          "material": 1,
          "indices": 7
        }
      ]
    },
    {
      "name": "Mesh.022",
      "primitives": [
        {
          "attributes": {
            "POSITION": 25,
            "NORMAL": 26,
            "TEXCOORD_0": 27,
            "JOINTS_0": 28,
            "WEIGHTS_0": 29
          },
          "mode": 4,
          "material": 2,
          "indices": 8
        }
      ]
    },
    {
      "name": "Mesh.023",
      "primitives": [
        {
          "attributes": {
            "POSITION": 30,
            "NORMAL": 31,
            "TEXCOORD_0": 32,
            "JOINTS_0": 33,
            "WEIGHTS_0": 34
          },
          "mode": 4,
          "material": 3,
          "indices": 9
        }
      ]
    },
    {
      "name": "Mesh.024",
      "primitives": [
        {
          "attributes": {
            "POSITION": 35,
            "NORMAL": 36,
            "TEXCOORD_0": 37,
            "JOINTS_0": 38,
            "WEIGHTS_0": 39
          },
          "mode": 4,
          "material": 4,
          "indices": 10
        }
      ]
    },
    {
      "name": "Mesh.025",
      "primitives": [
        {
          "attributes": {
            "POSITION": 40,
            "NORMAL": 41,
            "TEXCOORD_0": 42,
            "JOINTS_0": 43,
            "WEIGHTS_0": 44
          },
          "mode": 4,
          "material": 5,
          "indices": 11
        }
      ]
    },
    {
      "name": "Mesh.026",
      "primitives": [
        {
          "attributes": {
            "POSITION": 45,
            "NORMAL": 46,
            "TEXCOORD_0": 47,
            "JOINTS_0": 48,
            "WEIGHTS_0": 49
          },
          "mode": 4,
          "material": 6,
          "indices": 12
        }
      ]
    },
    {
      "name": "Mesh.027",
      "primitives": [
        {
          "attributes": {
            "POSITION": 50,
            "NORMAL": 51,
            "TEXCOORD_0": 52,
            "JOINTS_0": 53,
            "WEIGHTS_0": 54
          },
          "mode": 4,
          "material": 7,
          "indices": 13
        }
      ]
    }
  ],
  "nodes": [
    {
      "name": "animatedCamera"
    },
    {
      "name": "HipsBind"
    },
    {
      "name": "LeftUpLegTwist3Bind",
      "translation": [
        2.531983511744329e-10,
        23.820640563964844,
        -0.000011194264516234398
      ]
    },
    {
      "name": "LeftUpLegTwist2Bind",
      "translation": [
        2.519229269637435e-10,
        11.874473571777344,
        -0.000002750697149167536
      ]
    },
    {
      "name": "LeftUpLegTwist1Bind"
    },
    {
      "name": "LeftLegTwist2Bind",
      "translation": [
        6.274524935179215e-7,
        10.27660083770752,
        -0.0002788288111332804
      ],
      "rotation": [
        -0.000014504417777061462,
        -1.3877787807814457e-17,
        -1.2664647976168286e-12,
        1
      ]
    },
    {
      "name": "LeftLegTwist3Bind",
      "translation": [
        6.274785278037598e-7,
        20.61522674560547,
        -0.0005765539826825261
      ],
      "rotation": [
        -0.000014105811715126038,
        -7.095019016745141e-15,
        -1.2333253992732884e-12,
        1
      ]
    },
    {
      "name": "LeftLegTwist1Bind"
    },
    {
      "name": "LeftToeBaseBind"
    },
    {
      "name": "LeftToeBase",
      "translation": [
        -5.84558392802137e-7,
        15.557548522949219,
        0.3740401864051819
      ],
      "rotation": [
        0.1923140287399292,
        -6.901181964216394e-14,
        -1.6812341741001546e-8,
        0.9813334345817566
      ],
      "children": [
        8
      ]
    },
    {
      "name": "LeftFootBind",
      "rotation": [
        0.000018164517314289697,
        -6.52811138479592e-14,
        -2.283499344474249e-12,
        1
      ],
      "children": [
        9
      ]
    },
    {
      "name": "LeftFoot",
      "translation": [
        6.27499673555576e-7,
        30.953847885131836,
        -0.0008183104218915105
      ],
      "rotation": [
        0.5535410046577454,
        -7.280796410213952e-8,
        6.270835088174886e-13,
        0.8328219652175903
      ],
      "children": [
        10
      ]
    },
    {
      "name": "LeftLeg",
      "translation": [
        6.43934683353109e-10,
        35.82878112792969,
        -0.0025989203713834286
      ],
      "rotation": [
        -0.02055700682103634,
        -3.17797912430251e-8,
        -2.450586178426306e-9,
        0.9997887015342712
      ],
      "children": [
        5,
        6,
        7,
        11
      ]
    },
    {
      "name": "LeftUpLeg",
      "translation": [
        6.1165032386779785,
        -0.07164659351110458,
        2.912711352109909e-7
      ],
      "rotation": [
        7.549197533762708e-8,
        -0.012534696608781815,
        -0.999921441078186,
        9.463431149825396e-10
      ],
      "children": [
        2,
        3,
        4,
        12
      ]
    },
    {
      "name": "NeckBind",
      "translation": [
        0,
        0.000029847155019524507,
        1.0497024049982429e-7
      ]
    },
    {
      "name": "MouthBind",
      "translation": [
        -0.00002707062776607927,
        -5.346739292144775,
        7.881802558898926
      ],
      "rotation": [
        -0.000004972153419657843,
        0.027064349502325058,
        -0.9996337294578552,
        0.000007841976184863597
      ]
    },
    {
      "name": "LeftEyeBind",
      "translation": [
        -6.854534149169922e-7,
        -0.00011171773076057434,
        0.0000020265579223632812
      ]
    },
    {
      "name": "LeftEye",
      "translation": [
        2.682209014892578e-7,
        -0.000004844740033149719,
        -0.00001519918441772461
      ],
      "children": [
        16
      ]
    },
    {
      "name": "LeftEyeSocketBind",
      "translation": [
        -3.8743019104003906e-7,
        0.000010401010513305664,
        5.960464477539063e-8
      ],
      "children": [
        17
      ]
    },
    {
      "name": "LeftEyeSocket",
      "translation": [
        3.538815975189209,
        3.15412974357605,
        2.378746271133423
      ],
      "rotation": [
        -0.006879271939396858,
        0.11532759666442871,
        0.0021669266279786825,
        0.9933013319969177
      ],
      "children": [
        18
      ]
    },
    {
      "name": "RightEyeBind"
    },
    {
      "name": "RightEye",
      "translation": [
        -2.9802322387695312e-8,
        0.000023503205738961697,
        -6.556510925292969e-7
      ],
      "children": [
        20
      ]
    },
    {
      "name": "RightEyeSocketBind",
      "translation": [
        8.940696716308594e-8,
        -0.00003736070357263088,
        -1.1920928955078125e-7
      ],
      "children": [
        21
      ]
    },
    {
      "name": "RightEyeSocket",
      "translation": [
        -3.5388123989105225,
        3.154160261154175,
        2.378734827041626
      ],
      "rotation": [
        -0.0065588559955358505,
        -0.11534704267978668,
        0.0005935492226853967,
        0.9933034777641296
      ],
      "children": [
        22
      ]
    },
    {
      "name": "RightBrowBind",
      "translation": [
        -1.8080012798309326,
        7.186966419219971,
        0.835997998714447
      ],
      "rotation": [
        0,
        0.9816271662712097,
        9.048021824438197e-16,
        0.19080917537212372
      ]
    },
    {
      "name": "FaceBind",
      "translation": [
        -5.820863929750786e-11,
        -0.0000149479174069711,
        -0.00005314415102475323
      ]
    },
    {
      "name": "JawBind",
      "translation": [
        0,
        -0.00003071550599997863,
        0.0000034059448807965964
      ],
      "rotation": [
        -0.024227237328886986,
        0,
        0,
        0.9997064471244812
      ]
    },
    {
      "name": "Jaw",
      "translation": [
        -5.820766091346741e-11,
        -3.6708528995513916,
        -2.969191312789917
      ],
      "children": [
        26
      ]
    },
    {
      "name": "NoseBind",
      "translation": [
        -5.820766091346741e-11,
        -2.210645914077759,
        8.465520858764648
      ],
      "rotation": [
        -0.007615198846906424,
        0,
        0,
        0.9999710321426392
      ]
    },
    {
      "name": "LeftBrowBind",
      "translation": [
        1.807741641998291,
        7.186966419219971,
        0.8358246684074402
      ],
      "rotation": [
        0,
        -0.9816271662712097,
        -9.048021824438197e-16,
        0.19080917537212372
      ]
    },
    {
      "name": "MouthInnerBind",
      "translation": [
        -0.00005617136775981635,
        -5.193694114685059,
        5.057261943817139
      ],
      "rotation": [
        -0.000004972619535692502,
        0.027064379304647446,
        -0.9996337294578552,
        0.00000784198800829472
      ]
    },
    {
      "name": "Face",
      "translation": [
        0.0007646921440027654,
        6.990466117858887,
        3.5656275749206543
      ],
      "rotation": [
        -0.020401468500494957,
        0,
        0,
        0.9997919201850891
      ],
      "children": [
        15,
        19,
        23,
        24,
        25,
        27,
        28,
        29,
        30
      ]
    },
    {
      "name": "Head",
      "translation": [
        0,
        11.650917053222656,
        1.2684483528137207
      ],
      "rotation": [
        0.020401453599333763,
        0,
        0,
        0.9997918605804443
      ],
      "children": [
        31
      ]
    },
    {
      "name": "Neck",
      "translation": [
        -0.0007646920275874436,
        15.818954467773438,
        -4.285890102386475
      ],
      "rotation": [
        -0.012533891014754772,
        0,
        0,
        0.999921441078186
      ],
      "children": [
        14,
        32
      ]
    },
    {
      "name": "RightArmTwist1Bind",
      "translation": [
        3.427267074584961e-7,
        -7.636845111846924e-8,
        -0.000024702399969100952
      ]
    },
    {
      "name": "RightArmTwist2Bind",
      "translation": [
        0.000006660819053649902,
        6.8416242599487305,
        -0.000029001384973526
      ]
    },
    {
      "name": "RightArmTwist3Bind",
      "translation": [
        0.000026397407054901123,
        13.72452449798584,
        -0.0000280626118183136
      ]
    },
    {
      "name": "RightForeArmTwist3Bind",
      "translation": [
        0.0014286041259765625,
        13.4546537399292,
        0.000008843839168548584
      ],
      "rotation": [
        -4.6545758891625155e-7,
        -0.0000010242220014333725,
        -0.00005752833385486156,
        1
      ]
    },
    {
      "name": "RightForeArmTwist2Bind",
      "translation": [
        0.00066375732421875,
        6.707086563110352,
        0.000010363757610321045
      ],
      "rotation": [
        -4.949106369167566e-7,
        -7.958151968523453e-7,
        -0.00005487278394866735,
        1
      ]
    },
    {
      "name": "RightHandThumb1Bind",
      "translation": [
        0.00005933642387390137,
        0.000003337860107421875,
        -0.000004857778549194336
      ]
    },
    {
      "name": "RightHandThumb2Bind",
      "translation": [
        -0.000014483928680419922,
        0.000013232231140136719,
        -0.000017940998077392578
      ]
    },
    {
      "name": "RightHandThumb3Bind",
      "translation": [
        -0.00000286102294921875,
        -0.0000133514404296875,
        -0.0000011920928955078125
      ]
    },
    {
      "name": "RightHandThumb3",
      "translation": [
        0.0000030994415283203125,
        3.8681225776672363,
        -0.000058650970458984375
      ],
      "rotation": [
        0.008516443893313408,
        -0.004232281353324652,
        0.0026477877981960773,
        0.9999512434005737
      ],
      "children": [
        41
      ]
    },
    {
      "name": "RightHandThumb2",
      "translation": [
        0.00006246566772460938,
        3.676990032196045,
        0.00006777048110961914
      ],
      "rotation": [
        0.0024090392980724573,
        -0.0026969939935952425,
        0.035877786576747894,
        0.9993496537208557
      ],
      "children": [
        40,
        42
      ]
    },
    {
      "name": "RightHandThumb1",
      "translation": [
        1.8217360973358154,
        2.9752609729766846,
        0.7242298126220703
      ],
      "rotation": [
        -0.0669996440410614,
        -0.30028074979782104,
        -0.4491269886493683,
        0.8388251066207886
      ],
      "children": [
        39,
        43
      ]
    },
    {
      "name": "RightHandRing1Bind",
      "translation": [
        -5.960464477539063e-8,
        -0.000003904104232788086,
        0.000019297003746032715
      ]
    },
    {
      "name": "RightHandRing2Bind",
      "translation": [
        0.0000034570693969726562,
        -0.0000058710575103759766,
        -0.000011369585990905762
      ]
    },
    {
      "name": "RightHandRing3Bind",
      "translation": [
        -1.7881393432617188e-7,
        0.0000032782554626464844,
        -0.0001223832368850708
      ]
    },
    {
      "name": "RightHandRing3",
      "translation": [
        3.5762786865234375e-7,
        2.4403762817382812,
        0.000014901161193847656
      ],
      "rotation": [
        0.000033524585887789726,
        0.00003691995516419411,
        0.000010757474228739738,
        1
      ],
      "children": [
        47
      ]
    },
    {
      "name": "RightHandRing2",
      "translation": [
        -0.0000012516975402832031,
        3.6018753051757812,
        0.00001882016658782959
      ],
      "children": [
        46,
        48
      ]
    },
    {
      "name": "RightHandRing1",
      "translation": [
        -1.3429982662200928,
        9.161299705505371,
        0.24773438274860382
      ],
      "rotation": [
        0.047041650861501694,
        0.030018260702490807,
        0.02230033464729786,
        0.9981927275657654
      ],
      "children": [
        45,
        49
      ]
    },
    {
      "name": "RightHandIndex1Bind",
      "translation": [
        -2.384185791015625e-7,
        7.860362529754639e-7,
        0.00001884251832962036
      ]
    },
    {
      "name": "RightHandIndex3Bind",
      "translation": [
        3.5762786865234375e-7,
        -0.000008091330528259277,
        -0.0001098141074180603
      ]
    },
    {
      "name": "RightHandIndex3",
      "translation": [
        0.0000011920928955078125,
        2.455064535140991,
        0.0000025331974029541016
      ],
      "rotation": [
        0.00003352470957906917,
        0.00003648480196716264,
        0.000004894799531030003,
        1
      ],
      "children": [
        52
      ]
    },
    {
      "name": "RightHandIndex2Bind",
      "translation": [
        0.0000022649765014648438,
        0.00001138448715209961,
        0.000006891787052154541
      ]
    },
    {
      "name": "RightHandIndex2",
      "translation": [
        5.960464477539062e-7,
        3.3932950496673584,
        0.00003539770841598511
      ],
      "children": [
        53,
        54
      ]
    },
    {
      "name": "RightHandIndex1",
      "translation": [
        2.9061803817749023,
        9.439287185668945,
        0.25517937541007996
      ],
      "rotation": [
        0.04704153537750244,
        0.030018150806427002,
        0.02230040729045868,
        0.9981927275657654
      ],
      "children": [
        51,
        55
      ]
    },
    {
      "name": "RightHandPinky1Bind"
    },
    {
      "name": "RightHandPinky2Bind",
      "translation": [
        0.00000286102294921875,
        0.000006616115570068359,
        -0.000011324882507324219
      ]
    },
    {
      "name": "RightHandPinky3Bind",
      "translation": [
        8.344650268554688e-7,
        0.0000023245811462402344,
        -0.00010001659393310547
      ]
    },
    {
      "name": "RightHandPinky3",
      "translation": [
        0.0000016689300537109375,
        1.943335771560669,
        0.0000022351741790771484
      ],
      "rotation": [
        0.000032778825698187575,
        0.00003613601438701153,
        0.000010338844731450081,
        1
      ],
      "children": [
        59
      ]
    },
    {
      "name": "RightHandPinky2",
      "translation": [
        0.0000015497207641601562,
        2.800616502761841,
        0.000010341405868530273
      ],
      "children": [
        58,
        60
      ]
    },
    {
      "name": "RightHandPinky1",
      "translation": [
        -3.1187069416046143,
        8.903590202331543,
        0.726702094078064
      ],
      "rotation": [
        0.0470418855547905,
        0.030018525198101997,
        0.022300375625491142,
        0.9981927275657654
      ],
      "children": [
        57,
        61
      ]
    },
    {
      "name": "RightHandMiddle2Bind",
      "translation": [
        4.76837158203125e-7,
        0.000013418495655059814,
        -0.000012386590242385864
      ]
    },
    {
      "name": "RightHandMiddle3Bind",
      "translation": [
        0.000003516674041748047,
        -0.0000040084123611450195,
        -0.00010751187801361084
      ]
    },
    {
      "name": "RightHandMiddle3",
      "translation": [
        5.960464477539063e-8,
        2.803283214569092,
        -0.0000021345913410186768
      ],
      "rotation": [
        0.00003575173468561843,
        0.000038317175494739786,
        0.000004608883500623051,
        1
      ],
      "children": [
        64
      ]
    },
    {
      "name": "RightHandMiddle2",
      "translation": [
        -8.344650268554688e-7,
        3.905292510986328,
        0.00004433467984199524
      ],
      "children": [
        63,
        65
      ]
    },
    {
      "name": "RightHandMiddle1Bind",
      "translation": [
        0.0000013113021850585938,
        0.000006288290023803711,
        0.000038430094718933105
      ]
    },
    {
      "name": "RightHandMiddle1",
      "translation": [
        0.8293884992599487,
        9.413006782531738,
        0.063614621758461
      ],
      "rotation": [
        0.04704081267118454,
        0.030017344281077385,
        0.02230028808116913,
        0.9981927871704102
      ],
      "children": [
        66,
        67
      ]
    },
    {
      "name": "RightHandBind",
      "rotation": [
        -0.00009720541856950149,
        -0.00010805355850607157,
        0.0000038648140616714954,
        1
      ],
      "children": [
        44,
        50,
        56,
        62,
        68
      ]
    },
    {
      "name": "RightHand",
      "translation": [
        0.002258777618408203,
        20.202272415161133,
        -0.00005527772009372711
      ],
      "rotation": [
        0.00019741053984034806,
        0.00010397325968369842,
        -0.020870521664619446,
        0.9997822046279907
      ],
      "children": [
        69
      ]
    },
    {
      "name": "RightForeArmTwist1Bind",
      "translation": [
        -8.344650268554688e-7,
        -0.00003293156623840332,
        -0.000009998679161071777
      ]
    },
    {
      "name": "RightForeArm",
      "translation": [
        0.004031740128993988,
        20.64777946472168,
        -0.000014565885066986084
      ],
      "rotation": [
        -0.008078732527792454,
        0.0003921361349057406,
        -0.03589026257395744,
        0.9993230104446411
      ],
      "children": [
        37,
        38,
        70,
        71
      ]
    },
    {
      "name": "RightArm",
      "translation": [
        0.003407001495361328,
        12.33355712890625,
        0.015283244661986828
      ],
      "rotation": [
        -0.04209040105342865,
        0.006018000189214945,
        -0.0545310378074646,
        0.9976063966751099
      ],
      "children": [
        34,
        35,
        36,
        72
      ]
    },
    {
      "name": "RightShoulderBind"
    },
    {
      "name": "RightShoulder",
      "translation": [
        -0.6935743689537048,
        14.55323314666748,
        -3.974853992462158
      ],
      "rotation": [
        0.5028617978096008,
        -0.4844880700111389,
        0.5660393834114075,
        0.4381789267063141
      ],
      "children": [
        73,
        74
      ]
    },
    {
      "name": "Spine2Bind",
      "translation": [
        0,
        -0.000015434809029102325,
        3.5762786865234375e-7
      ]
    },
    {
      "name": "LeftShoulderBind",
      "translation": [
        -3.2782554626464844e-7,
        2.086162567138672e-7,
        -0.00001935483123816084
      ]
    },
    {
      "name": "LeftForeArmTwist1Bind"
    },
    {
      "name": "LeftHandMiddle2Bind",
      "translation": [
        8.344650268554688e-7,
        0.000001430511474609375,
        -0.000017937272787094116
      ]
    },
    {
      "name": "LeftHandMiddle3Bind",
      "translation": [
        -0.000003933906555175781,
        -0.000018727034330368042,
        0.0000049620866775512695
      ]
    },
    {
      "name": "LeftHandMiddle3",
      "translation": [
        8.344650268554688e-7,
        2.8032894134521484,
        -0.00001193210482597351
      ],
      "rotation": [
        0.000032771495170891285,
        -0.00003623659722507,
        -0.000004842877388000488,
        1
      ],
      "children": [
        80
      ]
    },
    {
      "name": "LeftHandMiddle2",
      "translation": [
        -0.0000016689300537109375,
        3.905277729034424,
        -2.0116567611694336e-7
      ],
      "children": [
        79,
        81
      ]
    },
    {
      "name": "LeftHandMiddle1Bind",
      "translation": [
        -0.0000019073486328125,
        2.2351741790771484e-8,
        0.000012092292308807373
      ]
    },
    {
      "name": "LeftHandMiddle1",
      "translation": [
        -0.8293792009353638,
        9.413060188293457,
        0.06361041218042374
      ],
      "rotation": [
        0.04704241827130318,
        -0.030018795281648636,
        -0.02230045199394226,
        0.9981926679611206
      ],
      "children": [
        82,
        83
      ]
    },
    {
      "name": "LeftHandRing2Bind"
    },
    {
      "name": "LeftHandRing3Bind"
    },
    {
      "name": "LeftHandRing3",
      "translation": [
        5.364418029785156e-7,
        2.4403696060180664,
        -0.0000027418136596679688
      ],
      "rotation": [
        0.0000342704588547349,
        -0.000036910874769091606,
        -0.000010710908100008965,
        1
      ],
      "children": [
        86
      ]
    },
    {
      "name": "LeftHandRing2",
      "translation": [
        -0.0000016689300537109375,
        3.6018760204315186,
        1.4901161193847656e-8
      ],
      "children": [
        85,
        87
      ]
    },
    {
      "name": "LeftHandRing1Bind"
    },
    {
      "name": "LeftHandRing1",
      "translation": [
        1.3430070877075195,
        9.16135311126709,
        0.24772106111049652
      ],
      "rotation": [
        0.0470428541302681,
        -0.03001929633319378,
        -0.02230050042271614,
        0.9981926679611206
      ],
      "children": [
        88,
        89
      ]
    },
    {
      "name": "LeftHandPinky1Bind"
    },
    {
      "name": "LeftHandPinky2Bind"
    },
    {
      "name": "LeftHandPinky3Bind"
    },
    {
      "name": "LeftHandPinky3",
      "translation": [
        0.0000013113021850585938,
        1.9433163404464722,
        0.0000037550926208496094
      ],
      "rotation": [
        0.00003203284359187819,
        -0.00003495836426736787,
        -0.000010757939890027046,
        1
      ],
      "children": [
        93
      ]
    },
    {
      "name": "LeftHandPinky2",
      "translation": [
        -0.0000015497207641601562,
        2.800604820251465,
        -0.000020205974578857422
      ],
      "children": [
        92,
        94
      ]
    },
    {
      "name": "LeftHandPinky1",
      "translation": [
        3.118717908859253,
        8.903643608093262,
        0.7266877889633179
      ],
      "rotation": [
        0.047041069716215134,
        -0.03001728095114231,
        -0.022300368174910545,
        0.9981927871704102
      ],
      "children": [
        91,
        95
      ]
    },
    {
      "name": "LeftHandIndex2Bind",
      "translation": [
        0.0000013113021850585938,
        -0.00001798570156097412,
        0.000018596649169921875
      ]
    },
    {
      "name": "LeftHandIndex3Bind",
      "translation": [
        -0.0000027418136596679688,
        -0.000011175870895385742,
        3.5762786865234375e-7
      ]
    },
    {
      "name": "LeftHandIndex3",
      "translation": [
        5.960464477539062e-7,
        2.4550514221191406,
        0.000006884336471557617
      ],
      "rotation": [
        0.00003277417636127211,
        -0.00003509293310344219,
        -0.000004565343260765076,
        1
      ],
      "children": [
        98
      ]
    },
    {
      "name": "LeftHandIndex2",
      "translation": [
        -0.0000020265579223632812,
        3.3933029174804688,
        -0.000005558133125305176
      ],
      "children": [
        97,
        99
      ]
    },
    {
      "name": "LeftHandIndex1Bind"
    },
    {
      "name": "LeftHandIndex1",
      "translation": [
        -2.9061710834503174,
        9.439339637756348,
        0.25516918301582336
      ],
      "rotation": [
        0.0470426045358181,
        -0.0300190057605505,
        -0.022300584241747856,
        0.9981926679611206
      ],
      "children": [
        100,
        101
      ]
    },
    {
      "name": "LeftHandThumb3Bind",
      "translation": [
        -0.0000045299530029296875,
        -0.00000858306884765625,
        0.000022172927856445312
      ]
    },
    {
      "name": "LeftHandThumb3",
      "translation": [
        0.000013589859008789062,
        3.868088722229004,
        0.00010275840759277344
      ],
      "rotation": [
        0.008515918627381325,
        0.0042340694926679134,
        -0.002650829730555415,
        0.9999512434005737
      ],
      "children": [
        103
      ]
    },
    {
      "name": "LeftHandThumb2Bind",
      "translation": [
        0.00001150369644165039,
        -0.00002086162567138672,
        -0.00003600120544433594
      ]
    },
    {
      "name": "LeftHandThumb2",
      "translation": [
        -0.00003337860107421875,
        3.6769895553588867,
        -0.00011301040649414062
      ],
      "rotation": [
        0.0024097736459225416,
        0.0026969790924340487,
        -0.03587598353624344,
        0.9993497133255005
      ],
      "children": [
        104,
        105
      ]
    },
    {
      "name": "LeftHandThumb1Bind",
      "translation": [
        -0.000003069639205932617,
        -0.000013113021850585938,
        -4.172325134277344e-7
      ]
    },
    {
      "name": "LeftHandThumb1",
      "translation": [
        -1.8216686248779297,
        2.975236654281616,
        0.7242855429649353
      ],
      "rotation": [
        -0.06700176745653152,
        0.30028170347213745,
        0.4491264820098877,
        0.8388248085975647
      ],
      "children": [
        106,
        107
      ]
    },
    {
      "name": "LeftHandBind",
      "translation": [
        -7.152557373046875e-7,
        -0.0000030100345611572266,
        0.000020818784832954407
      ],
      "rotation": [
        -0.00009639753261581063,
        0.00010714202653616667,
        -8.50195760904171e-7,
        1
      ],
      "children": [
        84,
        90,
        96,
        102,
        108
      ]
    },
    {
      "name": "LeftHand",
      "translation": [
        -0.0022791624069213867,
        20.20227813720703,
        -0.00003561750054359436
      ],
      "rotation": [
        0.00019739745766855776,
        -0.00010336217383155599,
        0.020867547020316124,
        0.9997822642326355
      ],
      "children": [
        109
      ]
    },
    {
      "name": "LeftForeArmTwist2Bind",
      "translation": [
        -0.0006784200668334961,
        6.707091331481934,
        0.00002259388566017151
      ],
      "rotation": [
        2.545712050050497e-7,
        7.058843038976192e-7,
        0.00005487628004630096,
        1
      ]
    },
    {
      "name": "LeftForeArmTwist3Bind",
      "translation": [
        -0.0014401674270629883,
        13.454668045043945,
        -0.000002434477210044861
      ],
      "rotation": [
        2.777524059638381e-7,
        9.455253007217834e-7,
        0.00005749994670622982,
        1
      ]
    },
    {
      "name": "LeftForeArm",
      "translation": [
        -0.0040268674492836,
        20.647796630859375,
        -0.000014293938875198364
      ],
      "rotation": [
        -0.008078671991825104,
        -0.000392053130781278,
        0.035890597850084305,
        0.9993230104446411
      ],
      "children": [
        78,
        110,
        111,
        112
      ]
    },
    {
      "name": "LeftArmTwist1Bind",
      "translation": [
        -5.811452865600586e-7,
        0.000011892057955265045,
        -0.000010602176189422607
      ]
    },
    {
      "name": "LeftArmTwist2Bind",
      "translation": [
        -0.000007040798664093018,
        6.841624736785889,
        -0.000028833746910095215
      ]
    },
    {
      "name": "LeftArmTwist3Bind",
      "translation": [
        -0.000026598572731018066,
        13.724550247192383,
        -0.000021152198314666748
      ]
    },
    {
      "name": "LeftArm",
      "translation": [
        -0.0034056901931762695,
        12.333553314208984,
        0.015287508256733418
      ],
      "rotation": [
        -0.04208987206220627,
        -0.006018743384629488,
        0.05453061684966087,
        0.9976064562797546
      ],
      "children": [
        113,
        114,
        115,
        116
      ]
    },
    {
      "name": "LeftShoulder",
      "translation": [
        0.6935743689537048,
        14.55323314666748,
        -3.974853992462158
      ],
      "rotation": [
        0.5028619170188904,
        0.48448869585990906,
        -0.5660387873649597,
        0.438179075717926
      ],
      "children": [
        77,
        117
      ]
    },
    {
      "name": "Spine2",
      "translation": [
        0,
        5.8437347412109375,
        1.7881393432617188e-7
      ],
      "children": [
        33,
        75,
        76,
        118
      ]
    },
    {
      "name": "Spine1Bind",
      "translation": [
        0,
        -0.00001733098179101944,
        0
      ]
    },
    {
      "name": "Spine1",
      "translation": [
        0,
        5.843412399291992,
        1.1920928955078125e-7
      ],
      "children": [
        119,
        120
      ]
    },
    {
      "name": "SpineBind"
    },
    {
      "name": "Spine",
      "translation": [
        0,
        11.687122344970703,
        0.0000010132789611816406
      ],
      "children": [
        121,
        122
      ]
    },
    {
      "name": "RightToeBaseBind"
    },
    {
      "name": "RightToeBase",
      "translation": [
        8.45953081807238e-7,
        15.557548522949219,
        0.3740391135215759
      ],
      "rotation": [
        0.1923140287399292,
        -6.901181964216394e-14,
        -1.6812341741001546e-8,
        0.9813334345817566
      ],
      "children": [
        124
      ]
    },
    {
      "name": "RightFootBind",
      "rotation": [
        0.000018164517314289697,
        -6.52811138479592e-14,
        -2.283499344474249e-12,
        1
      ],
      "children": [
        125
      ]
    },
    {
      "name": "RightFoot",
      "translation": [
        -3.261746712723834e-7,
        30.953847885131836,
        -0.0008183139143511653
      ],
      "rotation": [
        0.5535410046577454,
        -7.280796410213952e-8,
        6.270835088174886e-13,
        0.8328219652175903
      ],
      "children": [
        126
      ]
    },
    {
      "name": "RightLegTwist2Bind",
      "translation": [
        -3.262218513100379e-7,
        10.27660083770752,
        -0.0002788322453852743
      ],
      "rotation": [
        -0.000014504417777061462,
        3.8163916471489756e-17,
        -1.2691878797932432e-12,
        1
      ]
    },
    {
      "name": "RightLegTwist3Bind",
      "translation": [
        -3.2619581702419964e-7,
        20.61522674560547,
        -0.0005765574751421809
      ],
      "rotation": [
        -0.000014105811715126038,
        -7.095019016745141e-15,
        -1.233226628455375e-12,
        1
      ]
    },
    {
      "name": "RightLegTwist1Bind"
    },
    {
      "name": "RightLeg",
      "translation": [
        6.43934683353109e-10,
        35.82878112792969,
        -0.00259895040653646
      ],
      "rotation": [
        -0.02055700682103634,
        -3.17797912430251e-8,
        -2.450585956381701e-9,
        0.9997887015342712
      ],
      "children": [
        127,
        128,
        129,
        130
      ]
    },
    {
      "name": "RightUpLegTwist3Bind",
      "translation": [
        2.531956866391738e-10,
        23.820640563964844,
        -0.000011204305337741971
      ]
    },
    {
      "name": "RightUpLegTwist2Bind",
      "translation": [
        2.519202624284844e-10,
        11.874473571777344,
        -0.0000027608552954916377
      ]
    },
    {
      "name": "RightUpLegTwist1Bind"
    },
    {
      "name": "RightUpLeg",
      "translation": [
        -6.1165032386779785,
        -0.07164659351110458,
        3.210734575986862e-7
      ],
      "rotation": [
        7.549197533762708e-8,
        -0.012534696608781815,
        -0.999921441078186,
        9.463431149825396e-10
      ],
      "children": [
        131,
        132,
        133,
        134
      ]
    },
    {
      "name": "Hips",
      "translation": [
        0,
        77.70275115966797,
        0.000011324152183078695
      ],
      "rotation": [
        0.012533961795270443,
        0,
        0,
        0.999921441078186
      ],
      "children": [
        1,
        13,
        123,
        135
      ]
    },
    {
      "name": "sticker_glasses",
      "mesh": 0,
      "skin": 0
    },
    {
      "name": "sticker_hat",
      "mesh": 1,
      "skin": 0
    },
    {
      "name": "Submesh_0",
      "mesh": 2,
      "skin": 0
    },
    {
      "name": "Submesh_1",
      "mesh": 3,
      "skin": 0
    },
    {
      "name": "Submesh_2",
      "mesh": 4,
      "skin": 0
    },
    {
      "name": "Submesh_3",
      "mesh": 5,
      "skin": 0
    },
    {
      "name": "Submesh_4",
      "mesh": 6,
      "skin": 0
    },
    {
      "name": "Submesh_5",
      "mesh": 7,
      "skin": 0
    },
    {
      "name": "Submesh_6",
      "mesh": 8,
      "skin": 0
    },
    {
      "name": "Root",
      "rotation": [
        -0.7071068286895752,
        0,
        0,
        0.7071068286895752
      ],
      "children": [
        137,
        138,
        139,
        140,
        141,
        142,
        143,
        144,
        145,
        136
      ]
    },
    {
      "name": "SkeletonModifierRig"
    },
    {
      "name": "Genie",
      "rotation": [
        0.7071068286895752,
        0,
        0,
        0.7071068286895752
      ],
      "scale": [
        0.009999999776482582,
        0.009999999776482582,
        0.009999999776482582
      ],
      "children": [
        0,
        146,
        147
      ]
    }
  ],
  "skins": [
    {
      "name": "Root",
      "inverseBindMatrices": 14,
      "joints": [
        136,
        1,
        13,
        2,
        3,
        4,
        12,
        5,
        6,
        7,
        11,
        10,
        9,
        8,
        123,
        121,
        119,
        33,
        14,
        32,
        31,
        15,
        19,
        18,
        17,
        16,
        23,
        22,
        21,
        20,
        24,
        25,
        27,
        26,
        28,
        29,
        30,
        75,
        73,
        34,
        35,
        36,
        72,
        37,
        38,
        70,
        69,
        44,
        39,
        43,
        40,
        42,
        41,
        50,
        45,
        49,
        46,
        48,
        47,
        56,
        51,
        55,
        53,
        52,
        54,
        62,
        57,
        61,
        58,
        60,
        59,
        68,
        66,
        63,
        65,
        64,
        67,
        71,
        74,
        76,
        118,
        77,
        117,
        113,
        78,
        110,
        109,
        84,
        82,
        79,
        81,
        80,
        83,
        90,
        88,
        85,
        87,
        86,
        89,
        96,
        91,
        95,
        92,
        94,
        93,
        102,
        100,
        97,
        99,
        98,
        101,
        108,
        106,
        104,
        103,
        105,
        107,
        111,
        112,
        114,
        115,
        116,
        120,
        122,
        135,
        131,
        127,
        126,
        125,
        124,
        128,
        129,
        130,
        132,
        133,
        134
      ]
    }
  ],
  "scenes": [
    {
      "name": "Scene",
      "nodes": [
        148
      ]
    }
  ],
  "scene": 0
}