{
  "asset": {
    "generator": "glTF-Transform v4.1.4",
    "version": "2.0",
    "copyright": "Genies, Inc."
  },
  "accessors": [
    {
      "type": "VEC3",
      "componentType": 5126,
      "count": 5688,
      "max": [
        0.7210925221443176,
        1.569495677947998,
        0.19438815116882324
      ],
      "min": [
        -0.7210924625396729,
        0.06987225264310837,
        -0.13092602789402008
      ],
      "bufferView": 0,
      "byteOffset": 0
    },
    {
      "type": "VEC3",
      "componentType": 5126,
      "count": 5688,
      "bufferView": 0,
      "byteOffset": 12
    },
    {
      "type": "VEC2",
      "componentType": 5126,
      "count": 5688,
      "bufferView": 0,
      "byteOffset": 24
    },
    {
      "type": "VEC4",
      "componentType": 5121,
      "count": 5688,
      "bufferView": 0,
      "byteOffset": 32
    },
    {
      "type": "VEC4",
      "componentType": 5126,
      "count": 5688,
      "bufferView": 0,
      "byteOffset": 36
    },
    {
      "type": "SCALAR",
      "componentType": 5123,
      "count": 29502,
      "bufferView": 1,
      "byteOffset": 0
    },
    {
      "type": "SCALAR",
      "componentType": 5123,
      "count": 2880,
      "bufferView": 1,
      "byteOffset": 59004
    },
    {
      "type": "SCALAR",
      "componentType": 5123,
      "count": 1830,
      "bufferView": 1,
      "byteOffset": 64764
    },
    {
      "type": "SCALAR",
      "componentType": 5123,
      "count": 816,
      "bufferView": 1,
      "byteOffset": 68424
    },
    {
      "type": "SCALAR",
      "componentType": 5123,
      "count": 756,
      "bufferView": 1,
      "byteOffset": 70056
    },
    {
      "type": "SCALAR",
      "componentType": 5123,
      "count": 50928,
      "bufferView": 1,
      "byteOffset": 71568
    },
    {
      "type": "SCALAR",
      "componentType": 5123,
      "count": 12234,
      "bufferView": 1,
      "byteOffset": 173424
    },
    {
      "type": "MAT4",
      "componentType": 5126,
      "count": 136,
      "bufferView": 2,
      "byteOffset": 0
    },
    {
      "type": "VEC3",
      "componentType": 5126,
      "count": 516,
      "max": [
        0.0787317305803299,
        1.466867208480835,
        0.08528198301792145
      ],
      "min": [
        -0.07873160392045975,
        1.3801014423370361,
        -0.001405307906679809
      ],
      "bufferView": 3,
      "byteOffset": 0
    },
    {
      "type": "VEC3",
      "componentType": 5126,
      "count": 516,
      "bufferView": 3,
      "byteOffset": 12
    },
    {
      "type": "VEC2",
      "componentType": 5126,
      "count": 516,
      "bufferView": 3,
      "byteOffset": 24
    },
    {
      "type": "VEC4",
      "componentType": 5121,
      "count": 516,
      "bufferView": 3,
      "byteOffset": 32
    },
    {
      "type": "VEC4",
      "componentType": 5126,
      "count": 516,
      "bufferView": 3,
      "byteOffset": 36
    },
    {
      "type": "VEC3",
      "componentType": 5126,
      "count": 710,
      "max": [
        0.0359288714826107,
        1.3677877187728882,
        0.10477760434150696
      ],
      "min": [
        -0.03592877835035324,
        1.3175885677337646,
        0.04087010771036148
      ],
      "bufferView": 4,
      "byteOffset": 0
    },
    {
      "type": "VEC3",
      "componentType": 5126,
      "count": 710,
      "bufferView": 4,
      "byteOffset": 12
    },
    {
      "type": "VEC2",
      "componentType": 5126,
      "count": 710,
      "bufferView": 4,
      "byteOffset": 24
    },
    {
      "type": "VEC4",
      "componentType": 5121,
      "count": 710,
      "bufferView": 4,
      "byteOffset": 32
    },
    {
      "type": "VEC4",
      "componentType": 5126,
      "count": 710,
      "bufferView": 4,
      "byteOffset": 36
    },
    {
      "type": "VEC3",
      "componentType": 5126,
      "count": 162,
      "max": [
        0.08885172009468079,
        1.4704852104187012,
        0.10923605412244797
      ],
      "min": [
        -0.08885172009468079,
        1.4506350755691528,
        0.050409503281116486
      ],
      "bufferView": 5,
      "byteOffset": 0
    },
    {
      "type": "VEC3",
      "componentType": 5126,
      "count": 162,
      "bufferView": 5,
      "byteOffset": 12
    },
    {
      "type": "VEC2",
      "componentType": 5126,
      "count": 162,
      "bufferView": 5,
      "byteOffset": 24
    },
    {
      "type": "VEC4",
      "componentType": 5121,
      "count": 162,
      "bufferView": 5,
      "byteOffset": 32
    },
    {
      "type": "VEC4",
      "componentType": 5126,
      "count": 162,
      "bufferView": 5,
      "byteOffset": 36
    },
    {
      "type": "VEC3",
      "componentType": 5126,
      "count": 539,
      "max": [
        0.08633226901292801,
        1.4445585012435913,
        0.10215052217245102
      ],
      "min": [
        -0.08633226156234741,
        1.3991481065750122,
        0.06627006083726883
      ],
      "bufferView": 6,
      "byteOffset": 0
    },
    {
      "type": "VEC3",
      "componentType": 5126,
      "count": 539,
      "bufferView": 6,
      "byteOffset": 12
    },
    {
      "type": "VEC2",
      "componentType": 5126,
      "count": 539,
      "bufferView": 6,
      "byteOffset": 24
    },
    {
      "type": "VEC4",
      "componentType": 5121,
      "count": 539,
      "bufferView": 6,
      "byteOffset": 32
    },
    {
      "type": "VEC4",
      "componentType": 5126,
      "count": 539,
      "bufferView": 6,
      "byteOffset": 36
    },
    {
      "type": "VEC3",
      "componentType": 5126,
      "count": 11566,
      "max": [
        0.269406795501709,
        1.2888684272766113,
        0.2223537266254425
      ],
      "min": [
        -0.2707129120826721,
        5.811707524117082e-7,
        -0.12304719537496567
      ],
      "bufferView": 7,
      "byteOffset": 0
    },
    {
      "type": "VEC3",
      "componentType": 5126,
      "count": 11566,
      "bufferView": 7,
      "byteOffset": 12
    },
    {
      "type": "VEC2",
      "componentType": 5126,
      "count": 11566,
      "bufferView": 7,
      "byteOffset": 24
    },
    {
      "type": "VEC4",
      "componentType": 5121,
      "count": 11566,
      "bufferView": 7,
      "byteOffset": 32
    },
    {
      "type": "VEC4",
      "componentType": 5126,
      "count": 11566,
      "bufferView": 7,
      "byteOffset": 36
    },
    {
      "type": "VEC3",
      "componentType": 5126,
      "count": 8118,
      "max": [
        0.10835413634777069,
        1.588639497756958,
        0.1049429178237915
      ],
      "min": [
        -0.11279729753732681,
        1.3305954933166504,
        -0.13786834478378296
      ],
      "bufferView": 8,
      "byteOffset": 0
    },
    {
      "type": "VEC3",
      "componentType": 5126,
      "count": 8118,
      "bufferView": 8,
      "byteOffset": 12
    },
    {
      "type": "VEC2",
      "componentType": 5126,
      "count": 8118,
      "bufferView": 8,
      "byteOffset": 24
    },
    {
      "type": "VEC4",
      "componentType": 5121,
      "count": 8118,
      "bufferView": 8,
      "byteOffset": 32
    },
    {
      "type": "VEC4",
      "componentType": 5126,
      "count": 8118,
      "bufferView": 8,
      "byteOffset": 36
    }
  ],
  "bufferViews": [
    {
      "buffer": 0,
      "byteOffset": 0,
      "byteLength": 295776,
      "byteStride": 52,
      "target": 34962
    },
    {
      "buffer": 0,
      "byteOffset": 295776,
      "byteLength": 197892,
      "target": 34963
    },
    {
      "buffer": 0,
      "byteOffset": 493668,
      "byteLength": 8704
    },
    {
      "buffer": 0,
      "byteOffset": 502372,
      "byteLength": 26832,
      "byteStride": 52,
      "target": 34962
    },
    {
      "buffer": 0,
      "byteOffset": 529204,
      "byteLength": 36920,
      "byteStride": 52,
      "target": 34962
    },
    {
      "buffer": 0,
      "byteOffset": 566124,
      "byteLength": 8424,
      "byteStride": 52,
      "target": 34962
    },
    {
      "buffer": 0,
      "byteOffset": 574548,
      "byteLength": 28028,
      "byteStride": 52,
      "target": 34962
    },
    {
      "buffer": 0,
      "byteOffset": 602576,
      "byteLength": 601432,
      "byteStride": 52,
      "target": 34962
    },
    {
      "buffer": 0,
      "byteOffset": 1204008,
      "byteLength": 422136,
      "byteStride": 52,
      "target": 34962
    }
  ],
  "samplers": [
    {
      "magFilter": 9729,
      "minFilter": 9987,
      "wrapS": 10497,
      "wrapT": 10497
    }
  ],
  "textures": [
    {
      "source": 2,
      "sampler": 0
    },
    {
      "source": 0,
      "sampler": 0
    },
    {
      "source": 1,
      "sampler": 0
    },
    {
      "source": 5,
      "sampler": 0
    },
    {
      "source": 3,
      "sampler": 0
    },
    {
      "source": 4,
      "sampler": 0
    },
    {
      "source": 7,
      "sampler": 0
    },
    {
      "source": 6,
      "sampler": 0
    },
    {
      "source": 10,
      "sampler": 0
    },
    {
      "source": 8,
      "sampler": 0
    },
    {
      "source": 9,
      "sampler": 0
    },
    {
      "source": 13,
      "sampler": 0
    },
    {
      "source": 11,
      "sampler": 0
    },
    {
      "source": 12,
      "sampler": 0
    },
    {
      "source": 15,
      "sampler": 0
    },
    {
      "source": 14,
      "sampler": 0
    },
    {
      "source": 18,
      "sampler": 0
    },
    {
      "source": 16,
      "sampler": 0
    },
    {
      "source": 17,
      "sampler": 0
    }
  ],
  "images": [
    {
      "name": "Submesh_0_Emission",
      "mimeType": "image/png",
      "uri": "Textures/Submesh_0_Emission.png"
    },
    {
      "name": "Submesh_0_Normal",
      "mimeType": "image/png",
      "uri": "Textures/Submesh_0_Normal.tga"
    },
    {
      "name": "Submesh_0_Albedo",
      "mimeType": "image/png",
      "uri": "Textures/Submesh_0_Albedo.png"
    },
    {
      "name": "Submesh_1_Emission",
      "mimeType": "image/png",
      "uri": "Textures/Submesh_1_Emission.png"
    },
    {
      "name": "Submesh_1_Normal",
      "mimeType": "image/png",
      "uri": "Textures/Submesh_1_Normal.tga"
    },
    {
      "name": "Submesh_1_Albedo",
      "mimeType": "image/png",
      "uri": "Textures/Submesh_1_Albedo.png"
    },
    {
      "name": "Submesh_2_Normal",
      "mimeType": "image/png",
      "uri": "Textures/Submesh_2_Normal.tga"
    },
    {
      "name": "Submesh_2_Albedo",
      "mimeType": "image/png",
      "uri": "Textures/Submesh_2_Albedo.png"
    },
    {
      "name": "Submesh_3_Emission",
      "mimeType": "image/png",
      "uri": "Textures/Submesh_3_Emission.png"
    },
    {
      "name": "Submesh_3_Normal",
      "mimeType": "image/png",
      "uri": "Textures/Submesh_3_Normal.tga"
    },
    {
      "name": "Submesh_3_Albedo",
      "mimeType": "image/png",
      "uri": "Textures/Submesh_3_Albedo.png"
    },
    {
      "name": "Submesh_4_Emission",
      "mimeType": "image/png",
      "uri": "Textures/Submesh_4_Emission.png"
    },
    {
      "name": "Submesh_4_Normal",
      "mimeType": "image/png",
      "uri": "Textures/Submesh_4_Normal.tga"
    },
    {
      "name": "Submesh_4_Albedo",
      "mimeType": "image/png",
      "uri": "Textures/Submesh_4_Albedo.png"
    },
    {
      "name": "Submesh_5_Normal",
      "mimeType": "image/png",
      "uri": "Textures/Submesh_5_Normal.tga"
    },
    {
      "name": "Submesh_5_Albedo",
      "mimeType": "image/png",
      "uri": "Textures/Submesh_5_Albedo.png"
    },
    {
      "name": "Submesh_6_Emission",
      "mimeType": "image/png",
      "uri": "Textures/Submesh_6_Emission.png"
    },
    {
      "name": "Submesh_6_Normal",
      "mimeType": "image/png",
      "uri": "Textures/Submesh_6_Normal.tga"
    },
    {
      "name": "Submesh_6_Albedo",
      "mimeType": "image/png",
      "uri": "Textures/Submesh_6_Albedo.png"
    }
  ],
  "buffers": [
    {
      "uri": "Alex.bin",
      "byteLength": 1626144
    }
  ],
  "materials": [
    {
      "name": "Submesh_0.001",
      "alphaMode": "BLEND",
      "doubleSided": true,
      "pbrMetallicRoughness": {
        "roughnessFactor": 0.5527864098548889,
        "metallicFactor": 0,
        "baseColorTexture": {
          "index": 0
        }
      },
      "emissiveFactor": [
        1,
        1,
        1
      ],
      "emissiveTexture": {
        "index": 1
      },
      "normalTexture": {
        "index": 2
      }
    },
    {
      "name": "Submesh_1.001",
      "alphaMode": "BLEND",
      "doubleSided": true,
      "pbrMetallicRoughness": {
        "roughnessFactor": 0.5527864098548889,
        "metallicFactor": 0,
        "baseColorTexture": {
          "index": 3
        }
      },
      "emissiveFactor": [
        1,
        1,
        1
      ],
      "emissiveTexture": {
        "index": 4
      },
      "normalTexture": {
        "index": 5
      }
    },
    {
      "name": "Submesh_2.001",
      "alphaMode": "BLEND",
      "doubleSided": true,
      "pbrMetallicRoughness": {
        "roughnessFactor": 0.5527864098548889,
        "metallicFactor": 0,
        "baseColorTexture": {
          "index": 6
        }
      },
      "normalTexture": {
        "index": 7
      }
    },
    {
      "name": "Submesh_3.001",
      "alphaMode": "BLEND",
      "doubleSided": true,
      "pbrMetallicRoughness": {
        "roughnessFactor": 0.5527864098548889,
        "metallicFactor": 0,
        "baseColorTexture": {
          "index": 8
        }
      },
      "emissiveFactor": [
        1,
        1,
        1
      ],
      "emissiveTexture": {
        "index": 9
      },
      "normalTexture": {
        "index": 10
      }
    },
    {
      "name": "Submesh_4.001",
      "alphaMode": "BLEND",
      "doubleSided": true,
      "pbrMetallicRoughness": {
        "roughnessFactor": 0.5527864098548889,
        "metallicFactor": 0,
        "baseColorTexture": {
          "index": 11
        }
      },
      "emissiveFactor": [
        1,
        1,
        1
      ],
      "emissiveTexture": {
        "index": 12
      },
      "normalTexture": {
        "index": 13
      }
    },
    {
      "name": "Submesh_5.001",
      "doubleSided": true,
      "pbrMetallicRoughness": {
        "roughnessFactor": 0.5527864098548889,
        "metallicFactor": 0,
        "baseColorTexture": {
          "index": 14
        }
      },
      "normalTexture": {
        "index": 15
      }
    },
    {
      "name": "Submesh_6.001",
      "alphaMode": "BLEND",
      "doubleSided": true,
      "pbrMetallicRoughness": {
        "roughnessFactor": 0.5527864098548889,
        "metallicFactor": 0,
        "baseColorTexture": {
          "index": 16
        }
      },
      "emissiveFactor": [
        1,
        1,
        1
      ],
      "emissiveTexture": {
        "index": 17
      },
      "normalTexture": {
        "index": 18
      }
    }
  ],
  "meshes": [
    {
      "name": "Mesh.007",
      "primitives": [
        {
          "attributes": {
            "POSITION": 0,
            "NORMAL": 1,
            "TEXCOORD_0": 2,
            "JOINTS_0": 3,
            "WEIGHTS_0": 4
          },
          "mode": 4,
          "material": 0,
          "indices": 5
        }
      ]
    },
    {
      "name": "Mesh.008",
      "primitives": [
        {
          "attributes": {
            "POSITION": 13,
            "NORMAL": 14,
            "TEXCOORD_0": 15,
            "JOINTS_0": 16,
            "WEIGHTS_0": 17
          },
          "mode": 4,
          "material": 1,
          "indices": 6
        }
      ]
    },
    {
      "name": "Mesh.009",
      "primitives": [
        {
          "attributes": {
            "POSITION": 18,
            "NORMAL": 19,
            "TEXCOORD_0": 20,
            "JOINTS_0": 21,
            "WEIGHTS_0": 22
          },
          "mode": 4,
          "material": 2,
          "indices": 7
        }
      ]
    },
    {
      "name": "Mesh.010",
      "primitives": [
        {
          "attributes": {
            "POSITION": 23,
            "NORMAL": 24,
            "TEXCOORD_0": 25,
            "JOINTS_0": 26,
            "WEIGHTS_0": 27
          },
          "mode": 4,
          "material": 3,
          "indices": 8
        }
      ]
    },
    {
      "name": "Mesh.011",
      "primitives": [
        {
          "attributes": {
            "POSITION": 28,
            "NORMAL": 29,
            "TEXCOORD_0": 30,
            "JOINTS_0": 31,
            "WEIGHTS_0": 32
          },
          "mode": 4,
          "material": 4,
          "indices": 9
        }
      ]
    },
    {
      "name": "Mesh.012",
      "primitives": [
        {
          "attributes": {
            "POSITION": 33,
            "NORMAL": 34,
            "TEXCOORD_0": 35,
            "JOINTS_0": 36,
            "WEIGHTS_0": 37
          },
          "mode": 4,
          "material": 5,
          "indices": 10
        }
      ]
    },
    {
      "name": "Mesh.013",
      "primitives": [
        {
          "attributes": {
            "POSITION": 38,
            "NORMAL": 39,
            "TEXCOORD_0": 40,
            "JOINTS_0": 41,
            "WEIGHTS_0": 42
          },
          "mode": 4,
          "material": 6,
          "indices": 11
        }
      ]
    }
  ],
  "nodes": [
    {
      "name": "animatedCamera"
    },
    {
      "name": "HipsBind"
    },
    {
      "name": "LeftUpLegTwist3Bind",
      "translation": [
        2.52359910746236e-10,
        23.82065200805664,
        -0.000011620802979450673
      ]
    },
    {
      "name": "LeftUpLegTwist2Bind",
      "translation": [
        2.510995855686815e-10,
        11.874488830566406,
        -0.0000032362581805500668
      ]
    },
    {
      "name": "LeftUpLegTwist1Bind",
      "translation": [
        2.5070434617191495e-10,
        0.000015256286133080721,
        -5.844336783411563e-7
      ]
    },
    {
      "name": "LeftLegTwist2Bind",
      "translation": [
        6.408466788343503e-7,
        10.276597023010254,
        -0.00027909703203476965
      ],
      "rotation": [
        -0.000014506280422210693,
        -3.122502256758253e-17,
        -1.2664804101281124e-12,
        1
      ]
    },
    {
      "name": "LeftLegTwist3Bind",
      "translation": [
        6.408727131201886e-7,
        20.615230560302734,
        -0.0005767924012616277
      ],
      "rotation": [
        -0.00001411139965057373,
        -7.077671781985373e-15,
        -1.2351809028712801e-12,
        1
      ]
    },
    {
      "name": "LeftLegTwist1Bind"
    },
    {
      "name": "LeftToeBaseBind"
    },
    {
      "name": "LeftToeBase",
      "translation": [
        -0.0000012432205949153285,
        15.557544708251953,
        0.3740387558937073
      ],
      "rotation": [
        0.1923140585422516,
        -6.437331814520067e-14,
        -1.6812343517358386e-8,
        0.9813334345817566
      ],
      "children": [
        8
      ]
    },
    {
      "name": "LeftFootBind",
      "rotation": [
        0.00006209313869476318,
        -7.771561172376096e-14,
        -6.124775166205243e-12,
        1
      ],
      "children": [
        9
      ]
    },
    {
      "name": "LeftFoot",
      "translation": [
        6.408936314983293e-7,
        30.95384407043457,
        -0.0008157474221661687
      ],
      "rotation": [
        0.5535043478012085,
        -7.281007441406473e-8,
        6.291980283144871e-13,
        0.8328463435173035
      ],
      "children": [
        10
      ]
    },
    {
      "name": "LeftLeg",
      "translation": [
        6.43084696605456e-10,
        35.82879638671875,
        -0.002599310129880905
      ],
      "rotation": [
        -0.02055700682103634,
        -3.17797912430251e-8,
        -2.450585956381701e-9,
        0.9997887015342712
      ],
      "children": [
        5,
        6,
        7,
        11
      ]
    },
    {
      "name": "LeftUpLeg",
      "translation": [
        6.1165032386779785,
        -0.07163131982088089,
        -8.754432201385498e-8
      ],
      "rotation": [
        7.549197533762708e-8,
        -0.01253469381481409,
        -0.999921441078186,
        9.463428929379347e-10
      ],
      "children": [
        2,
        3,
        4,
        12
      ]
    },
    {
      "name": "NeckBind"
    },
    {
      "name": "MouthBind",
      "translation": [
        -0.000027068368581240065,
        -5.346708297729492,
        7.881805419921875
      ],
      "rotation": [
        -0.000004972474016540218,
        0.027064338326454163,
        -0.9996337294578552,
        0.000007841976184863597
      ]
    },
    {
      "name": "LeftEyeBind",
      "translation": [
        -4.172325134277344e-7,
        -0.0001421552151441574,
        2.980232238769531e-7
      ]
    },
    {
      "name": "LeftEye",
      "translation": [
        1.1920928955078125e-7,
        0.000025739893317222595,
        -0.00001341104507446289
      ],
      "children": [
        16
      ]
    },
    {
      "name": "LeftEyeSocketBind",
      "children": [
        17
      ]
    },
    {
      "name": "LeftEyeSocket",
      "translation": [
        3.538815498352051,
        3.1541452407836914,
        2.3787472248077393
      ],
      "rotation": [
        -0.0068792724050581455,
        0.11532759666442871,
        0.0021669266279786825,
        0.9933013916015625
      ],
      "children": [
        18
      ]
    },
    {
      "name": "RightEyeBind"
    },
    {
      "name": "RightEye",
      "translation": [
        5.960464477539063e-8,
        -0.0000222519738599658,
        -0.0000012516975402832031
      ],
      "children": [
        20
      ]
    },
    {
      "name": "RightEyeSocketBind",
      "children": [
        21
      ]
    },
    {
      "name": "RightEyeSocket",
      "translation": [
        -3.5388126373291016,
        3.1541757583618164,
        2.378736734390259
      ],
      "rotation": [
        -0.006558856461197138,
        -0.11534705013036728,
        0.0005935492808930576,
        0.9933034181594849
      ],
      "children": [
        22
      ]
    },
    {
      "name": "RightBrowBind",
      "translation": [
        -1.8080013990402222,
        7.186981678009033,
        0.8359991908073425
      ],
      "rotation": [
        -3.670887371853837e-9,
        0.9816271662712097,
        -1.8885071284557853e-8,
        0.19080917537212372
      ]
    },
    {
      "name": "FaceBind",
      "translation": [
        -5.820766091346741e-11,
        -0.000030132356187095866,
        -3.5826906241709366e-7
      ]
    },
    {
      "name": "JawBind",
      "translation": [
        0,
        -0.0000155040488607483,
        0.00000253783400694374
      ],
      "rotation": [
        -0.02422725036740303,
        0,
        0,
        0.9997064471244812
      ]
    },
    {
      "name": "Jaw",
      "translation": [
        -5.820766091346741e-11,
        -3.670837640762329,
        -2.9691903591156006
      ],
      "children": [
        26
      ]
    },
    {
      "name": "NoseBind",
      "translation": [
        -5.820766091346741e-11,
        -2.210630178451538,
        8.465522766113281
      ],
      "rotation": [
        -0.007615216076374054,
        0,
        0,
        0.9999710321426392
      ]
    },
    {
      "name": "LeftBrowBind",
      "translation": [
        1.8077417612075806,
        7.186981678009033,
        0.8358256220817566
      ],
      "rotation": [
        -3.670887371853837e-9,
        -0.9816271662712097,
        1.8885071284557853e-8,
        0.19080917537212372
      ]
    },
    {
      "name": "MouthInnerBind",
      "translation": [
        -0.00005616911221295595,
        -5.193663120269775,
        5.057263374328613
      ],
      "rotation": [
        -0.000004972415354131954,
        0.02706434391438961,
        -0.9996337294578552,
        0.000007841978003853
      ]
    },
    {
      "name": "Face",
      "translation": [
        0.0007646920857951045,
        6.990450859069824,
        3.5656280517578125
      ],
      "rotation": [
        -0.02040146291255951,
        0,
        0,
        0.9997918605804443
      ],
      "children": [
        15,
        19,
        23,
        24,
        25,
        27,
        28,
        29,
        30
      ]
    },
    {
      "name": "Head",
      "translation": [
        0,
        11.650894165039062,
        1.2684471607208252
      ],
      "rotation": [
        0.020401494577527046,
        0,
        0,
        0.9997919201850891
      ],
      "children": [
        31
      ]
    },
    {
      "name": "Neck",
      "translation": [
        -0.0007646920275874436,
        15.818962097167969,
        -4.285889625549316
      ],
      "rotation": [
        -0.012533924542367458,
        0,
        0,
        0.999921441078186
      ],
      "children": [
        14,
        32
      ]
    },
    {
      "name": "RightArmTwist1Bind",
      "translation": [
        -2.868473529815674e-7,
        0.0000027026981115341187,
        -0.000015947967767715454
      ]
    },
    {
      "name": "RightArmTwist2Bind",
      "translation": [
        0.000005893409252166748,
        6.841626167297363,
        -0.000012081116437911987
      ]
    },
    {
      "name": "RightArmTwist3Bind",
      "translation": [
        0.00002514570951461792,
        13.724530220031738,
        -0.000011023133993148804
      ]
    },
    {
      "name": "RightForeArmTwist3Bind",
      "translation": [
        0.0014290809631347656,
        13.454659461975098,
        0.000007905066013336182
      ],
      "rotation": [
        -8.451607413917372e-7,
        -0.0000014302204363048077,
        -0.00005752480137743987,
        1
      ]
    },
    {
      "name": "RightForeArmTwist2Bind",
      "translation": [
        0.0006632804870605469,
        6.70709228515625,
        0.000021863728761672974
      ],
      "rotation": [
        -8.764181984588504e-7,
        -0.0000012020464055240154,
        -0.00005488228634931147,
        1
      ]
    },
    {
      "name": "RightHandThumb1Bind",
      "translation": [
        0.00004088878631591797,
        -0.000001430511474609375,
        -0.00004252791404724121
      ]
    },
    {
      "name": "RightHandThumb2Bind",
      "translation": [
        -0.00001615285873413086,
        -0.00000667572021484375,
        -0.000018477439880371094
      ]
    },
    {
      "name": "RightHandThumb3Bind",
      "translation": [
        -2.384185791015625e-7,
        0.000019073486328125,
        -0.0000050067901611328125
      ]
    },
    {
      "name": "RightHandThumb3",
      "translation": [
        -7.152557373046875e-7,
        3.8681106567382812,
        -0.00007390975952148438
      ],
      "rotation": [
        0.0085193095728755,
        -0.004233126994222403,
        0.002644746098667383,
        0.9999512434005737
      ],
      "children": [
        41
      ]
    },
    {
      "name": "RightHandThumb2",
      "translation": [
        0.00005072355270385742,
        3.6769754886627197,
        0.000013887882232666016
      ],
      "rotation": [
        0.002408841624855995,
        -0.002697157906368375,
        0.03587779775261879,
        0.9993496537208557
      ],
      "children": [
        40,
        42
      ]
    },
    {
      "name": "RightHandThumb1",
      "translation": [
        1.8217365741729736,
        2.975268840789795,
        0.7242386937141418
      ],
      "rotation": [
        -0.06699884682893753,
        -0.3002801537513733,
        -0.4491269290447235,
        0.8388254046440125
      ],
      "children": [
        39,
        43
      ]
    },
    {
      "name": "RightHandRing1Bind",
      "translation": [
        0.0000019669532775878906,
        0.000008553266525268555,
        -0.000016823410987854004
      ]
    },
    {
      "name": "RightHandRing2Bind",
      "translation": [
        -8.940696716308594e-7,
        -7.301568984985352e-7,
        0.00001245737075805664
      ]
    },
    {
      "name": "RightHandRing3Bind",
      "translation": [
        0.0000016093254089355469,
        -0.000009402632713317871,
        -0.00014035403728485107
      ]
    },
    {
      "name": "RightHandRing3",
      "translation": [
        -0.0000013709068298339844,
        2.440368890762329,
        0.0000032186508178710938
      ],
      "rotation": [
        0.00003426359035074711,
        0.00003739446401596069,
        0.000010710442438721657,
        1
      ],
      "children": [
        47
      ]
    },
    {
      "name": "RightHandRing2",
      "translation": [
        0.0000010132789611816406,
        3.6018848419189453,
        -0.0000011473894119262695
      ],
      "children": [
        46,
        48
      ]
    },
    {
      "name": "RightHandRing1",
      "translation": [
        -1.3429967164993286,
        9.161291122436523,
        0.2477596402168274
      ],
      "rotation": [
        0.04704149067401886,
        0.03001810424029827,
        0.022300373762845993,
        0.9981927275657654
      ],
      "children": [
        45,
        49
      ]
    },
    {
      "name": "RightHandIndex1Bind"
    },
    {
      "name": "RightHandIndex3Bind",
      "translation": [
        7.152557373046875e-7,
        -0.000008754432201385498,
        -0.00009462982416152954
      ]
    },
    {
      "name": "RightHandIndex3",
      "translation": [
        -1.1920928955078125e-7,
        2.4550492763519287,
        0.000024549663066864014
      ],
      "rotation": [
        0.00003575522714527324,
        0.0000383816659450531,
        0.000004607486062013777,
        1
      ],
      "children": [
        52
      ]
    },
    {
      "name": "RightHandIndex2Bind",
      "translation": [
        2.384185791015625e-7,
        -0.0000020638108253479004,
        0.00001990795135498047
      ]
    },
    {
      "name": "RightHandIndex2",
      "translation": [
        8.344650268554688e-7,
        3.3933005332946777,
        -0.000002779066562652588
      ],
      "children": [
        53,
        54
      ]
    },
    {
      "name": "RightHandIndex1",
      "translation": [
        2.906182050704956,
        9.439276695251465,
        0.25520411133766174
      ],
      "rotation": [
        0.04704153537750244,
        0.0300181582570076,
        0.02230033464729786,
        0.9981927275657654
      ],
      "children": [
        51,
        55
      ]
    },
    {
      "name": "RightHandPinky1Bind",
      "translation": [
        0.000004172325134277344,
        -0.000009745359420776367,
        -0.000014632940292358398
      ]
    },
    {
      "name": "RightHandPinky2Bind",
      "translation": [
        -5.960464477539062e-7,
        0.00001728534698486328,
        0.00001856684684753418
      ]
    },
    {
      "name": "RightHandPinky3Bind",
      "translation": [
        0.0000016689300537109375,
        0.000003069639205932617,
        -0.00010344386100769043
      ]
    },
    {
      "name": "RightHandPinky3",
      "translation": [
        -0.0000015497207641601562,
        1.9433207511901855,
        0.000029474496841430664
      ],
      "rotation": [
        0.00003575208393158391,
        0.00003912812826456502,
        0.000010477379873918835,
        1
      ],
      "children": [
        59
      ]
    },
    {
      "name": "RightHandPinky2",
      "translation": [
        0.0000029802322387695312,
        2.800605535507202,
        -0.000009387731552124023
      ],
      "children": [
        58,
        60
      ]
    },
    {
      "name": "RightHandPinky1",
      "translation": [
        -3.1187057495117188,
        8.903592109680176,
        0.7267348766326904
      ],
      "rotation": [
        0.04704166203737259,
        0.030018318444490433,
        0.02230020798742771,
        0.9981927275657654
      ],
      "children": [
        57,
        61
      ]
    },
    {
      "name": "RightHandMiddle2Bind",
      "translation": [
        0.0000010132789611816406,
        0.000009782612323760986,
        0.000012256205081939697
      ]
    },
    {
      "name": "RightHandMiddle3Bind",
      "translation": [
        0.0000019669532775878906,
        -0.000006385147571563721,
        -0.00009422749280929565
      ]
    },
    {
      "name": "RightHandMiddle3",
      "translation": [
        -0.0000012516975402832031,
        2.8032937049865723,
        0.000017531216144561768
      ],
      "rotation": [
        0.000035752080293605104,
        0.00003872486558975652,
        0.000004933682248520199,
        1
      ],
      "children": [
        64
      ]
    },
    {
      "name": "RightHandMiddle2",
      "translation": [
        0.0000016093254089355469,
        3.905270576477051,
        0.00000426173210144043
      ],
      "children": [
        63,
        65
      ]
    },
    {
      "name": "RightHandMiddle1Bind"
    },
    {
      "name": "RightHandMiddle1",
      "translation": [
        0.8293889760971069,
        9.413003921508789,
        0.06363186240196228
      ],
      "rotation": [
        0.04704131931066513,
        0.030017925426363945,
        0.02230025827884674,
        0.9981927871704102
      ],
      "children": [
        66,
        67
      ]
    },
    {
      "name": "RightHandBind",
      "translation": [
        -8.344650268554688e-7,
        -0.000017583370208740234,
        -0.00002359040081501007
      ],
      "rotation": [
        -0.00009756186773302034,
        -0.00010805366764543578,
        0.000003870518412441015,
        1
      ],
      "children": [
        44,
        50,
        56,
        62,
        68
      ]
    },
    {
      "name": "RightHand",
      "translation": [
        0.00225830078125,
        20.2022705078125,
        -0.00004566460847854614
      ],
      "rotation": [
        0.00019740124116651714,
        0.00010356152051826939,
        -0.020870527252554893,
        0.9997822046279907
      ],
      "children": [
        69
      ]
    },
    {
      "name": "RightForeArmTwist1Bind",
      "translation": [
        0,
        -0.00003421306610107422,
        0.000022180378437042236
      ]
    },
    {
      "name": "RightForeArm",
      "translation": [
        0.004031524062156677,
        20.647777557373047,
        -0.000012062489986419678
      ],
      "rotation": [
        -0.008078329265117645,
        0.0003925279888790101,
        -0.03589025139808655,
        0.9993230104446411
      ],
      "children": [
        37,
        38,
        70,
        71
      ]
    },
    {
      "name": "RightArm",
      "translation": [
        0.0034072399139404297,
        12.3335599899292,
        0.015294728800654411
      ],
      "rotation": [
        -0.04209032654762268,
        0.006018075160682201,
        -0.05453100427985191,
        0.9976063966751099
      ],
      "children": [
        34,
        35,
        36,
        72
      ]
    },
    {
      "name": "RightShoulderBind",
      "translation": [
        3.2782554626464844e-7,
        0.0000016391277313232422,
        0.00002379934630880598
      ]
    },
    {
      "name": "RightShoulder",
      "translation": [
        -0.6935714483261108,
        14.553248405456543,
        -3.9748551845550537
      ],
      "rotation": [
        0.5028617978096008,
        -0.4844881296157837,
        0.5660393238067627,
        0.4381789267063141
      ],
      "children": [
        73,
        74
      ]
    },
    {
      "name": "Spine2Bind"
    },
    {
      "name": "LeftShoulderBind",
      "translation": [
        2.8312206268310547e-7,
        0.000002473592758178711,
        0.000023187514671008103
      ]
    },
    {
      "name": "LeftForeArmTwist1Bind",
      "translation": [
        -4.76837158203125e-7,
        0.000003546476364135742,
        0.000018417835235595703
      ]
    },
    {
      "name": "LeftHandMiddle2Bind",
      "translation": [
        7.748603820800781e-7,
        0.000004500150680541992,
        0.000015210360288619995
      ]
    },
    {
      "name": "LeftHandMiddle3Bind",
      "translation": [
        -2.384185791015625e-7,
        -4.4330954551696777e-7,
        0.000016532838344573975
      ]
    },
    {
      "name": "LeftHandMiddle3",
      "translation": [
        -6.556510925292969e-7,
        2.8032760620117188,
        0.000004276633262634277
      ],
      "rotation": [
        0.000032776497391751036,
        -0.000035427045077085495,
        -0.000004934379830956459,
        1
      ],
      "children": [
        80
      ]
    },
    {
      "name": "LeftHandMiddle2",
      "translation": [
        -0.0000018477439880371094,
        3.9052674770355225,
        -0.000008422881364822388
      ],
      "children": [
        79,
        81
      ]
    },
    {
      "name": "LeftHandMiddle1Bind",
      "translation": [
        -0.0000015497207641601562,
        -0.000011123716831207275,
        -0.000014215707778930664
      ]
    },
    {
      "name": "LeftHandMiddle1",
      "translation": [
        -0.8293788433074951,
        9.413047790527344,
        0.06360211968421936
      ],
      "rotation": [
        0.047042276710271835,
        -0.03001864068210125,
        -0.02230047807097435,
        0.9981927275657654
      ],
      "children": [
        82,
        83
      ]
    },
    {
      "name": "LeftHandRing2Bind",
      "translation": [
        0.0000019669532775878906,
        0.0000035315752029418945,
        0.000013247132301330566
      ]
    },
    {
      "name": "LeftHandRing3Bind"
    },
    {
      "name": "LeftHandRing3",
      "translation": [
        0.0000014901161193847656,
        2.4403598308563232,
        0.000019237399101257324
      ],
      "rotation": [
        0.000033518881537020206,
        -0.00003690528683364391,
        -0.000010663410648703575,
        1
      ],
      "children": [
        86
      ]
    },
    {
      "name": "LeftHandRing2",
      "translation": [
        -0.0000033974647521972656,
        3.6018881797790527,
        -0.000025644898414611816
      ],
      "children": [
        85,
        87
      ]
    },
    {
      "name": "LeftHandRing1Bind"
    },
    {
      "name": "LeftHandRing1",
      "translation": [
        1.3430070877075195,
        9.161334991455078,
        0.24773597717285156
      ],
      "rotation": [
        0.04704272001981735,
        -0.030019117519259453,
        -0.022300520911812782,
        0.9981926679611206
      ],
      "children": [
        88,
        89
      ]
    },
    {
      "name": "LeftHandPinky1Bind",
      "translation": [
        -0.0000019073486328125,
        -0.000012129545211791992,
        -0.00000476837158203125
      ]
    },
    {
      "name": "LeftHandPinky2Bind"
    },
    {
      "name": "LeftHandPinky3Bind",
      "translation": [
        -0.000002384185791015625,
        0.000005900859832763672,
        -0.000015616416931152344
      ]
    },
    {
      "name": "LeftHandPinky3",
      "translation": [
        1.1920928955078125e-7,
        1.9433109760284424,
        -0.0000046193599700927734
      ],
      "rotation": [
        0.000035014236345887184,
        -0.000038539525121450424,
        -0.000010804040357470512,
        1
      ],
      "children": [
        93
      ]
    },
    {
      "name": "LeftHandPinky2",
      "translation": [
        -0.0000011920928955078125,
        2.8006021976470947,
        -0.000007510185241699219
      ],
      "children": [
        92,
        94
      ]
    },
    {
      "name": "LeftHandPinky1",
      "translation": [
        3.118717908859253,
        8.9036283493042,
        0.7266949415206909
      ],
      "rotation": [
        0.04704103618860245,
        -0.030017273500561714,
        -0.022300295531749725,
        0.9981927871704102
      ],
      "children": [
        91,
        95
      ]
    },
    {
      "name": "LeftHandIndex2Bind"
    },
    {
      "name": "LeftHandIndex3Bind",
      "translation": [
        -0.000003814697265625,
        -0.00001529604196548462,
        0.000009037554264068604
      ]
    },
    {
      "name": "LeftHandIndex3",
      "translation": [
        -1.1920928955078125e-7,
        2.455040693283081,
        -0.00000737607479095459
      ],
      "rotation": [
        0.00003277708310633898,
        -0.000035081757232546806,
        -0.000004564179107546806,
        1
      ],
      "children": [
        98
      ]
    },
    {
      "name": "LeftHandIndex2",
      "translation": [
        -0.0000045299530029296875,
        3.393305778503418,
        -0.00003730505704879761
      ],
      "children": [
        97,
        99
      ]
    },
    {
      "name": "LeftHandIndex1Bind",
      "translation": [
        -0.000004470348358154297,
        2.086162567138672e-7,
        -0.000024687498807907104
      ]
    },
    {
      "name": "LeftHandIndex1",
      "translation": [
        -2.9061708450317383,
        9.439316749572754,
        0.2551841735839844
      ],
      "rotation": [
        0.047042444348335266,
        -0.030018826946616173,
        -0.022300533950328827,
        0.9981926679611206
      ],
      "children": [
        100,
        101
      ]
    },
    {
      "name": "LeftHandThumb3Bind",
      "translation": [
        0.000015735626220703125,
        -0.0000095367431640625,
        0.000016689300537109375
      ]
    },
    {
      "name": "LeftHandThumb3",
      "translation": [
        -0.000011920928955078125,
        3.8680992126464844,
        0.00011420249938964844
      ],
      "rotation": [
        0.008517318405210972,
        0.004234733060002327,
        -0.002650775946676731,
        0.9999512434005737
      ],
      "children": [
        103
      ]
    },
    {
      "name": "LeftHandThumb2Bind",
      "translation": [
        -0.000014007091522216797,
        -0.000008106231689453125,
        -0.000008940696716308594
      ]
    },
    {
      "name": "LeftHandThumb2",
      "translation": [
        -0.00003629922866821289,
        3.6770033836364746,
        -0.00010961294174194336
      ],
      "rotation": [
        0.0024097173009067774,
        0.0026948689483106136,
        -0.03587508946657181,
        0.9993497729301453
      ],
      "children": [
        104,
        105
      ]
    },
    {
      "name": "LeftHandThumb1Bind"
    },
    {
      "name": "LeftHandThumb1",
      "translation": [
        -1.8216657638549805,
        2.975231885910034,
        0.7242843508720398
      ],
      "rotation": [
        -0.0670023038983345,
        0.3002829849720001,
        0.44912558794021606,
        0.8388248085975647
      ],
      "children": [
        106,
        107
      ]
    },
    {
      "name": "LeftHandBind",
      "translation": [
        3.5762786865234375e-7,
        0.000005036592483520508,
        -0.0000107642263174057
      ],
      "rotation": [
        -0.00009488449722994119,
        0.00010713133087847382,
        -0.0000037957656786602456,
        1
      ],
      "children": [
        84,
        90,
        96,
        102,
        108
      ]
    },
    {
      "name": "LeftHand",
      "translation": [
        -0.0022780895233154297,
        20.20227813720703,
        -0.000017687678337097168
      ],
      "rotation": [
        0.00019590987358242273,
        -0.00010341201414121315,
        0.020870525389909744,
        0.9997822046279907
      ],
      "children": [
        109
      ]
    },
    {
      "name": "LeftForeArmTwist2Bind",
      "translation": [
        -0.0006775856018066406,
        6.707088470458984,
        0.000009734183549880981
      ],
      "rotation": [
        2.5404736447853793e-7,
        7.093185558915138e-7,
        0.00005487156522576697,
        1
      ]
    },
    {
      "name": "LeftForeArmTwist3Bind",
      "translation": [
        -0.001439213752746582,
        13.454666137695312,
        2.738088369369507e-7
      ],
      "rotation": [
        2.8530487838906993e-7,
        9.364449056192825e-7,
        0.00005752714423579164,
        1
      ]
    },
    {
      "name": "LeftForeArm",
      "translation": [
        -0.004026643931865692,
        20.647783279418945,
        0.000009365379810333252
      ],
      "rotation": [
        -0.00807869527488947,
        -0.0003920402377843857,
        0.035890597850084305,
        0.9993230104446411
      ],
      "children": [
        78,
        110,
        111,
        112
      ]
    },
    {
      "name": "LeftArmTwist1Bind",
      "translation": [
        -2.2351741790771484e-7,
        0.0000118231400847435,
        -0.00001782551407814026
      ]
    },
    {
      "name": "LeftArmTwist2Bind",
      "translation": [
        -0.000007010996341705322,
        6.841618061065674,
        -0.000012926757335662842
      ]
    },
    {
      "name": "LeftArmTwist3Bind",
      "translation": [
        -0.000026881694793701172,
        13.724540710449219,
        0.00000251084566116333
      ]
    },
    {
      "name": "LeftArm",
      "translation": [
        -0.0034056901931762695,
        12.333548545837402,
        0.015294457785785198
      ],
      "rotation": [
        -0.04209037870168686,
        -0.006018251646310091,
        0.054530639201402664,
        0.9976064562797546
      ],
      "children": [
        113,
        114,
        115,
        116
      ]
    },
    {
      "name": "LeftShoulder",
      "translation": [
        0.6935714483261108,
        14.553248405456543,
        -3.9748551845550537
      ],
      "rotation": [
        0.5028617978096008,
        0.4844880700111389,
        -0.5660393834114075,
        0.4381788969039917
      ],
      "children": [
        77,
        117
      ]
    },
    {
      "name": "Spine2",
      "translation": [
        0,
        5.843742370605469,
        0
      ],
      "children": [
        33,
        75,
        76,
        118
      ]
    },
    {
      "name": "Spine1Bind"
    },
    {
      "name": "Spine1",
      "translation": [
        0,
        5.843389511108398,
        -6.258487701416016e-7
      ],
      "children": [
        119,
        120
      ]
    },
    {
      "name": "SpineBind",
      "translation": [
        0,
        -0.000019008293747901917,
        -2.682209014892578e-7
      ]
    },
    {
      "name": "Spine",
      "translation": [
        0,
        11.687137603759766,
        5.960464477539062e-7
      ],
      "children": [
        121,
        122
      ]
    },
    {
      "name": "RightToeBaseBind"
    },
    {
      "name": "RightToeBase",
      "translation": [
        0.0000011409651961002965,
        15.557544708251953,
        0.3740376830101013
      ],
      "rotation": [
        0.1923140585422516,
        -6.177123293123546e-14,
        -1.6812339964644707e-8,
        0.9813334345817566
      ],
      "children": [
        124
      ]
    },
    {
      "name": "RightFootBind",
      "rotation": [
        0.00006209313869476318,
        -6.750155989720952e-14,
        -7.543959380795773e-12,
        1
      ],
      "children": [
        125
      ]
    },
    {
      "name": "RightFoot",
      "translation": [
        -3.1278068490792066e-7,
        30.95384407043457,
        -0.0008157509146258235
      ],
      "rotation": [
        0.5535043478012085,
        -7.281086311650142e-8,
        1.8044119800761371e-12,
        0.8328463435173035
      ],
      "children": [
        126
      ]
    },
    {
      "name": "RightLegTwist2Bind",
      "translation": [
        -3.1282760915019026e-7,
        10.276597023010254,
        -0.00027910046628676355
      ],
      "rotation": [
        -0.000014506280422210693,
        6.938893903907228e-18,
        -1.268343286300877e-12,
        1
      ]
    },
    {
      "name": "RightLegTwist3Bind",
      "translation": [
        -3.1280160328606144e-7,
        20.615230560302734,
        -0.0005767958937212825
      ],
      "rotation": [
        -0.00001411139965057373,
        -7.119305145408816e-15,
        -1.2332626239675015e-12,
        1
      ]
    },
    {
      "name": "RightLegTwist1Bind"
    },
    {
      "name": "RightLeg",
      "translation": [
        6.430829202486166e-10,
        35.82879638671875,
        -0.0025993299204856157
      ],
      "rotation": [
        -0.02055700682103634,
        -3.17797912430251e-8,
        -2.450585956381701e-9,
        0.9997887015342712
      ],
      "children": [
        127,
        128,
        129,
        130
      ]
    },
    {
      "name": "RightUpLegTwist3Bind",
      "translation": [
        2.523554698541375e-10,
        23.82065200805664,
        -0.000011620599252637476
      ]
    },
    {
      "name": "RightUpLegTwist2Bind",
      "translation": [
        2.510942564981633e-10,
        11.874488830566406,
        -0.0000032360553632315714
      ]
    },
    {
      "name": "RightUpLegTwist1Bind",
      "translation": [
        2.5069990527981645e-10,
        0.000015256286133080721,
        -5.842306336489855e-7
      ]
    },
    {
      "name": "RightUpLeg",
      "translation": [
        -6.1165032386779785,
        -0.07163131982088089,
        -5.774199962615967e-8
      ],
      "rotation": [
        7.549197533762708e-8,
        -0.01253469381481409,
        -0.999921441078186,
        9.463428929379347e-10
      ],
      "children": [
        131,
        132,
        133,
        134
      ]
    },
    {
      "name": "Hips",
      "translation": [
        0,
        81.43019104003906,
        0.000012022810551570728
      ],
      "rotation": [
        0.012533959932625294,
        0,
        0,
        0.999921441078186
      ],
      "children": [
        1,
        13,
        123,
        135
      ]
    },
    {
      "name": "Submesh_0",
      "mesh": 0,
      "skin": 0
    },
    {
      "name": "Submesh_1",
      "mesh": 1,
      "skin": 0
    },
    {
      "name": "Submesh_2",
      "mesh": 2,
      "skin": 0
    },
    {
      "name": "Submesh_3",
      "mesh": 3,
      "skin": 0
    },
    {
      "name": "Submesh_4",
      "mesh": 4,
      "skin": 0
    },
    {
      "name": "Submesh_5",
      "mesh": 5,
      "skin": 0
    },
    {
      "name": "Submesh_6",
      "mesh": 6,
      "skin": 0
    },
    {
      "name": "Root",
      "rotation": [
        -0.7071068286895752,
        0,
        0,
        0.7071068286895752
      ],
      "children": [
        137,
        138,
        139,
        140,
        141,
        142,
        143,
        136
      ]
    },
    {
      "name": "SkeletonModifierRig"
    },
    {
      "name": "Genie",
      "rotation": [
        0.7071068286895752,
        0,
        0,
        0.7071068286895752
      ],
      "scale": [
        0.009999999776482582,
        0.009999999776482582,
        0.009999999776482582
      ],
      "children": [
        0,
        144,
        145
      ]
    }
  ],
  "skins": [
    {
      "name": "Root",
      "inverseBindMatrices": 12,
      "joints": [
        136,
        1,
        13,
        2,
        3,
        4,
        12,
        5,
        6,
        7,
        11,
        10,
        9,
        8,
        123,
        121,
        119,
        33,
        14,
        32,
        31,
        15,
        19,
        18,
        17,
        16,
        23,
        22,
        21,
        20,
        24,
        25,
        27,
        26,
        28,
        29,
        30,
        75,
        73,
        34,
        35,
        36,
        72,
        37,
        38,
        70,
        69,
        44,
        39,
        43,
        40,
        42,
        41,
        50,
        45,
        49,
        46,
        48,
        47,
        56,
        51,
        55,
        53,
        52,
        54,
        62,
        57,
        61,
        58,
        60,
        59,
        68,
        66,
        63,
        65,
        64,
        67,
        71,
        74,
        76,
        118,
        77,
        117,
        113,
        78,
        110,
        109,
        84,
        82,
        79,
        81,
        80,
        83,
        90,
        88,
        85,
        87,
        86,
        89,
        96,
        91,
        95,
        92,
        94,
        93,
        102,
        100,
        97,
        99,
        98,
        101,
        108,
        106,
        104,
        103,
        105,
        107,
        111,
        112,
        114,
        115,
        116,
        120,
        122,
        135,
        131,
        127,
        126,
        125,
        124,
        128,
        129,
        130,
        132,
        133,
        134
      ]
    }
  ],
  "scenes": [
    {
      "name": "Scene",
      "nodes": [
        146
      ]
    }
  ],
  "scene": 0
}