{
  "asset": {
    "generator": "glTF-Transform v4.1.4",
    "version": "2.0",
    "copyright": "Genies, Inc."
  },
  "accessors": [
    {
      "type": "VEC3",
      "componentType": 5126,
      "count": 5690,
      "max": [
        0.7209936380386353,
        1.5132418870925903,
        0.19438818097114563
      ],
      "min": [
        -0.7209935784339905,
        0.013404473662376404,
        -0.1309260129928589
      ],
      "bufferView": 0,
      "byteOffset": 0
    },
    {
      "type": "VEC3",
      "componentType": 5126,
      "count": 5690,
      "bufferView": 0,
      "byteOffset": 12
    },
    {
      "type": "VEC2",
      "componentType": 5126,
      "count": 5690,
      "bufferView": 0,
      "byteOffset": 24
    },
    {
      "type": "VEC4",
      "componentType": 5121,
      "count": 5690,
      "bufferView": 0,
      "byteOffset": 32
    },
    {
      "type": "VEC4",
      "componentType": 5126,
      "count": 5690,
      "bufferView": 0,
      "byteOffset": 36
    },
    {
      "type": "SCALAR",
      "componentType": 5123,
      "count": 29502,
      "bufferView": 1,
      "byteOffset": 0
    },
    {
      "type": "SCALAR",
      "componentType": 5123,
      "count": 2880,
      "bufferView": 1,
      "byteOffset": 59004
    },
    {
      "type": "SCALAR",
      "componentType": 5123,
      "count": 1830,
      "bufferView": 1,
      "byteOffset": 64764
    },
    {
      "type": "SCALAR",
      "componentType": 5123,
      "count": 816,
      "bufferView": 1,
      "byteOffset": 68424
    },
    {
      "type": "SCALAR",
      "componentType": 5123,
      "count": 756,
      "bufferView": 1,
      "byteOffset": 70056
    },
    {
      "type": "SCALAR",
      "componentType": 5123,
      "count": 5934,
      "bufferView": 1,
      "byteOffset": 71568
    },
    {
      "type": "SCALAR",
      "componentType": 5123,
      "count": 23529,
      "bufferView": 1,
      "byteOffset": 83436
    },
    {
      "type": "MAT4",
      "componentType": 5126,
      "count": 139,
      "bufferView": 2,
      "byteOffset": 0
    },
    {
      "type": "VEC3",
      "componentType": 5126,
      "count": 516,
      "max": [
        0.0787317305803299,
        1.4103994369506836,
        0.08528199046850204
      ],
      "min": [
        -0.07873160392045975,
        1.3236336708068848,
        -0.0014053004560992122
      ],
      "bufferView": 3,
      "byteOffset": 0
    },
    {
      "type": "VEC3",
      "componentType": 5126,
      "count": 516,
      "bufferView": 3,
      "byteOffset": 12
    },
    {
      "type": "VEC2",
      "componentType": 5126,
      "count": 516,
      "bufferView": 3,
      "byteOffset": 24
    },
    {
      "type": "VEC4",
      "componentType": 5121,
      "count": 516,
      "bufferView": 3,
      "byteOffset": 32
    },
    {
      "type": "VEC4",
      "componentType": 5126,
      "count": 516,
      "bufferView": 3,
      "byteOffset": 36
    },
    {
      "type": "VEC3",
      "componentType": 5126,
      "count": 708,
      "max": [
        0.0359288714826107,
        1.3113200664520264,
        0.10477760434150696
      ],
      "min": [
        -0.03592877835035324,
        1.2611209154129028,
        0.04087010771036148
      ],
      "bufferView": 4,
      "byteOffset": 0
    },
    {
      "type": "VEC3",
      "componentType": 5126,
      "count": 708,
      "bufferView": 4,
      "byteOffset": 12
    },
    {
      "type": "VEC2",
      "componentType": 5126,
      "count": 708,
      "bufferView": 4,
      "byteOffset": 24
    },
    {
      "type": "VEC4",
      "componentType": 5121,
      "count": 708,
      "bufferView": 4,
      "byteOffset": 32
    },
    {
      "type": "VEC4",
      "componentType": 5126,
      "count": 708,
      "bufferView": 4,
      "byteOffset": 36
    },
    {
      "type": "VEC3",
      "componentType": 5126,
      "count": 162,
      "max": [
        0.08885172009468079,
        1.4140174388885498,
        0.10923605412244797
      ],
      "min": [
        -0.08885172009468079,
        1.3941673040390015,
        0.05040951073169708
      ],
      "bufferView": 5,
      "byteOffset": 0
    },
    {
      "type": "VEC3",
      "componentType": 5126,
      "count": 162,
      "bufferView": 5,
      "byteOffset": 12
    },
    {
      "type": "VEC2",
      "componentType": 5126,
      "count": 162,
      "bufferView": 5,
      "byteOffset": 24
    },
    {
      "type": "VEC4",
      "componentType": 5121,
      "count": 162,
      "bufferView": 5,
      "byteOffset": 32
    },
    {
      "type": "VEC4",
      "componentType": 5126,
      "count": 162,
      "bufferView": 5,
      "byteOffset": 36
    },
    {
      "type": "VEC3",
      "componentType": 5126,
      "count": 548,
      "max": [
        0.08633226901292801,
        1.3880906105041504,
        0.10215052217245102
      ],
      "min": [
        -0.08633226156234741,
        1.3426803350448608,
        0.06627006828784943
      ],
      "bufferView": 6,
      "byteOffset": 0
    },
    {
      "type": "VEC3",
      "componentType": 5126,
      "count": 548,
      "bufferView": 6,
      "byteOffset": 12
    },
    {
      "type": "VEC2",
      "componentType": 5126,
      "count": 548,
      "bufferView": 6,
      "byteOffset": 24
    },
    {
      "type": "VEC4",
      "componentType": 5121,
      "count": 548,
      "bufferView": 6,
      "byteOffset": 32
    },
    {
      "type": "VEC4",
      "componentType": 5126,
      "count": 548,
      "bufferView": 6,
      "byteOffset": 36
    },
    {
      "type": "VEC3",
      "componentType": 5126,
      "count": 1104,
      "max": [
        0.10935536026954651,
        1.5732531547546387,
        0.09789567440748215
      ],
      "min": [
        -0.10933855921030045,
        1.12759268283844,
        -0.26252156496047974
      ],
      "bufferView": 7,
      "byteOffset": 0
    },
    {
      "type": "VEC3",
      "componentType": 5126,
      "count": 1104,
      "bufferView": 7,
      "byteOffset": 12
    },
    {
      "type": "VEC2",
      "componentType": 5126,
      "count": 1104,
      "bufferView": 7,
      "byteOffset": 24
    },
    {
      "type": "VEC4",
      "componentType": 5121,
      "count": 1104,
      "bufferView": 7,
      "byteOffset": 32
    },
    {
      "type": "VEC4",
      "componentType": 5126,
      "count": 1104,
      "bufferView": 7,
      "byteOffset": 36
    },
    {
      "type": "VEC3",
      "componentType": 5126,
      "count": 5073,
      "max": [
        0.14666664600372314,
        1.2238209247589111,
        0.20150086283683777
      ],
      "min": [
        -0.14707626402378082,
        6.091105433370103e-7,
        -0.10409574210643768
      ],
      "bufferView": 8,
      "byteOffset": 0
    },
    {
      "type": "VEC3",
      "componentType": 5126,
      "count": 5073,
      "bufferView": 8,
      "byteOffset": 12
    },
    {
      "type": "VEC2",
      "componentType": 5126,
      "count": 5073,
      "bufferView": 8,
      "byteOffset": 24
    },
    {
      "type": "VEC4",
      "componentType": 5121,
      "count": 5073,
      "bufferView": 8,
      "byteOffset": 32
    },
    {
      "type": "VEC4",
      "componentType": 5126,
      "count": 5073,
      "bufferView": 8,
      "byteOffset": 36
    }
  ],
  "bufferViews": [
    {
      "buffer": 0,
      "byteOffset": 0,
      "byteLength": 295880,
      "byteStride": 52,
      "target": 34962
    },
    {
      "buffer": 0,
      "byteOffset": 295880,
      "byteLength": 130496,
      "target": 34963
    },
    {
      "buffer": 0,
      "byteOffset": 426376,
      "byteLength": 8896
    },
    {
      "buffer": 0,
      "byteOffset": 435272,
      "byteLength": 26832,
      "byteStride": 52,
      "target": 34962
    },
    {
      "buffer": 0,
      "byteOffset": 462104,
      "byteLength": 36816,
      "byteStride": 52,
      "target": 34962
    },
    {
      "buffer": 0,
      "byteOffset": 498920,
      "byteLength": 8424,
      "byteStride": 52,
      "target": 34962
    },
    {
      "buffer": 0,
      "byteOffset": 507344,
      "byteLength": 28496,
      "byteStride": 52,
      "target": 34962
    },
    {
      "buffer": 0,
      "byteOffset": 535840,
      "byteLength": 57408,
      "byteStride": 52,
      "target": 34962
    },
    {
      "buffer": 0,
      "byteOffset": 593248,
      "byteLength": 263796,
      "byteStride": 52,
      "target": 34962
    }
  ],
  "samplers": [
    {
      "magFilter": 9729,
      "minFilter": 9987,
      "wrapS": 10497,
      "wrapT": 10497
    }
  ],
  "textures": [
    {
      "source": 2,
      "sampler": 0
    },
    {
      "source": 0,
      "sampler": 0
    },
    {
      "source": 1,
      "sampler": 0
    },
    {
      "source": 5,
      "sampler": 0
    },
    {
      "source": 3,
      "sampler": 0
    },
    {
      "source": 4,
      "sampler": 0
    },
    {
      "source": 7,
      "sampler": 0
    },
    {
      "source": 6,
      "sampler": 0
    },
    {
      "source": 10,
      "sampler": 0
    },
    {
      "source": 8,
      "sampler": 0
    },
    {
      "source": 9,
      "sampler": 0
    },
    {
      "source": 13,
      "sampler": 0
    },
    {
      "source": 11,
      "sampler": 0
    },
    {
      "source": 12,
      "sampler": 0
    },
    {
      "source": 15,
      "sampler": 0
    },
    {
      "source": 14,
      "sampler": 0
    },
    {
      "source": 17,
      "sampler": 0
    },
    {
      "source": 16,
      "sampler": 0
    }
  ],
  "images": [
    {
      "name": "Submesh_0_Emission",
      "mimeType": "image/png",
      "uri": "Textures/Submesh_0_Emission.png"
    },
    {
      "name": "Submesh_0_Normal",
      "mimeType": "image/png",
      "uri": "Textures/Submesh_0_Normal.tga"
    },
    {
      "name": "Submesh_0_Albedo",
      "mimeType": "image/png",
      "uri": "Textures/Submesh_0_Albedo.png"
    },
    {
      "name": "Submesh_1_Emission",
      "mimeType": "image/png",
      "uri": "Textures/Submesh_1_Emission.png"
    },
    {
      "name": "Submesh_1_Normal",
      "mimeType": "image/png",
      "uri": "Textures/Submesh_1_Normal.tga"
    },
    {
      "name": "Submesh_1_Albedo",
      "mimeType": "image/png",
      "uri": "Textures/Submesh_1_Albedo.png"
    },
    {
      "name": "Submesh_2_Normal",
      "mimeType": "image/png",
      "uri": "Textures/Submesh_2_Normal.tga"
    },
    {
      "name": "Submesh_2_Albedo",
      "mimeType": "image/png",
      "uri": "Textures/Submesh_2_Albedo.png"
    },
    {
      "name": "Submesh_3_Emission",
      "mimeType": "image/png",
      "uri": "Textures/Submesh_3_Emission.png"
    },
    {
      "name": "Submesh_3_Normal",
      "mimeType": "image/png",
      "uri": "Textures/Submesh_3_Normal.tga"
    },
    {
      "name": "Submesh_3_Albedo",
      "mimeType": "image/png",
      "uri": "Textures/Submesh_3_Albedo.png"
    },
    {
      "name": "Submesh_4_Emission",
      "mimeType": "image/png",
      "uri": "Textures/Submesh_4_Emission.png"
    },
    {
      "name": "Submesh_4_Normal",
      "mimeType": "image/png",
      "uri": "Textures/Submesh_4_Normal.tga"
    },
    {
      "name": "Submesh_4_Albedo",
      "mimeType": "image/png",
      "uri": "Textures/Submesh_4_Albedo.png"
    },
    {
      "name": "Submesh_5_Emission",
      "mimeType": "image/png",
      "uri": "Textures/Submesh_5_Emission.png"
    },
    {
      "name": "Submesh_5_Albedo",
      "mimeType": "image/png",
      "uri": "Textures/Submesh_5_Albedo.png"
    },
    {
      "name": "Submesh_6_Normal",
      "mimeType": "image/png",
      "uri": "Textures/Submesh_6_Normal.tga"
    },
    {
      "name": "Submesh_6_Albedo",
      "mimeType": "image/png",
      "uri": "Textures/Submesh_6_Albedo.png"
    }
  ],
  "buffers": [
    {
      "uri": "Clementine.bin",
      "byteLength": 857044
    }
  ],
  "materials": [
    {
      "name": "Submesh_0.002",
      "alphaMode": "BLEND",
      "doubleSided": true,
      "pbrMetallicRoughness": {
        "roughnessFactor": 0.5527864098548889,
        "metallicFactor": 0,
        "baseColorTexture": {
          "index": 0
        }
      },
      "emissiveFactor": [
        1,
        1,
        1
      ],
      "emissiveTexture": {
        "index": 1
      },
      "normalTexture": {
        "index": 2
      }
    },
    {
      "name": "Submesh_1.002",
      "alphaMode": "BLEND",
      "doubleSided": true,
      "pbrMetallicRoughness": {
        "roughnessFactor": 0.5527864098548889,
        "metallicFactor": 0,
        "baseColorTexture": {
          "index": 3
        }
      },
      "emissiveFactor": [
        1,
        1,
        1
      ],
      "emissiveTexture": {
        "index": 4
      },
      "normalTexture": {
        "index": 5
      }
    },
    {
      "name": "Submesh_2.002",
      "alphaMode": "BLEND",
      "doubleSided": true,
      "pbrMetallicRoughness": {
        "roughnessFactor": 0.5527864098548889,
        "metallicFactor": 0,
        "baseColorTexture": {
          "index": 6
        }
      },
      "normalTexture": {
        "index": 7
      }
    },
    {
      "name": "Submesh_3.002",
      "alphaMode": "BLEND",
      "doubleSided": true,
      "pbrMetallicRoughness": {
        "roughnessFactor": 0.5527864098548889,
        "metallicFactor": 0,
        "baseColorTexture": {
          "index": 8
        }
      },
      "emissiveFactor": [
        1,
        1,
        1
      ],
      "emissiveTexture": {
        "index": 9
      },
      "normalTexture": {
        "index": 10
      }
    },
    {
      "name": "Submesh_4.002",
      "alphaMode": "BLEND",
      "doubleSided": true,
      "pbrMetallicRoughness": {
        "roughnessFactor": 0.5527864098548889,
        "metallicFactor": 0,
        "baseColorTexture": {
          "index": 11
        }
      },
      "emissiveFactor": [
        1,
        1,
        1
      ],
      "emissiveTexture": {
        "index": 12
      },
      "normalTexture": {
        "index": 13
      }
    },
    {
      "name": "Submesh_5.002",
      "doubleSided": true,
      "pbrMetallicRoughness": {
        "roughnessFactor": 0.5527864098548889,
        "metallicFactor": 0,
        "baseColorTexture": {
          "index": 14
        }
      },
      "emissiveFactor": [
        1,
        1,
        1
      ],
      "emissiveTexture": {
        "index": 15
      }
    },
    {
      "name": "Submesh_6.002",
      "alphaMode": "BLEND",
      "doubleSided": true,
      "pbrMetallicRoughness": {
        "roughnessFactor": 0.5527864098548889,
        "metallicFactor": 0,
        "baseColorTexture": {
          "index": 16
        }
      },
      "normalTexture": {
        "index": 17
      }
    }
  ],
  "meshes": [
    {
      "name": "Mesh.014",
      "primitives": [
        {
          "attributes": {
            "POSITION": 0,
            "NORMAL": 1,
            "TEXCOORD_0": 2,
            "JOINTS_0": 3,
            "WEIGHTS_0": 4
          },
          "mode": 4,
          "material": 0,
          "indices": 5
        }
      ]
    },
    {
      "name": "Mesh.015",
      "primitives": [
        {
          "attributes": {
            "POSITION": 13,
            "NORMAL": 14,
            "TEXCOORD_0": 15,
            "JOINTS_0": 16,
            "WEIGHTS_0": 17
          },
          "mode": 4,
          "material": 1,
          "indices": 6
        }
      ]
    },
    {
      "name": "Mesh.016",
      "primitives": [
        {
          "attributes": {
            "POSITION": 18,
            "NORMAL": 19,
            "TEXCOORD_0": 20,
            "JOINTS_0": 21,
            "WEIGHTS_0": 22
          },
          "mode": 4,
          "material": 2,
          "indices": 7
        }
      ]
    },
    {
      "name": "Mesh.017",
      "primitives": [
        {
          "attributes": {
            "POSITION": 23,
            "NORMAL": 24,
            "TEXCOORD_0": 25,
            "JOINTS_0": 26,
            "WEIGHTS_0": 27
          },
          "mode": 4,
          "material": 3,
          "indices": 8
        }
      ]
    },
    {
      "name": "Mesh.018",
      "primitives": [
        {
          "attributes": {
            "POSITION": 28,
            "NORMAL": 29,
            "TEXCOORD_0": 30,
            "JOINTS_0": 31,
            "WEIGHTS_0": 32
          },
          "mode": 4,
          "material": 4,
          "indices": 9
        }
      ]
    },
    {
      "name": "Mesh.019",
      "primitives": [
        {
          "attributes": {
            "POSITION": 33,
            "NORMAL": 34,
            "TEXCOORD_0": 35,
            "JOINTS_0": 36,
            "WEIGHTS_0": 37
          },
          "mode": 4,
          "material": 5,
          "indices": 10
        }
      ]
    },
    {
      "name": "Mesh.020",
      "primitives": [
        {
          "attributes": {
            "POSITION": 38,
            "NORMAL": 39,
            "TEXCOORD_0": 40,
            "JOINTS_0": 41,
            "WEIGHTS_0": 42
          },
          "mode": 4,
          "material": 6,
          "indices": 11
        }
      ]
    }
  ],
  "nodes": [
    {
      "name": "animatedCamera"
    },
    {
      "name": "HipsBind"
    },
    {
      "name": "LeftUpLegTwist3Bind",
      "translation": [
        2.5364776945480116e-10,
        23.82064437866211,
        -0.000011456017091404647
      ]
    },
    {
      "name": "LeftUpLegTwist2Bind",
      "translation": [
        2.523563580325572e-10,
        11.874469757080078,
        -0.0000028985664357605856
      ]
    },
    {
      "name": "LeftUpLegTwist1Bind"
    },
    {
      "name": "LeftLegTwist2Bind",
      "translation": [
        6.205556246641208e-7,
        10.276595115661621,
        -0.000279454659903422
      ],
      "rotation": [
        -0.000014504417777061462,
        -7.0915495697931874e-15,
        -1.2683907743560319e-12,
        1
      ]
    },
    {
      "name": "LeftLegTwist3Bind",
      "translation": [
        6.205816021065402e-7,
        20.615224838256836,
        -0.0005766731919720769
      ],
      "rotation": [
        -0.000014107674360275269,
        1.790234627208065e-15,
        -1.2334498656826898e-12,
        1
      ]
    },
    {
      "name": "LeftLegTwist1Bind"
    },
    {
      "name": "LeftToeBaseBind"
    },
    {
      "name": "LeftToeBase",
      "translation": [
        -7.364658358710585e-7,
        15.557549476623535,
        0.37403494119644165
      ],
      "rotation": [
        0.1923138052225113,
        -7.036943049749597e-14,
        -1.6812318648362634e-8,
        0.9813334941864014
      ],
      "children": [
        8
      ]
    },
    {
      "name": "LeftFootBind",
      "rotation": [
        0.000018164517314289697,
        -6.705747068735946e-14,
        -3.704532340609301e-12,
        1
      ],
      "children": [
        9
      ]
    },
    {
      "name": "LeftFoot",
      "translation": [
        6.206026341715187e-7,
        30.953845977783203,
        -0.0008175653638318181
      ],
      "rotation": [
        0.5535410046577454,
        -7.280874569914886e-8,
        1.8151295353915908e-12,
        0.8328219652175903
      ],
      "children": [
        10
      ]
    },
    {
      "name": "LeftLeg",
      "translation": [
        6.443539035672075e-10,
        35.82878112792969,
        -0.002598982071503997
      ],
      "rotation": [
        -0.02055700682103634,
        -3.17797912430251e-8,
        -2.450586622515516e-9,
        0.9997887015342712
      ],
      "children": [
        5,
        6,
        7,
        11
      ]
    },
    {
      "name": "LeftUpLeg",
      "translation": [
        6.1165032386779785,
        -0.07163895666599274,
        1.2724194675683975e-7
      ],
      "rotation": [
        7.549197533762708e-8,
        -0.01253469754010439,
        -0.999921441078186,
        9.463432260048421e-10
      ],
      "children": [
        2,
        3,
        4,
        12
      ]
    },
    {
      "name": "NeckBind",
      "translation": [
        0,
        0.000014908200682839379,
        -0.0000010042240319307894
      ]
    },
    {
      "name": "MouthBind",
      "translation": [
        -0.000027070485884905793,
        -5.346723556518555,
        7.881803512573242
      ],
      "rotation": [
        -0.000004972386250301497,
        0.02706434391438961,
        -0.9996337294578552,
        0.000007841977094358299
      ]
    },
    {
      "name": "LeftEyeBind",
      "translation": [
        -5.364418029785156e-7,
        -0.00011168047785758972,
        9.5367431640625e-7
      ]
    },
    {
      "name": "LeftEye",
      "translation": [
        2.086162567138672e-7,
        0.00001043267548084259,
        -0.000014543533325195312
      ],
      "children": [
        16
      ]
    },
    {
      "name": "LeftEyeSocketBind",
      "children": [
        17
      ]
    },
    {
      "name": "LeftEyeSocket",
      "translation": [
        3.5388152599334717,
        3.1541450023651123,
        2.37874698638916
      ],
      "rotation": [
        -0.006879271473735571,
        0.11532759666442871,
        0.0021669266279786825,
        0.9933013319969177
      ],
      "children": [
        18
      ]
    },
    {
      "name": "RightEyeBind"
    },
    {
      "name": "RightEye",
      "translation": [
        -3.2782554626464844e-7,
        -0.000022288295440375805,
        -1.1920928955078125e-7
      ],
      "children": [
        20
      ]
    },
    {
      "name": "RightEyeSocketBind",
      "translation": [
        -7.450580596923828e-7,
        -0.000022004125639796257,
        -5.960464477539063e-8
      ],
      "children": [
        21
      ]
    },
    {
      "name": "RightEyeSocket",
      "translation": [
        -3.5388119220733643,
        3.154160261154175,
        2.378737449645996
      ],
      "rotation": [
        -0.0065588559955358505,
        -0.11534704267978668,
        0.0005935492226853967,
        0.9933034777641296
      ],
      "children": [
        22
      ]
    },
    {
      "name": "RightBrowBind",
      "translation": [
        -1.808000922203064,
        7.186966419219971,
        0.8359988331794739
      ],
      "rotation": [
        -1.4705661133262993e-9,
        0.9816271662712097,
        -7.565408743914759e-9,
        0.19080917537212372
      ]
    },
    {
      "name": "FaceBind",
      "translation": [
        -5.820766091346741e-11,
        -0.000030159390007611364,
        2.0237621356500313e-7
      ]
    },
    {
      "name": "JawBind",
      "translation": [
        0,
        -0.00004600441752700135,
        0.000003323224518680945
      ],
      "rotation": [
        -0.02422725036740303,
        0,
        0,
        0.9997064471244812
      ]
    },
    {
      "name": "Jaw",
      "translation": [
        -5.820766091346741e-11,
        -3.6708528995513916,
        -2.9691896438598633
      ],
      "children": [
        26
      ]
    },
    {
      "name": "NoseBind",
      "translation": [
        -5.820766091346741e-11,
        -2.2106149196624756,
        8.465522766113281
      ],
      "rotation": [
        -0.007615240756422281,
        0,
        0,
        0.9999710321426392
      ]
    },
    {
      "name": "LeftBrowBind",
      "translation": [
        1.807741641998291,
        7.186966419219971,
        0.8358264565467834
      ],
      "rotation": [
        -1.4705661133262993e-9,
        -0.9816271662712097,
        7.565408743914759e-9,
        0.19080917537212372
      ]
    },
    {
      "name": "MouthInnerBind",
      "translation": [
        -0.000056171433243434876,
        -5.193663120269775,
        5.0572638511657715
      ],
      "rotation": [
        -0.000004972735951014329,
        0.0270643699914217,
        -0.9996337294578552,
        0.000007841987098800018
      ]
    },
    {
      "name": "CenterPonytail0Dyn2",
      "translation": [
        6.265170574188232,
        -4.76837158203125e-7,
        -5.770825737272389e-7
      ]
    },
    {
      "name": "CenterPonytail0Dyn1",
      "translation": [
        1.1641532182693481e-10,
        -6.265148162841797,
        5.206120476941578e-7
      ],
      "rotation": [
        -1.2204546706584551e-8,
        -1.220455114747665e-8,
        -0.7071067690849304,
        0.7071067690849304
      ],
      "children": [
        31
      ]
    },
    {
      "name": "CenterPonytail0Dyn0",
      "translation": [
        -0.0007646920857951045,
        0.08480444550514221,
        -21.57064437866211
      ],
      "children": [
        32
      ]
    },
    {
      "name": "Face",
      "translation": [
        0.0007646922022104263,
        6.990466117858887,
        3.565626382827759
      ],
      "rotation": [
        -0.02040144056081772,
        0,
        0,
        0.9997919201850891
      ],
      "children": [
        15,
        19,
        23,
        24,
        25,
        27,
        28,
        29,
        30,
        33
      ]
    },
    {
      "name": "Head",
      "translation": [
        0,
        11.650924682617188,
        1.2684471607208252
      ],
      "rotation": [
        0.02040148712694645,
        0,
        0,
        0.9997918605804443
      ],
      "children": [
        34
      ]
    },
    {
      "name": "Neck",
      "translation": [
        -0.0007646920275874436,
        15.8189697265625,
        -4.285888671875
      ],
      "rotation": [
        -0.012533939443528652,
        0,
        0,
        0.999921441078186
      ],
      "children": [
        14,
        35
      ]
    },
    {
      "name": "RightArmTwist1Bind",
      "translation": [
        -7.82310962677002e-8,
        -0.000004190951585769653,
        -0.000017080456018447876
      ]
    },
    {
      "name": "RightArmTwist2Bind",
      "translation": [
        0.000008024275302886963,
        6.841620922088623,
        -0.000013679265975952148
      ]
    },
    {
      "name": "RightArmTwist3Bind",
      "translation": [
        0.000026755034923553467,
        13.72452449798584,
        0.0000022724270820617676
      ]
    },
    {
      "name": "RightForeArmTwist3Bind",
      "translation": [
        0.0014290809631347656,
        13.45465087890625,
        -0.000022782012820243835
      ],
      "rotation": [
        -8.391799042328785e-7,
        -0.0000014305696822702885,
        -0.00005752141078119166,
        1
      ]
    },
    {
      "name": "RightForeArmTwist2Bind",
      "translation": [
        0.0006636381149291992,
        6.707083702087402,
        -0.000016469508409500122
      ],
      "rotation": [
        -8.695205906406045e-7,
        -0.0000012025120668113232,
        -0.00005487704765982926,
        1
      ]
    },
    {
      "name": "RightHandThumb1Bind",
      "translation": [
        0.00005879998207092285,
        -0.000006794929504394531,
        -0.000003069639205932617
      ]
    },
    {
      "name": "RightHandThumb2Bind",
      "translation": [
        -0.000024974346160888672,
        0.0000095367431640625,
        0.000008344650268554688
      ]
    },
    {
      "name": "RightHandThumb3Bind"
    },
    {
      "name": "RightHandThumb3",
      "translation": [
        -0.000013589859008789062,
        3.868124008178711,
        -0.000047206878662109375
      ],
      "rotation": [
        0.008518765680491924,
        -0.00423155864700675,
        0.0026500325184315443,
        0.9999512434005737
      ],
      "children": [
        44
      ]
    },
    {
      "name": "RightHandThumb2",
      "translation": [
        0.0000635981559753418,
        3.6769745349884033,
        0.00005793571472167969
      ],
      "rotation": [
        0.0024082043673843145,
        -0.0026972959749400616,
        0.03587731346487999,
        0.9993496537208557
      ],
      "children": [
        43,
        45
      ]
    },
    {
      "name": "RightHandThumb1",
      "translation": [
        1.8217313289642334,
        2.9752554893493652,
        0.7242211699485779
      ],
      "rotation": [
        -0.06699950248003006,
        -0.3002813458442688,
        -0.449126273393631,
        0.8388252258300781
      ],
      "children": [
        42,
        46
      ]
    },
    {
      "name": "RightHandRing1Bind",
      "translation": [
        0.0000011622905731201172,
        0.0000032633543014526367,
        0.000029966235160827637
      ]
    },
    {
      "name": "RightHandRing2Bind",
      "translation": [
        0.000002175569534301758,
        -0.000005677342414855957,
        -0.000017940998077392578
      ]
    },
    {
      "name": "RightHandRing3Bind",
      "translation": [
        1.1920928955078125e-7,
        -0.000005200505256652832,
        -0.00010713934898376465
      ]
    },
    {
      "name": "RightHandRing3",
      "translation": [
        -6.854534149169922e-7,
        2.4403743743896484,
        -0.00001558661460876465
      ],
      "rotation": [
        0.000033519234420964494,
        0.0000369311346730683,
        0.000010432443559693638,
        1
      ],
      "children": [
        50
      ]
    },
    {
      "name": "RightHandRing2",
      "translation": [
        0.000002115964889526367,
        3.6018805503845215,
        0.000016942620277404785
      ],
      "children": [
        49,
        51
      ]
    },
    {
      "name": "RightHandRing1",
      "translation": [
        -1.3429968357086182,
        9.161284446716309,
        0.24773390591144562
      ],
      "rotation": [
        0.04704117774963379,
        0.03001776896417141,
        0.022300364449620247,
        0.9981927275657654
      ],
      "children": [
        48,
        52
      ]
    },
    {
      "name": "RightHandIndex1Bind",
      "translation": [
        0.0000013709068298339844,
        0.0000010207295417785645,
        0.00003433600068092346
      ]
    },
    {
      "name": "RightHandIndex3Bind",
      "translation": [
        -0.0000021457672119140625,
        -0.000009723007678985596,
        -0.0001010894775390625
      ]
    },
    {
      "name": "RightHandIndex3",
      "translation": [
        1.1920928955078125e-7,
        2.455050230026245,
        0.000024370849132537842
      ],
      "rotation": [
        0.00003501411993056536,
        0.00003932253457605839,
        0.000004842644557356834,
        1
      ],
      "children": [
        55
      ]
    },
    {
      "name": "RightHandIndex2Bind",
      "translation": [
        8.344650268554688e-7,
        0.000008516013622283936,
        0.000029616057872772217
      ]
    },
    {
      "name": "RightHandIndex2",
      "translation": [
        0.0000010728836059570312,
        3.3933000564575195,
        0.000036366283893585205
      ],
      "children": [
        56,
        57
      ]
    },
    {
      "name": "RightHandIndex1",
      "translation": [
        2.906181812286377,
        9.439270973205566,
        0.25517866015434265
      ],
      "rotation": [
        0.047041069716215134,
        0.030017640441656113,
        0.02230031043291092,
        0.9981927871704102
      ],
      "children": [
        54,
        58
      ]
    },
    {
      "name": "RightHandPinky1Bind",
      "translation": [
        0.0000035762786865234375,
        -0.0000037550926208496094,
        -0.00001558661460876465
      ]
    },
    {
      "name": "RightHandPinky2Bind",
      "translation": [
        -1.1920928955078125e-7,
        0.000012099742889404297,
        0.000016748905181884766
      ]
    },
    {
      "name": "RightHandPinky3Bind",
      "translation": [
        -0.0000019073486328125,
        0.0000019371509552001953,
        -0.00007089972496032715
      ]
    },
    {
      "name": "RightHandPinky3",
      "translation": [
        1.1920928955078125e-7,
        1.9433327913284302,
        0.00001239776611328125
      ],
      "rotation": [
        0.000032775686122477055,
        0.00003554927752702497,
        0.000010619405657052994,
        1
      ],
      "children": [
        62
      ]
    },
    {
      "name": "RightHandPinky2",
      "translation": [
        0.0000021457672119140625,
        2.800623893737793,
        0.000006586313247680664
      ],
      "children": [
        61,
        63
      ]
    },
    {
      "name": "RightHandPinky1",
      "translation": [
        -3.1187047958374023,
        8.90357780456543,
        0.7266938090324402
      ],
      "rotation": [
        0.04704130440950394,
        0.030017882585525513,
        0.022300494834780693,
        0.9981927275657654
      ],
      "children": [
        60,
        64
      ]
    },
    {
      "name": "RightHandMiddle2Bind"
    },
    {
      "name": "RightHandMiddle3Bind",
      "translation": [
        0.0000020265579223632812,
        -0.0000014416873455047607,
        -0.00010363012552261353
      ]
    },
    {
      "name": "RightHandMiddle3",
      "translation": [
        0.0000018477439880371094,
        2.8032784461975098,
        0.000009797513484954834
      ],
      "rotation": [
        0.000035768141970038414,
        0.00003790692426264286,
        0.000005030771717429161,
        1
      ],
      "children": [
        67
      ]
    },
    {
      "name": "RightHandMiddle2",
      "translation": [
        2.980232238769531e-7,
        3.905289888381958,
        0.000031441450119018555
      ],
      "children": [
        66,
        68
      ]
    },
    {
      "name": "RightHandMiddle1Bind",
      "translation": [
        0.000001430511474609375,
        0.0000025704503059387207,
        0.000012964010238647461
      ]
    },
    {
      "name": "RightHandMiddle1",
      "translation": [
        0.8293906450271606,
        9.412989616394043,
        0.06359126418828964
      ],
      "rotation": [
        0.04704105854034424,
        0.03001761995255947,
        0.022300392389297485,
        0.9981927871704102
      ],
      "children": [
        69,
        70
      ]
    },
    {
      "name": "RightHandBind",
      "rotation": [
        -0.00009605798550182953,
        -0.0001080433139577508,
        8.686475325703213e-7,
        1
      ],
      "children": [
        47,
        53,
        59,
        65,
        71
      ]
    },
    {
      "name": "RightHand",
      "translation": [
        0.0022590160369873047,
        20.2022705078125,
        -0.00006892532110214233
      ],
      "rotation": [
        0.00019591186719480902,
        0.0001035930763464421,
        -0.020867543295025826,
        0.9997822642326355
      ],
      "children": [
        72
      ]
    },
    {
      "name": "RightForeArmTwist1Bind",
      "translation": [
        -5.960464477539062e-7,
        -0.000036090612411499023,
        -0.00003168359398841858
      ]
    },
    {
      "name": "RightForeArm",
      "translation": [
        0.004033103585243225,
        20.647775650024414,
        0.000008385628461837769
      ],
      "rotation": [
        -0.008078355342149734,
        0.0003925171331502497,
        -0.035890258848667145,
        0.9993230104446411
      ],
      "children": [
        40,
        41,
        73,
        74
      ]
    },
    {
      "name": "RightArm",
      "translation": [
        0.003405928611755371,
        12.333555221557617,
        0.015261062420904636
      ],
      "rotation": [
        -0.04209037125110626,
        0.006018004380166531,
        -0.0545310378074646,
        0.9976063966751099
      ],
      "children": [
        37,
        38,
        39,
        75
      ]
    },
    {
      "name": "RightShoulderBind"
    },
    {
      "name": "RightShoulder",
      "translation": [
        -0.6935755014419556,
        14.553263664245605,
        -3.974853992462158
      ],
      "rotation": [
        0.5028618574142456,
        -0.4844881296157837,
        0.5660393238067627,
        0.4381789565086365
      ],
      "children": [
        76,
        77
      ]
    },
    {
      "name": "Spine2Bind"
    },
    {
      "name": "LeftShoulderBind",
      "translation": [
        4.842877388000488e-7,
        0.0000026226043701171875,
        -0.000012067639545421116
      ]
    },
    {
      "name": "LeftForeArmTwist1Bind"
    },
    {
      "name": "LeftHandMiddle2Bind",
      "translation": [
        0.0000016689300537109375,
        0.00001662224531173706,
        0.000017620623111724854
      ]
    },
    {
      "name": "LeftHandMiddle3Bind"
    },
    {
      "name": "LeftHandMiddle3",
      "translation": [
        6.556510925292969e-7,
        2.8033034801483154,
        0.000014211982488632202
      ],
      "rotation": [
        0.000032778363674879074,
        -0.00003583240322768688,
        -0.0000040940940380096436,
        1
      ],
      "children": [
        83
      ]
    },
    {
      "name": "LeftHandMiddle2",
      "translation": [
        -0.0000024437904357910156,
        3.905280590057373,
        0.0000028759241104125977
      ],
      "children": [
        82,
        84
      ]
    },
    {
      "name": "LeftHandMiddle1Bind"
    },
    {
      "name": "LeftHandMiddle1",
      "translation": [
        -0.829379677772522,
        9.413044929504395,
        0.06358179450035095
      ],
      "rotation": [
        0.04704229533672333,
        -0.03001866117119789,
        -0.022300412878394127,
        0.9981926679611206
      ],
      "children": [
        85,
        86
      ]
    },
    {
      "name": "LeftHandRing2Bind",
      "translation": [
        0.000001430511474609375,
        -0.00001455843448638916,
        0.000013083219528198242
      ]
    },
    {
      "name": "LeftHandRing3Bind",
      "translation": [
        -0.000001519918441772461,
        -0.00001043081283569336,
        -0.000010535120964050293
      ]
    },
    {
      "name": "LeftHandRing3",
      "translation": [
        0.0000019073486328125,
        2.440359115600586,
        0.000017195940017700195
      ],
      "rotation": [
        0.00003426487819524482,
        -0.00003690458834171295,
        -0.000010665507943485864,
        1
      ],
      "children": [
        89
      ]
    },
    {
      "name": "LeftHandRing2",
      "translation": [
        -0.000002175569534301758,
        3.6018881797790527,
        -0.000002175569534301758
      ],
      "children": [
        88,
        90
      ]
    },
    {
      "name": "LeftHandRing1Bind"
    },
    {
      "name": "LeftHandRing1",
      "translation": [
        1.3430070877075195,
        9.161343574523926,
        0.24772274494171143
      ],
      "rotation": [
        0.04704097658395767,
        -0.030017180368304253,
        -0.022300299257040024,
        0.9981927871704102
      ],
      "children": [
        91,
        92
      ]
    },
    {
      "name": "LeftHandPinky1Bind",
      "translation": [
        -0.0000016689300537109375,
        -2.384185791015625e-7,
        -0.00001475214958190918
      ]
    },
    {
      "name": "LeftHandPinky2Bind"
    },
    {
      "name": "LeftHandPinky3Bind"
    },
    {
      "name": "LeftHandPinky3",
      "translation": [
        0.0000021457672119140625,
        1.9433130025863647,
        0.000004887580871582031
      ],
      "rotation": [
        0.00003128917524009012,
        -0.00003436160841374658,
        -0.000010665505215001758,
        1
      ],
      "children": [
        96
      ]
    },
    {
      "name": "LeftHandPinky2",
      "translation": [
        -4.76837158203125e-7,
        2.800614833831787,
        -0.000008106231689453125
      ],
      "children": [
        95,
        97
      ]
    },
    {
      "name": "LeftHandPinky1",
      "translation": [
        3.1187174320220947,
        8.903629302978516,
        0.7266818881034851
      ],
      "rotation": [
        0.047040682286024094,
        -0.030016876757144928,
        -0.022300397977232933,
        0.9981927871704102
      ],
      "children": [
        94,
        98
      ]
    },
    {
      "name": "LeftHandIndex2Bind"
    },
    {
      "name": "LeftHandIndex3Bind",
      "translation": [
        -0.0000021457672119140625,
        -0.000013224780559539795,
        -0.00000712275505065918
      ]
    },
    {
      "name": "LeftHandIndex3",
      "translation": [
        -8.344650268554688e-7,
        2.4550485610961914,
        -0.000005505979061126709
      ],
      "rotation": [
        0.00003277510404586792,
        -0.00003555835792212747,
        -0.000004146713763475418,
        1
      ],
      "children": [
        101
      ]
    },
    {
      "name": "LeftHandIndex2",
      "translation": [
        -0.0000029802322387695312,
        3.3932981491088867,
        -2.4586915969848633e-7
      ],
      "children": [
        100,
        102
      ]
    },
    {
      "name": "LeftHandIndex1Bind"
    },
    {
      "name": "LeftHandIndex1",
      "translation": [
        -2.906172513961792,
        9.439318656921387,
        0.2551713287830353
      ],
      "rotation": [
        0.04704073816537857,
        -0.03001692332327366,
        -0.022300396114587784,
        0.9981927871704102
      ],
      "children": [
        103,
        104
      ]
    },
    {
      "name": "LeftHandThumb3Bind",
      "translation": [
        -0.000007152557373046875,
        -0.000010013580322265625,
        -9.5367431640625e-7
      ]
    },
    {
      "name": "LeftHandThumb3",
      "translation": [
        -0.000010013580322265625,
        3.8681020736694336,
        0.0001399517059326172
      ],
      "rotation": [
        0.00851944088935852,
        0.004235563334077597,
        -0.002651466755196452,
        0.9999512434005737
      ],
      "children": [
        106
      ]
    },
    {
      "name": "LeftHandThumb2Bind"
    },
    {
      "name": "LeftHandThumb2",
      "translation": [
        -0.0000584721565246582,
        3.677001476287842,
        -0.00009274482727050781
      ],
      "rotation": [
        0.0024099876172840595,
        0.002694037975743413,
        -0.035874951630830765,
        0.9993497729301453
      ],
      "children": [
        107,
        108
      ]
    },
    {
      "name": "LeftHandThumb1Bind"
    },
    {
      "name": "LeftHandThumb1",
      "translation": [
        -1.8216614723205566,
        2.9752519130706787,
        0.7242628335952759
      ],
      "rotation": [
        -0.06700257211923599,
        0.3002827763557434,
        0.44912606477737427,
        0.8388245701789856
      ],
      "children": [
        109,
        110
      ]
    },
    {
      "name": "LeftHandBind",
      "rotation": [
        -0.00009789543400984257,
        0.00010714959353208542,
        -8.683709893375635e-7,
        1
      ],
      "children": [
        87,
        93,
        99,
        105,
        111
      ]
    },
    {
      "name": "LeftHand",
      "translation": [
        -0.002277970314025879,
        20.2022762298584,
        -0.000043025240302085876
      ],
      "rotation": [
        0.00019888716633431613,
        -0.00010333208047086373,
        0.020867548882961273,
        0.9997822046279907
      ],
      "children": [
        112
      ]
    },
    {
      "name": "LeftForeArmTwist2Bind",
      "translation": [
        -0.0006773471832275391,
        6.707086086273193,
        0.0000230446457862854
      ],
      "rotation": [
        2.4745534688008775e-7,
        7.17467742106237e-7,
        0.00005485174915520474,
        1
      ]
    },
    {
      "name": "LeftForeArmTwist3Bind",
      "translation": [
        -0.0014389753341674805,
        13.454659461975098,
        -0.0000093802809715271
      ],
      "rotation": [
        2.833840255789255e-7,
        9.448850164517353e-7,
        0.000057503555581206456,
        1
      ]
    },
    {
      "name": "LeftForeArm",
      "translation": [
        -0.004027076065540314,
        20.647794723510742,
        0.00001496821641921997
      ],
      "rotation": [
        -0.00807869341224432,
        -0.0003920487069990486,
        0.03589063510298729,
        0.9993230104446411
      ],
      "children": [
        81,
        113,
        114,
        115
      ]
    },
    {
      "name": "LeftArmTwist1Bind",
      "translation": [
        2.086162567138672e-7,
        0.00001637078821659088,
        -0.0000037513673305511475
      ]
    },
    {
      "name": "LeftArmTwist2Bind",
      "translation": [
        -0.000005885958671569824,
        6.8416266441345215,
        7.82310962677002e-7
      ]
    },
    {
      "name": "LeftArmTwist3Bind",
      "translation": [
        -0.00002650916576385498,
        13.72454833984375,
        0.00001598149538040161
      ]
    },
    {
      "name": "LeftArm",
      "translation": [
        -0.0034056901931762695,
        12.333549499511719,
        0.015279999002814293
      ],
      "rotation": [
        -0.04208984971046448,
        -0.006018764805048704,
        0.054530639201402664,
        0.9976064562797546
      ],
      "children": [
        116,
        117,
        118,
        119
      ]
    },
    {
      "name": "LeftShoulder",
      "translation": [
        0.6935755014419556,
        14.553263664245605,
        -3.974853992462158
      ],
      "rotation": [
        0.5028617978096008,
        0.4844886362552643,
        -0.5660388469696045,
        0.43817898631095886
      ],
      "children": [
        80,
        120
      ]
    },
    {
      "name": "Spine2",
      "translation": [
        0,
        5.8437347412109375,
        -1.7881393432617188e-7
      ],
      "children": [
        36,
        78,
        79,
        121
      ]
    },
    {
      "name": "Spine1Bind",
      "translation": [
        0,
        -0.000017338432371616364,
        1.1920928955078125e-7
      ]
    },
    {
      "name": "Spine1",
      "translation": [
        0,
        5.843404769897461,
        -2.384185791015625e-7
      ],
      "children": [
        122,
        123
      ]
    },
    {
      "name": "SpineBind",
      "translation": [
        0,
        -0.000011406373232603073,
        -5.960464477539063e-8
      ]
    },
    {
      "name": "Spine",
      "translation": [
        0,
        11.687129974365234,
        1.1920928955078125e-7
      ],
      "children": [
        124,
        125
      ]
    },
    {
      "name": "RightToeBaseBind"
    },
    {
      "name": "RightToeBase",
      "translation": [
        6.940456387383165e-7,
        15.557549476623535,
        0.3740348219871521
      ],
      "rotation": [
        0.1923138052225113,
        -7.036943049749597e-14,
        -1.6812318648362634e-8,
        0.9813334941864014
      ],
      "children": [
        127
      ]
    },
    {
      "name": "RightFootBind",
      "rotation": [
        0.000018164517314289697,
        -6.705747068735946e-14,
        -3.704532340609301e-12,
        1
      ],
      "children": [
        128
      ]
    },
    {
      "name": "RightFoot",
      "translation": [
        -3.3307168223473127e-7,
        30.953845977783203,
        -0.0008176880655810237
      ],
      "rotation": [
        0.5535410046577454,
        -7.280874569914886e-8,
        1.8151295353915908e-12,
        0.8328219652175903
      ],
      "children": [
        129
      ]
    },
    {
      "name": "RightLegTwist2Bind",
      "translation": [
        -3.331187201638386e-7,
        10.276595115661621,
        -0.00027963690808974206
      ],
      "rotation": [
        -0.000014504417777061462,
        -7.088080122841234e-15,
        -1.2683352632048006e-12,
        1
      ]
    },
    {
      "name": "RightLegTwist3Bind",
      "translation": [
        -3.330927427214192e-7,
        20.615224838256836,
        -0.0005767958937212825
      ],
      "rotation": [
        -0.000014107674360275269,
        1.7937040741600185e-15,
        -1.2334498656826898e-12,
        1
      ]
    },
    {
      "name": "RightLegTwist1Bind"
    },
    {
      "name": "RightLeg",
      "translation": [
        6.443707789571818e-10,
        35.82878112792969,
        -0.0025989688001573086
      ],
      "rotation": [
        -0.02055700682103634,
        -3.17797912430251e-8,
        -2.450586178426306e-9,
        0.9997887015342712
      ],
      "children": [
        130,
        131,
        132,
        133
      ]
    },
    {
      "name": "RightUpLegTwist3Bind",
      "translation": [
        2.5366553302319517e-10,
        23.82064437866211,
        -0.000011444790288805962
      ]
    },
    {
      "name": "RightUpLegTwist2Bind",
      "translation": [
        2.523758979577906e-10,
        11.874469757080078,
        -0.0000028999206733715255
      ]
    },
    {
      "name": "RightUpLegTwist1Bind"
    },
    {
      "name": "RightUpLeg",
      "translation": [
        -6.1165032386779785,
        -0.07163895666599274,
        1.421431079506874e-7
      ],
      "rotation": [
        7.549197533762708e-8,
        -0.012534696608781815,
        -0.999921441078186,
        9.463431149825396e-10
      ],
      "children": [
        134,
        135,
        136,
        137
      ]
    },
    {
      "name": "Hips",
      "translation": [
        0,
        75.78341674804688,
        0.000011473173799458891
      ],
      "rotation": [
        0.012533961795270443,
        0,
        0,
        0.999921441078186
      ],
      "children": [
        1,
        13,
        126,
        138
      ]
    },
    {
      "name": "Submesh_0",
      "mesh": 0,
      "skin": 0
    },
    {
      "name": "Submesh_1",
      "mesh": 1,
      "skin": 0
    },
    {
      "name": "Submesh_2",
      "mesh": 2,
      "skin": 0
    },
    {
      "name": "Submesh_3",
      "mesh": 3,
      "skin": 0
    },
    {
      "name": "Submesh_4",
      "mesh": 4,
      "skin": 0
    },
    {
      "name": "Submesh_5",
      "mesh": 5,
      "skin": 0
    },
    {
      "name": "Submesh_6",
      "mesh": 6,
      "skin": 0
    },
    {
      "name": "Root",
      "rotation": [
        -0.7071068286895752,
        0,
        0,
        0.7071068286895752
      ],
      "children": [
        140,
        141,
        142,
        143,
        144,
        145,
        146,
        139
      ]
    },
    {
      "name": "SkeletonModifierRig"
    },
    {
      "name": "Genie",
      "rotation": [
        0.7071068286895752,
        0,
        0,
        0.7071068286895752
      ],
      "scale": [
        0.009999999776482582,
        0.009999999776482582,
        0.009999999776482582
      ],
      "children": [
        0,
        147,
        148
      ]
    }
  ],
  "skins": [
    {
      "name": "Root",
      "inverseBindMatrices": 12,
      "joints": [
        139,
        1,
        13,
        2,
        3,
        4,
        12,
        5,
        6,
        7,
        11,
        10,
        9,
        8,
        126,
        124,
        122,
        36,
        14,
        35,
        34,
        15,
        19,
        18,
        17,
        16,
        23,
        22,
        21,
        20,
        24,
        25,
        27,
        26,
        28,
        29,
        30,
        33,
        32,
        31,
        78,
        76,
        37,
        38,
        39,
        75,
        40,
        41,
        73,
        72,
        47,
        42,
        46,
        43,
        45,
        44,
        53,
        48,
        52,
        49,
        51,
        50,
        59,
        54,
        58,
        56,
        55,
        57,
        65,
        60,
        64,
        61,
        63,
        62,
        71,
        69,
        66,
        68,
        67,
        70,
        74,
        77,
        79,
        121,
        80,
        120,
        116,
        81,
        113,
        112,
        87,
        85,
        82,
        84,
        83,
        86,
        93,
        91,
        88,
        90,
        89,
        92,
        99,
        94,
        98,
        95,
        97,
        96,
        105,
        103,
        100,
        102,
        101,
        104,
        111,
        109,
        107,
        106,
        108,
        110,
        114,
        115,
        117,
        118,
        119,
        123,
        125,
        138,
        134,
        130,
        129,
        128,
        127,
        131,
        132,
        133,
        135,
        136,
        137
      ]
    }
  ],
  "scenes": [
    {
      "name": "Scene",
      "nodes": [
        149
      ]
    }
  ],
  "scene": 0
}