{
  "asset": {
    "generator": "glTF-Transform v4.1.4",
    "version": "2.0",
    "copyright": "Genies, Inc."
  },
  "accessors": [
    {
      "type": "VEC3",
      "componentType": 5126,
      "count": 5690,
      "max": [
        0.72099369764328,
        1.5311459302902222,
        0.19438818097114563
      ],
      "min": [
        -0.7209935784339905,
        0.03130852431058884,
        -0.1309260129928589
      ],
      "bufferView": 0,
      "byteOffset": 0
    },
    {
      "type": "VEC3",
      "componentType": 5126,
      "count": 5690,
      "bufferView": 0,
      "byteOffset": 12
    },
    {
      "type": "VEC2",
      "componentType": 5126,
      "count": 5690,
      "bufferView": 0,
      "byteOffset": 24
    },
    {
      "type": "VEC4",
      "componentType": 5121,
      "count": 5690,
      "bufferView": 0,
      "byteOffset": 32
    },
    {
      "type": "VEC4",
      "componentType": 5126,
      "count": 5690,
      "bufferView": 0,
      "byteOffset": 36
    },
    {
      "type": "SCALAR",
      "componentType": 5123,
      "count": 29502,
      "bufferView": 1,
      "byteOffset": 0
    },
    {
      "type": "SCALAR",
      "componentType": 5123,
      "count": 2880,
      "bufferView": 1,
      "byteOffset": 59004
    },
    {
      "type": "SCALAR",
      "componentType": 5123,
      "count": 1830,
      "bufferView": 1,
      "byteOffset": 64764
    },
    {
      "type": "SCALAR",
      "componentType": 5123,
      "count": 816,
      "bufferView": 1,
      "byteOffset": 68424
    },
    {
      "type": "SCALAR",
      "componentType": 5123,
      "count": 756,
      "bufferView": 1,
      "byteOffset": 70056
    },
    {
      "type": "SCALAR",
      "componentType": 5123,
      "count": 65028,
      "bufferView": 1,
      "byteOffset": 71568
    },
    {
      "type": "SCALAR",
      "componentType": 5123,
      "count": 29667,
      "bufferView": 1,
      "byteOffset": 201624
    },
    {
      "type": "MAT4",
      "componentType": 5126,
      "count": 136,
      "bufferView": 2,
      "byteOffset": 0
    },
    {
      "type": "VEC3",
      "componentType": 5126,
      "count": 516,
      "max": [
        0.0787317305803299,
        1.4283034801483154,
        0.08528199046850204
      ],
      "min": [
        -0.07873160392045975,
        1.3415377140045166,
        -0.0014053004560992122
      ],
      "bufferView": 3,
      "byteOffset": 0
    },
    {
      "type": "VEC3",
      "componentType": 5126,
      "count": 516,
      "bufferView": 3,
      "byteOffset": 12
    },
    {
      "type": "VEC2",
      "componentType": 5126,
      "count": 516,
      "bufferView": 3,
      "byteOffset": 24
    },
    {
      "type": "VEC4",
      "componentType": 5121,
      "count": 516,
      "bufferView": 3,
      "byteOffset": 32
    },
    {
      "type": "VEC4",
      "componentType": 5126,
      "count": 516,
      "bufferView": 3,
      "byteOffset": 36
    },
    {
      "type": "VEC3",
      "componentType": 5126,
      "count": 710,
      "max": [
        0.0359288714826107,
        1.3292241096496582,
        0.10477760434150696
      ],
      "min": [
        -0.03592877835035324,
        1.2790249586105347,
        0.04087010771036148
      ],
      "bufferView": 4,
      "byteOffset": 0
    },
    {
      "type": "VEC3",
      "componentType": 5126,
      "count": 710,
      "bufferView": 4,
      "byteOffset": 12
    },
    {
      "type": "VEC2",
      "componentType": 5126,
      "count": 710,
      "bufferView": 4,
      "byteOffset": 24
    },
    {
      "type": "VEC4",
      "componentType": 5121,
      "count": 710,
      "bufferView": 4,
      "byteOffset": 32
    },
    {
      "type": "VEC4",
      "componentType": 5126,
      "count": 710,
      "bufferView": 4,
      "byteOffset": 36
    },
    {
      "type": "VEC3",
      "componentType": 5126,
      "count": 162,
      "max": [
        0.08885172009468079,
        1.4319214820861816,
        0.10923605412244797
      ],
      "min": [
        -0.08885172009468079,
        1.4120713472366333,
        0.050409507006406784
      ],
      "bufferView": 5,
      "byteOffset": 0
    },
    {
      "type": "VEC3",
      "componentType": 5126,
      "count": 162,
      "bufferView": 5,
      "byteOffset": 12
    },
    {
      "type": "VEC2",
      "componentType": 5126,
      "count": 162,
      "bufferView": 5,
      "byteOffset": 24
    },
    {
      "type": "VEC4",
      "componentType": 5121,
      "count": 162,
      "bufferView": 5,
      "byteOffset": 32
    },
    {
      "type": "VEC4",
      "componentType": 5126,
      "count": 162,
      "bufferView": 5,
      "byteOffset": 36
    },
    {
      "type": "VEC3",
      "componentType": 5126,
      "count": 544,
      "max": [
        0.08633226901292801,
        1.4059946537017822,
        0.10215052217245102
      ],
      "min": [
        -0.08633226156234741,
        1.3605843782424927,
        0.06627006828784943
      ],
      "bufferView": 6,
      "byteOffset": 0
    },
    {
      "type": "VEC3",
      "componentType": 5126,
      "count": 544,
      "bufferView": 6,
      "byteOffset": 12
    },
    {
      "type": "VEC2",
      "componentType": 5126,
      "count": 544,
      "bufferView": 6,
      "byteOffset": 24
    },
    {
      "type": "VEC4",
      "componentType": 5121,
      "count": 544,
      "bufferView": 6,
      "byteOffset": 32
    },
    {
      "type": "VEC4",
      "componentType": 5126,
      "count": 544,
      "bufferView": 6,
      "byteOffset": 36
    },
    {
      "type": "VEC3",
      "componentType": 5126,
      "count": 13807,
      "max": [
        0.5538399815559387,
        1.251524806022644,
        0.20940987765789032
      ],
      "min": [
        -0.5531998872756958,
        5.799474251944048e-7,
        -0.14110833406448364
      ],
      "bufferView": 7,
      "byteOffset": 0
    },
    {
      "type": "VEC3",
      "componentType": 5126,
      "count": 13807,
      "bufferView": 7,
      "byteOffset": 12
    },
    {
      "type": "VEC2",
      "componentType": 5126,
      "count": 13807,
      "bufferView": 7,
      "byteOffset": 24
    },
    {
      "type": "VEC4",
      "componentType": 5121,
      "count": 13807,
      "bufferView": 7,
      "byteOffset": 32
    },
    {
      "type": "VEC4",
      "componentType": 5126,
      "count": 13807,
      "bufferView": 7,
      "byteOffset": 36
    },
    {
      "type": "VEC3",
      "componentType": 5126,
      "count": 19853,
      "max": [
        0.13072367012500763,
        1.5766712427139282,
        0.14694251120090485
      ],
      "min": [
        -0.14181280136108398,
        1.2933892011642456,
        -0.16231045126914978
      ],
      "bufferView": 8,
      "byteOffset": 0
    },
    {
      "type": "VEC3",
      "componentType": 5126,
      "count": 19853,
      "bufferView": 8,
      "byteOffset": 12
    },
    {
      "type": "VEC2",
      "componentType": 5126,
      "count": 19853,
      "bufferView": 8,
      "byteOffset": 24
    },
    {
      "type": "VEC4",
      "componentType": 5121,
      "count": 19853,
      "bufferView": 8,
      "byteOffset": 32
    },
    {
      "type": "VEC4",
      "componentType": 5126,
      "count": 19853,
      "bufferView": 8,
      "byteOffset": 36
    }
  ],
  "bufferViews": [
    {
      "buffer": 0,
      "byteOffset": 0,
      "byteLength": 295880,
      "byteStride": 52,
      "target": 34962
    },
    {
      "buffer": 0,
      "byteOffset": 295880,
      "byteLength": 260960,
      "target": 34963
    },
    {
      "buffer": 0,
      "byteOffset": 556840,
      "byteLength": 8704
    },
    {
      "buffer": 0,
      "byteOffset": 565544,
      "byteLength": 26832,
      "byteStride": 52,
      "target": 34962
    },
    {
      "buffer": 0,
      "byteOffset": 592376,
      "byteLength": 36920,
      "byteStride": 52,
      "target": 34962
    },
    {
      "buffer": 0,
      "byteOffset": 629296,
      "byteLength": 8424,
      "byteStride": 52,
      "target": 34962
    },
    {
      "buffer": 0,
      "byteOffset": 637720,
      "byteLength": 28288,
      "byteStride": 52,
      "target": 34962
    },
    {
      "buffer": 0,
      "byteOffset": 666008,
      "byteLength": 717964,
      "byteStride": 52,
      "target": 34962
    },
    {
      "buffer": 0,
      "byteOffset": 1383972,
      "byteLength": 1032356,
      "byteStride": 52,
      "target": 34962
    }
  ],
  "samplers": [
    {
      "magFilter": 9729,
      "minFilter": 9987,
      "wrapS": 10497,
      "wrapT": 10497
    }
  ],
  "textures": [
    {
      "source": 2,
      "sampler": 0
    },
    {
      "source": 0,
      "sampler": 0
    },
    {
      "source": 1,
      "sampler": 0
    },
    {
      "source": 5,
      "sampler": 0
    },
    {
      "source": 3,
      "sampler": 0
    },
    {
      "source": 4,
      "sampler": 0
    },
    {
      "source": 7,
      "sampler": 0
    },
    {
      "source": 6,
      "sampler": 0
    },
    {
      "source": 10,
      "sampler": 0
    },
    {
      "source": 8,
      "sampler": 0
    },
    {
      "source": 9,
      "sampler": 0
    },
    {
      "source": 13,
      "sampler": 0
    },
    {
      "source": 11,
      "sampler": 0
    },
    {
      "source": 12,
      "sampler": 0
    },
    {
      "source": 15,
      "sampler": 0
    },
    {
      "source": 14,
      "sampler": 0
    },
    {
      "source": 18,
      "sampler": 0
    },
    {
      "source": 16,
      "sampler": 0
    },
    {
      "source": 17,
      "sampler": 0
    }
  ],
  "images": [
    {
      "name": "Submesh_0_Emission",
      "mimeType": "image/png",
      "uri": "emissive_1.png"
    },
    {
      "name": "NormalMap_Texture",
      "mimeType": "image/png",
      "uri": "normal_1.png"
    },
    {
      "name": "Submesh_0_Albedo",
      "mimeType": "image/png",
      "uri": "baseColor_1.png"
    },
    {
      "name": "Submesh_1_Emission",
      "mimeType": "image/png",
      "uri": "emissive_2.png"
    },
    {
      "name": "NormalMap_Texture_1",
      "mimeType": "image/png",
      "uri": "normal_2.png"
    },
    {
      "name": "Submesh_1_Albedo",
      "mimeType": "image/png",
      "uri": "baseColor_2.png"
    },
    {
      "name": "NormalMap_Texture_2",
      "mimeType": "image/png",
      "uri": "normal_3.png"
    },
    {
      "name": "Submesh_2_Albedo",
      "mimeType": "image/png",
      "uri": "baseColor_3.png"
    },
    {
      "name": "Submesh_3_Emission",
      "mimeType": "image/png",
      "uri": "emissive_3.png"
    },
    {
      "name": "NormalMap_Texture_3",
      "mimeType": "image/png",
      "uri": "normal_4.png"
    },
    {
      "name": "Submesh_3_Albedo",
      "mimeType": "image/png",
      "uri": "baseColor_4.png"
    },
    {
      "name": "Submesh_4_Emission",
      "mimeType": "image/png",
      "uri": "emissive_4.png"
    },
    {
      "name": "NormalMap_Texture_4",
      "mimeType": "image/png",
      "uri": "normal_5.png"
    },
    {
      "name": "Submesh_4_Albedo",
      "mimeType": "image/png",
      "uri": "baseColor_5.png"
    },
    {
      "name": "NormalMap_Texture_5",
      "mimeType": "image/png",
      "uri": "normal_6.png"
    },
    {
      "name": "Submesh_5_Albedo",
      "mimeType": "image/png",
      "uri": "baseColor_6.png"
    },
    {
      "name": "Submesh_6_Emission",
      "mimeType": "image/png",
      "uri": "emissive_5.png"
    },
    {
      "name": "NormalMap_Texture_6",
      "mimeType": "image/png",
      "uri": "normal_7.png"
    },
    {
      "name": "Submesh_6_Albedo",
      "mimeType": "image/png",
      "uri": "baseColor_7.png"
    }
  ],
  "buffers": [
    {
      "uri": "Sky.bin",
      "byteLength": 2416328
    }
  ],
  "materials": [
    {
      "name": "Submesh_0",
      "alphaMode": "BLEND",
      "doubleSided": true,
      "pbrMetallicRoughness": {
        "roughnessFactor": 0.5527864098548889,
        "metallicFactor": 0,
        "baseColorTexture": {
          "index": 0
        }
      },
      "emissiveFactor": [
        1,
        1,
        1
      ],
      "emissiveTexture": {
        "index": 1
      },
      "normalTexture": {
        "index": 2
      }
    },
    {
      "name": "Submesh_1",
      "alphaMode": "BLEND",
      "doubleSided": true,
      "pbrMetallicRoughness": {
        "roughnessFactor": 0.5527864098548889,
        "metallicFactor": 0,
        "baseColorTexture": {
          "index": 3
        }
      },
      "emissiveFactor": [
        1,
        1,
        1
      ],
      "emissiveTexture": {
        "index": 4
      },
      "normalTexture": {
        "index": 5
      }
    },
    {
      "name": "Submesh_2",
      "alphaMode": "BLEND",
      "doubleSided": true,
      "pbrMetallicRoughness": {
        "roughnessFactor": 0.5527864098548889,
        "metallicFactor": 0,
        "baseColorTexture": {
          "index": 6
        }
      },
      "normalTexture": {
        "index": 7
      }
    },
    {
      "name": "Submesh_3",
      "alphaMode": "BLEND",
      "doubleSided": true,
      "pbrMetallicRoughness": {
        "roughnessFactor": 0.5527864098548889,
        "metallicFactor": 0,
        "baseColorTexture": {
          "index": 8
        }
      },
      "emissiveFactor": [
        1,
        1,
        1
      ],
      "emissiveTexture": {
        "index": 9
      },
      "normalTexture": {
        "index": 10
      }
    },
    {
      "name": "Submesh_4",
      "alphaMode": "BLEND",
      "doubleSided": true,
      "pbrMetallicRoughness": {
        "roughnessFactor": 0.5527864098548889,
        "metallicFactor": 0,
        "baseColorTexture": {
          "index": 11
        }
      },
      "emissiveFactor": [
        1,
        1,
        1
      ],
      "emissiveTexture": {
        "index": 12
      },
      "normalTexture": {
        "index": 13
      }
    },
    {
      "name": "Submesh_5",
      "doubleSided": true,
      "pbrMetallicRoughness": {
        "roughnessFactor": 0.5527864098548889,
        "metallicFactor": 0,
        "baseColorTexture": {
          "index": 14
        }
      },
      "normalTexture": {
        "index": 15
      }
    },
    {
      "name": "Submesh_6",
      "alphaMode": "BLEND",
      "doubleSided": true,
      "pbrMetallicRoughness": {
        "roughnessFactor": 0.5527864098548889,
        "metallicFactor": 0,
        "baseColorTexture": {
          "index": 16
        }
      },
      "emissiveFactor": [
        1,
        1,
        1
      ],
      "emissiveTexture": {
        "index": 17
      },
      "normalTexture": {
        "index": 18
      }
    }
  ],
  "meshes": [
    {
      "name": "Mesh",
      "primitives": [
        {
          "attributes": {
            "POSITION": 0,
            "NORMAL": 1,
            "TEXCOORD_0": 2,
            "JOINTS_0": 3,
            "WEIGHTS_0": 4
          },
          "mode": 4,
          "material": 0,
          "indices": 5
        }
      ]
    },
    {
      "name": "Mesh.001",
      "primitives": [
        {
          "attributes": {
            "POSITION": 13,
            "NORMAL": 14,
            "TEXCOORD_0": 15,
            "JOINTS_0": 16,
            "WEIGHTS_0": 17
          },
          "mode": 4,
          "material": 1,
          "indices": 6
        }
      ]
    },
    {
      "name": "Mesh.002",
      "primitives": [
        {
          "attributes": {
            "POSITION": 18,
            "NORMAL": 19,
            "TEXCOORD_0": 20,
            "JOINTS_0": 21,
            "WEIGHTS_0": 22
          },
          "mode": 4,
          "material": 2,
          "indices": 7
        }
      ]
    },
    {
      "name": "Mesh.003",
      "primitives": [
        {
          "attributes": {
            "POSITION": 23,
            "NORMAL": 24,
            "TEXCOORD_0": 25,
            "JOINTS_0": 26,
            "WEIGHTS_0": 27
          },
          "mode": 4,
          "material": 3,
          "indices": 8
        }
      ]
    },
    {
      "name": "Mesh.004",
      "primitives": [
        {
          "attributes": {
            "POSITION": 28,
            "NORMAL": 29,
            "TEXCOORD_0": 30,
            "JOINTS_0": 31,
            "WEIGHTS_0": 32
          },
          "mode": 4,
          "material": 4,
          "indices": 9
        }
      ]
    },
    {
      "name": "Mesh.005",
      "primitives": [
        {
          "attributes": {
            "POSITION": 33,
            "NORMAL": 34,
            "TEXCOORD_0": 35,
            "JOINTS_0": 36,
            "WEIGHTS_0": 37
          },
          "mode": 4,
          "material": 5,
          "indices": 10
        }
      ]
    },
    {
      "name": "Mesh.006",
      "primitives": [
        {
          "attributes": {
            "POSITION": 38,
            "NORMAL": 39,
            "TEXCOORD_0": 40,
            "JOINTS_0": 41,
            "WEIGHTS_0": 42
          },
          "mode": 4,
          "material": 6,
          "indices": 11
        }
      ]
    }
  ],
  "nodes": [
    {
      "name": "animatedCamera"
    },
    {
      "name": "HipsBind"
    },
    {
      "name": "LeftUpLegTwist3Bind",
      "translation": [
        2.532463128090967e-10,
        23.82064437866211,
        -0.000011387346603441983
      ]
    },
    {
      "name": "LeftUpLegTwist2Bind",
      "translation": [
        2.519513486731739e-10,
        11.874481201171875,
        -0.000002777756435534684
      ]
    },
    {
      "name": "LeftUpLegTwist1Bind"
    },
    {
      "name": "LeftLegTwist2Bind",
      "translation": [
        6.26989219654206e-7,
        10.27658748626709,
        -0.0002799911017064005
      ],
      "rotation": [
        -0.000014506281331705395,
        -7.101957910649048e-15,
        -1.2684777273702652e-12,
        1
      ]
    },
    {
      "name": "LeftLegTwist3Bind",
      "translation": [
        6.270152539400442e-7,
        20.615215301513672,
        -0.0005777460755780339
      ],
      "rotation": [
        -0.000014109537914919201,
        1.779826286352204e-15,
        -1.2335022326476208e-12,
        1
      ]
    },
    {
      "name": "LeftLegTwist1Bind"
    },
    {
      "name": "LeftToeBaseBind"
    },
    {
      "name": "LeftToeBase",
      "translation": [
        -0.0000010716003089328296,
        15.557550430297852,
        0.3740292191505432
      ],
      "rotation": [
        0.19231541454792023,
        -8.960224868927863e-14,
        -1.681233285921735e-8,
        0.9813331961631775
      ],
      "children": [
        8
      ]
    },
    {
      "name": "LeftFootBind",
      "rotation": [
        0.000018171969713876024,
        -6.439293542825908e-14,
        -2.287259357608429e-12,
        1
      ],
      "children": [
        9
      ]
    },
    {
      "name": "LeftFoot",
      "translation": [
        6.27036172318185e-7,
        30.953834533691406,
        -0.0008172971429303288
      ],
      "rotation": [
        0.5535410046577454,
        -7.280796410213952e-8,
        6.270835088174886e-13,
        0.8328219652175903
      ],
      "children": [
        10
      ]
    },
    {
      "name": "LeftLeg",
      "translation": [
        6.439213606768135e-10,
        35.82879638671875,
        -0.002598746446892619
      ],
      "rotation": [
        -0.02055700309574604,
        -3.17797912430251e-8,
        -2.450585956381701e-9,
        0.9997887015342712
      ],
      "children": [
        5,
        6,
        7,
        11
      ]
    },
    {
      "name": "LeftUpLeg",
      "translation": [
        6.1165032386779785,
        -0.07163132727146149,
        -9.720679372549057e-8
      ],
      "rotation": [
        7.549197533762708e-8,
        -0.012534691952168941,
        -0.999921441078186,
        9.463426708933298e-10
      ],
      "children": [
        2,
        3,
        4,
        12
      ]
    },
    {
      "name": "NeckBind",
      "translation": [
        0,
        0.0000297917995339958,
        -3.207687768735923e-7
      ]
    },
    {
      "name": "MouthBind",
      "translation": [
        -0.000027075338948634453,
        -5.34670877456665,
        7.8818039894104
      ],
      "rotation": [
        -0.000004973026989318896,
        0.02706441655755043,
        -0.9996337294578552,
        0.000007842000741220545
      ]
    },
    {
      "name": "LeftEyeBind",
      "translation": [
        -7.450580596923828e-7,
        -0.0001421310007572174,
        5.364418029785156e-7
      ]
    },
    {
      "name": "LeftEye",
      "translation": [
        -3.2782554626464844e-7,
        -0.000004766508936882019,
        -0.000014185905456542969
      ],
      "children": [
        16
      ]
    },
    {
      "name": "LeftEyeSocketBind",
      "translation": [
        -7.450580596923828e-7,
        0.00002564862370491028,
        0.0000013709068298339844
      ],
      "children": [
        17
      ]
    },
    {
      "name": "LeftEyeSocket",
      "translation": [
        3.538815498352051,
        3.1541755199432373,
        2.3787457942962646
      ],
      "rotation": [
        -0.0068792724050581455,
        0.11532759666442871,
        0.0021669266279786825,
        0.9933013916015625
      ],
      "children": [
        18
      ]
    },
    {
      "name": "RightEyeBind"
    },
    {
      "name": "RightEye",
      "children": [
        20
      ]
    },
    {
      "name": "RightEyeSocketBind",
      "translation": [
        2.384185791015625e-7,
        -0.00002213346306234598,
        4.76837158203125e-7
      ],
      "children": [
        21
      ]
    },
    {
      "name": "RightEyeSocket",
      "translation": [
        -3.5388126373291016,
        3.1541907787323,
        2.3787357807159424
      ],
      "rotation": [
        -0.006558856461197138,
        -0.11534705013036728,
        0.0005935492226853967,
        0.9933034181594849
      ],
      "children": [
        22
      ]
    },
    {
      "name": "RightBrowBind",
      "translation": [
        -1.8080013990402222,
        7.186981678009033,
        0.8359983563423157
      ],
      "rotation": [
        9.177209547850396e-10,
        0.9816271662712097,
        4.721268709317883e-9,
        0.19080917537212372
      ]
    },
    {
      "name": "FaceBind",
      "translation": [
        -5.820766091346741e-11,
        -0.000014954666767152958,
        -6.411726189980982e-7
      ]
    },
    {
      "name": "JawBind",
      "translation": [
        0,
        -0.000015452415027539246,
        0.0000024211094569182023
      ],
      "rotation": [
        -0.02422722429037094,
        0,
        0,
        0.9997064471244812
      ]
    },
    {
      "name": "Jaw",
      "translation": [
        -5.820766091346741e-11,
        -3.670837640762329,
        -2.969191074371338
      ],
      "children": [
        26
      ]
    },
    {
      "name": "NoseBind",
      "translation": [
        -5.820766091346741e-11,
        -2.2106306552886963,
        8.465519905090332
      ],
      "rotation": [
        -0.007615137845277786,
        0,
        0,
        0.9999710321426392
      ]
    },
    {
      "name": "LeftBrowBind",
      "translation": [
        1.8077408075332642,
        7.186981678009033,
        0.8358257412910461
      ],
      "rotation": [
        9.177209547850396e-10,
        -0.9816271662712097,
        -4.721268709317883e-9,
        0.19080917537212372
      ]
    },
    {
      "name": "MouthInnerBind",
      "translation": [
        -0.000056176264479290694,
        -5.193633079528809,
        5.057263374328613
      ],
      "rotation": [
        -0.000004972940132574877,
        0.027064410969614983,
        -0.9996337294578552,
        0.000007841997103241738
      ]
    },
    {
      "name": "Face",
      "translation": [
        0.0007646921440027654,
        6.990466117858887,
        3.565626621246338
      ],
      "rotation": [
        -0.020401479676365852,
        0,
        0,
        0.9997919201850891
      ],
      "children": [
        15,
        19,
        23,
        24,
        25,
        27,
        28,
        29,
        30
      ]
    },
    {
      "name": "Head",
      "translation": [
        0,
        11.650917053222656,
        1.2684471607208252
      ],
      "rotation": [
        0.020401453599333763,
        0,
        0,
        0.9997918605804443
      ],
      "children": [
        31
      ]
    },
    {
      "name": "Neck",
      "translation": [
        -0.0007646920275874436,
        15.818939208984375,
        -4.285888671875
      ],
      "rotation": [
        -0.012533889152109623,
        0,
        0,
        0.999921441078186
      ],
      "children": [
        14,
        32
      ]
    },
    {
      "name": "RightArmTwist1Bind",
      "translation": [
        -1.341104507446289e-7,
        -0.0000022239983081817627,
        -0.00001673772931098938
      ]
    },
    {
      "name": "RightArmTwist2Bind",
      "translation": [
        0.000006057322025299072,
        6.841621398925781,
        -0.000013168901205062866
      ]
    },
    {
      "name": "RightArmTwist3Bind",
      "translation": [
        0.000027291476726531982,
        13.724523544311523,
        -0.00001233816146850586
      ]
    },
    {
      "name": "RightForeArmTwist3Bind",
      "translation": [
        0.0014293193817138672,
        13.454658508300781,
        -0.000015715137124061584
      ],
      "rotation": [
        -8.508213795721531e-7,
        -0.0000014299876056611538,
        -0.00005751737262471579,
        1
      ]
    },
    {
      "name": "RightForeArmTwist2Bind",
      "translation": [
        0.0006651878356933594,
        6.707091808319092,
        -0.0000015087425708770752
      ],
      "rotation": [
        -8.783391081124137e-7,
        -0.0000012012314982712269,
        -0.00005487674206960946,
        1
      ]
    },
    {
      "name": "RightHandThumb1Bind",
      "translation": [
        0.00005221366882324219,
        -4.172325134277344e-7,
        -8.940696716308594e-7
      ]
    },
    {
      "name": "RightHandThumb2Bind",
      "translation": [
        -0.000014424324035644531,
        0.000013232231140136719,
        -0.000004887580871582031
      ]
    },
    {
      "name": "RightHandThumb3Bind",
      "translation": [
        0.000017404556274414062,
        -0.000006198883056640625,
        0.000011682510375976562
      ]
    },
    {
      "name": "RightHandThumb3",
      "translation": [
        0.0000016689300537109375,
        3.8681201934814453,
        -0.00006842613220214844
      ],
      "rotation": [
        0.008515791967511177,
        -0.004233063664287329,
        0.002647800836712122,
        0.9999512434005737
      ],
      "children": [
        41
      ]
    },
    {
      "name": "RightHandThumb2",
      "translation": [
        0.00005519390106201172,
        3.676982879638672,
        0.00006371736526489258
      ],
      "rotation": [
        0.0024087242782115936,
        -0.0026961294934153557,
        0.03587718680500984,
        0.9993497133255005
      ],
      "children": [
        40,
        42
      ]
    },
    {
      "name": "RightHandThumb1",
      "translation": [
        1.8217315673828125,
        2.9752707481384277,
        0.7242400646209717
      ],
      "rotation": [
        -0.06699970364570618,
        -0.3002808094024658,
        -0.4491269886493683,
        0.8388250470161438
      ],
      "children": [
        39,
        43
      ]
    },
    {
      "name": "RightHandRing1Bind",
      "translation": [
        0.0000017881393432617188,
        0.0000055730342864990234,
        -0.000012010335922241211
      ]
    },
    {
      "name": "RightHandRing2Bind"
    },
    {
      "name": "RightHandRing3Bind",
      "translation": [
        0.0000014901161193847656,
        0.000005826354026794434,
        -0.00012026727199554443
      ]
    },
    {
      "name": "RightHandRing3",
      "translation": [
        0.000003159046173095703,
        2.4403624534606934,
        -0.000026866793632507324
      ],
      "rotation": [
        0.000033525750041007996,
        0.00003692694008350372,
        0.000010756076335383113,
        1
      ],
      "children": [
        47
      ]
    },
    {
      "name": "RightHandRing2",
      "translation": [
        5.960464477539062e-7,
        3.6018877029418945,
        0.000011339783668518066
      ],
      "children": [
        46,
        48
      ]
    },
    {
      "name": "RightHandRing1",
      "translation": [
        -1.3429982662200928,
        9.161303520202637,
        0.24775299429893494
      ],
      "rotation": [
        0.04704151302576065,
        0.03001810610294342,
        0.022300370037555695,
        0.9981927871704102
      ],
      "children": [
        45,
        49
      ]
    },
    {
      "name": "RightHandIndex1Bind"
    },
    {
      "name": "RightHandIndex3Bind",
      "translation": [
        -3.5762786865234375e-7,
        0.000006400048732757568,
        -0.0001177862286567688
      ]
    },
    {
      "name": "RightHandIndex3",
      "translation": [
        4.76837158203125e-7,
        2.4550492763519287,
        0.000014096498489379883
      ],
      "rotation": [
        0.00003650505459518172,
        0.00003838445991277695,
        0.000005027512997912709,
        1
      ],
      "children": [
        52
      ]
    },
    {
      "name": "RightHandIndex2Bind"
    },
    {
      "name": "RightHandIndex2",
      "translation": [
        -0.0000011920928955078125,
        3.3932995796203613,
        0
      ],
      "children": [
        53,
        54
      ]
    },
    {
      "name": "RightHandIndex1",
      "translation": [
        2.9061808586120605,
        9.439290046691895,
        0.25520506501197815
      ],
      "rotation": [
        0.047041088342666626,
        0.030017657205462456,
        0.022300373762845993,
        0.9981927871704102
      ],
      "children": [
        51,
        55
      ]
    },
    {
      "name": "RightHandPinky1Bind"
    },
    {
      "name": "RightHandPinky2Bind"
    },
    {
      "name": "RightHandPinky3Bind",
      "translation": [
        0.0000011920928955078125,
        -0.0000016093254089355469,
        -0.00011843442916870117
      ]
    },
    {
      "name": "RightHandPinky3",
      "translation": [
        -1.1920928955078125e-7,
        1.9433218240737915,
        0.00002339482307434082
      ],
      "rotation": [
        0.000036499579437077045,
        0.00003970600664615631,
        0.000010434538125991821,
        1
      ],
      "children": [
        59
      ]
    },
    {
      "name": "RightHandPinky2",
      "translation": [
        0.000002384185791015625,
        2.800615072250366,
        -0.0000028908252716064453
      ],
      "children": [
        58,
        60
      ]
    },
    {
      "name": "RightHandPinky1",
      "translation": [
        -3.1187057495117188,
        8.903596878051758,
        0.726713240146637
      ],
      "rotation": [
        0.04704153165221214,
        0.03001813217997551,
        0.02230030484497547,
        0.9981927275657654
      ],
      "children": [
        57,
        61
      ]
    },
    {
      "name": "RightHandMiddle2Bind"
    },
    {
      "name": "RightHandMiddle3Bind",
      "translation": [
        0.0000022649765014648438,
        -0.00000391155481338501,
        -0.00010369718074798584
      ]
    },
    {
      "name": "RightHandMiddle3",
      "translation": [
        -1.7881393432617188e-7,
        2.803279399871826,
        0.000005539506673812866
      ],
      "rotation": [
        0.0000357641838490963,
        0.00003832345828413963,
        0.000004609581083059311,
        1
      ],
      "children": [
        64
      ]
    },
    {
      "name": "RightHandMiddle2",
      "translation": [
        -5.364418029785156e-7,
        3.905284881591797,
        0.00001623108983039856
      ],
      "children": [
        63,
        65
      ]
    },
    {
      "name": "RightHandMiddle1Bind"
    },
    {
      "name": "RightHandMiddle1",
      "translation": [
        0.8293898105621338,
        9.413005828857422,
        0.06361805647611618
      ],
      "rotation": [
        0.04704108461737633,
        0.03001764602959156,
        0.02230026200413704,
        0.9981927871704102
      ],
      "children": [
        66,
        67
      ]
    },
    {
      "name": "RightHandBind",
      "translation": [
        0.0000010728836059570312,
        -0.000012308359146118164,
        0.000005969777703285217
      ],
      "rotation": [
        -0.00009758093801792711,
        -0.0001080636793631129,
        0.000003872468369081616,
        1
      ],
      "children": [
        44,
        50,
        56,
        62,
        68
      ]
    },
    {
      "name": "RightHand",
      "translation": [
        0.0022590160369873047,
        20.202274322509766,
        -0.00006164424121379852
      ],
      "rotation": [
        0.00019740218704100698,
        0.00010356245911680162,
        -0.020870527252554893,
        0.9997822046279907
      ],
      "children": [
        69
      ]
    },
    {
      "name": "RightForeArmTwist1Bind",
      "translation": [
        2.384185791015625e-7,
        -0.00003167986869812012,
        -0.000008959323167800903
      ]
    },
    {
      "name": "RightForeArm",
      "translation": [
        0.004031673073768616,
        20.64777374267578,
        0.000001389533281326294
      ],
      "rotation": [
        -0.008078341372311115,
        0.00039251509588211775,
        -0.035890258848667145,
        0.9993230104446411
      ],
      "children": [
        37,
        38,
        70,
        71
      ]
    },
    {
      "name": "RightArm",
      "translation": [
        0.0034066438674926758,
        12.333559036254883,
        0.015278653241693974
      ],
      "rotation": [
        -0.04209030419588089,
        0.0060180360451340675,
        -0.05453100427985191,
        0.9976063966751099
      ],
      "children": [
        34,
        35,
        36,
        72
      ]
    },
    {
      "name": "RightShoulderBind"
    },
    {
      "name": "RightShoulder",
      "translation": [
        -0.6935750842094421,
        14.553240776062012,
        -3.9748544692993164
      ],
      "rotation": [
        0.5028617978096008,
        -0.4844881296157837,
        0.5660393238067627,
        0.4381789565086365
      ],
      "children": [
        73,
        74
      ]
    },
    {
      "name": "Spine2Bind"
    },
    {
      "name": "LeftShoulderBind",
      "translation": [
        3.2782554626464844e-7,
        1.4901161193847656e-7,
        0.000014803518752160016
      ]
    },
    {
      "name": "LeftForeArmTwist1Bind",
      "translation": [
        1.1920928955078125e-7,
        -0.0000014603137969970703,
        -0.000013437122106552124
      ]
    },
    {
      "name": "LeftHandMiddle2Bind"
    },
    {
      "name": "LeftHandMiddle3Bind",
      "translation": [
        -0.0000037550926208496094,
        -0.000009734183549880981,
        0.000014528632164001465
      ]
    },
    {
      "name": "LeftHandMiddle3",
      "translation": [
        7.748603820800781e-7,
        2.803288221359253,
        8.121132850646973e-7
      ],
      "rotation": [
        0.000032771371479611844,
        -0.00003583635771065019,
        -0.000004470813109946903,
        1
      ],
      "children": [
        80
      ]
    },
    {
      "name": "LeftHandMiddle2",
      "translation": [
        -0.000003159046173095703,
        3.9052672386169434,
        -0.0000068694353103637695
      ],
      "children": [
        79,
        81
      ]
    },
    {
      "name": "LeftHandMiddle1Bind",
      "translation": [
        -0.00000286102294921875,
        -0.00001233816146850586,
        -0.000011779367923736572
      ]
    },
    {
      "name": "LeftHandMiddle1",
      "translation": [
        -0.8293794393539429,
        9.413056373596191,
        0.06360352784395218
      ],
      "rotation": [
        0.04704240709543228,
        -0.030018791556358337,
        -0.022300459444522858,
        0.9981926679611206
      ],
      "children": [
        82,
        83
      ]
    },
    {
      "name": "LeftHandRing2Bind",
      "translation": [
        0.0000011324882507324219,
        -0.0000054389238357543945,
        0.000010281801223754883
      ]
    },
    {
      "name": "LeftHandRing3Bind",
      "translation": [
        -0.0000020265579223632812,
        -0.0000016689300537109375,
        -0.000010654330253601074
      ]
    },
    {
      "name": "LeftHandRing3",
      "translation": [
        6.556510925292969e-7,
        2.440364360809326,
        0.0000027418136596679688
      ],
      "rotation": [
        0.00003426242619752884,
        -0.00003738352097570896,
        -0.000010618474334478378,
        1
      ],
      "children": [
        86
      ]
    },
    {
      "name": "LeftHandRing2",
      "translation": [
        -0.0000016093254089355469,
        3.601874351501465,
        -0.000011458992958068848
      ],
      "children": [
        85,
        87
      ]
    },
    {
      "name": "LeftHandRing1Bind",
      "translation": [
        -0.0000016093254089355469,
        -0.000008553266525268555,
        -0.000011578202247619629
      ]
    },
    {
      "name": "LeftHandRing1",
      "translation": [
        1.343008041381836,
        9.161354064941406,
        0.24772164225578308
      ],
      "rotation": [
        0.04704272374510765,
        -0.030019134283065796,
        -0.022300513461232185,
        0.9981926679611206
      ],
      "children": [
        88,
        89
      ]
    },
    {
      "name": "LeftHandPinky1Bind",
      "translation": [
        -0.000001430511474609375,
        -0.00000286102294921875,
        -0.000016421079635620117
      ]
    },
    {
      "name": "LeftHandPinky2Bind",
      "translation": [
        -3.5762786865234375e-7,
        -0.000001817941665649414,
        0.000010371208190917969
      ]
    },
    {
      "name": "LeftHandPinky3Bind",
      "translation": [
        -0.000004172325134277344,
        -1.4901161193847656e-7,
        -0.000022172927856445312
      ]
    },
    {
      "name": "LeftHandPinky3",
      "translation": [
        0.0000017881393432617188,
        1.9433120489120483,
        0.000013470649719238281
      ],
      "rotation": [
        0.000032040992664406076,
        -0.00003495579949230887,
        -0.000010379823834227864,
        1
      ],
      "children": [
        93
      ]
    },
    {
      "name": "LeftHandPinky2",
      "translation": [
        -0.0000019073486328125,
        2.800612211227417,
        -0.000010669231414794922
      ],
      "children": [
        92,
        94
      ]
    },
    {
      "name": "LeftHandPinky1",
      "translation": [
        3.1187186241149902,
        8.90365219116211,
        0.7266955971717834
      ],
      "rotation": [
        0.047040682286024094,
        -0.03001687116920948,
        -0.02230047434568405,
        0.9981928467750549
      ],
      "children": [
        91,
        95
      ]
    },
    {
      "name": "LeftHandIndex2Bind",
      "translation": [
        -2.384185791015625e-7,
        -0.000015914440155029297,
        -0.000007055699825286865
      ]
    },
    {
      "name": "LeftHandIndex3Bind",
      "translation": [
        -0.0000030994415283203125,
        -0.000003382563591003418,
        0.000022470951080322266
      ]
    },
    {
      "name": "LeftHandIndex3",
      "translation": [
        -4.76837158203125e-7,
        2.4550411701202393,
        0.000013694167137145996
      ],
      "rotation": [
        0.000032773823477327824,
        -0.000035086875868728384,
        -0.000004613539204001427,
        1
      ],
      "children": [
        98
      ]
    },
    {
      "name": "LeftHandIndex2",
      "translation": [
        -0.0000026226043701171875,
        3.393293619155884,
        -0.0000010058283805847168
      ],
      "children": [
        97,
        99
      ]
    },
    {
      "name": "LeftHandIndex1Bind",
      "translation": [
        -0.0000028014183044433594,
        -0.00000443682074546814,
        -0.00001728162169456482
      ]
    },
    {
      "name": "LeftHandIndex1",
      "translation": [
        -2.9061710834503174,
        9.439336776733398,
        0.2551698684692383
      ],
      "rotation": [
        0.04704289138317108,
        -0.030019331723451614,
        -0.022300489246845245,
        0.9981926679611206
      ],
      "children": [
        100,
        101
      ]
    },
    {
      "name": "LeftHandThumb3Bind",
      "translation": [
        -0.000015735626220703125,
        -0.000012874603271484375,
        0.00003552436828613281
      ]
    },
    {
      "name": "LeftHandThumb3",
      "translation": [
        -0.00000858306884765625,
        3.868103504180908,
        0.000125885009765625
      ],
      "rotation": [
        0.00852100271731615,
        0.004233943298459053,
        -0.0026477656792849302,
        0.9999512434005737
      ],
      "children": [
        103
      ]
    },
    {
      "name": "LeftHandThumb2Bind",
      "translation": [
        0.000008106231689453125,
        -5.960464477539062e-7,
        -0.000022530555725097656
      ]
    },
    {
      "name": "LeftHandThumb2",
      "translation": [
        -0.00003820657730102539,
        3.6770169734954834,
        -0.00008362531661987305
      ],
      "rotation": [
        0.002410157350823283,
        0.00269430223852396,
        -0.03587529808282852,
        0.9993497729301453
      ],
      "children": [
        104,
        105
      ]
    },
    {
      "name": "LeftHandThumb1Bind",
      "translation": [
        5.662441253662109e-7,
        0.0000017285346984863281,
        0.000018835067749023438
      ]
    },
    {
      "name": "LeftHandThumb1",
      "translation": [
        -1.8216664791107178,
        2.9752514362335205,
        0.7242621779441833
      ],
      "rotation": [
        -0.06700339168310165,
        0.30028387904167175,
        0.449125736951828,
        0.8388242721557617
      ],
      "children": [
        106,
        107
      ]
    },
    {
      "name": "LeftHandBind",
      "translation": [
        0.0000011920928955078125,
        0.000009298324584960938,
        0.00001988932490348816
      ],
      "rotation": [
        -0.00009488756040809676,
        0.0001071427104761824,
        0.0000011362280929461122,
        1
      ],
      "children": [
        84,
        90,
        96,
        102,
        108
      ]
    },
    {
      "name": "LeftHand",
      "translation": [
        -0.0022774934768676758,
        20.202274322509766,
        -0.00005005300045013428
      ],
      "rotation": [
        0.00019588833674788475,
        -0.00010339548316551372,
        0.020865565165877342,
        0.9997823238372803
      ],
      "children": [
        109
      ]
    },
    {
      "name": "LeftForeArmTwist2Bind",
      "translation": [
        -0.0006767511367797852,
        6.7070841789245605,
        7.897615432739258e-7
      ],
      "rotation": [
        2.579181455075741e-7,
        7.062335498631e-7,
        0.00005486277223099023,
        1
      ]
    },
    {
      "name": "LeftForeArmTwist3Bind",
      "translation": [
        -0.0014395713806152344,
        13.45466136932373,
        -0.000016616657376289368
      ],
      "rotation": [
        2.8540671337395906e-7,
        9.331853334515472e-7,
        0.000057505330914864317,
        1
      ]
    },
    {
      "name": "LeftForeArm",
      "translation": [
        -0.004027150571346283,
        20.647798538208008,
        6.370246410369873e-7
      ],
      "rotation": [
        -0.008078680373728275,
        -0.0003920532763004303,
        0.035890620201826096,
        0.9993230104446411
      ],
      "children": [
        78,
        110,
        111,
        112
      ]
    },
    {
      "name": "LeftArmTwist1Bind",
      "translation": [
        -5.289912223815918e-7,
        0.000013791024684906006,
        -0.000033468008041381836
      ]
    },
    {
      "name": "LeftArmTwist2Bind",
      "translation": [
        -0.000006899237632751465,
        6.841622829437256,
        -0.000028811395168304443
      ]
    },
    {
      "name": "LeftArmTwist3Bind",
      "translation": [
        -0.0000273287296295166,
        13.7245512008667,
        -0.000013731420040130615
      ]
    },
    {
      "name": "LeftArm",
      "translation": [
        -0.003404974937438965,
        12.333551406860352,
        0.015293024480342865
      ],
      "rotation": [
        -0.04209039360284805,
        -0.006018207874149084,
        0.05453062430024147,
        0.9976064562797546
      ],
      "children": [
        113,
        114,
        115,
        116
      ]
    },
    {
      "name": "LeftShoulder",
      "translation": [
        0.6935750842094421,
        14.553240776062012,
        -3.9748544692993164
      ],
      "rotation": [
        0.5028617978096008,
        0.4844880700111389,
        -0.5660393834114075,
        0.4381789565086365
      ],
      "children": [
        77,
        117
      ]
    },
    {
      "name": "Spine2",
      "translation": [
        0,
        5.8437652587890625,
        -2.384185791015625e-7
      ],
      "children": [
        33,
        75,
        76,
        118
      ]
    },
    {
      "name": "Spine1Bind"
    },
    {
      "name": "Spine1",
      "translation": [
        0,
        5.84339714050293,
        3.8743019104003906e-7
      ],
      "children": [
        119,
        120
      ]
    },
    {
      "name": "SpineBind"
    },
    {
      "name": "Spine",
      "translation": [
        0,
        11.687137603759766,
        0.0000011622905731201172
      ],
      "children": [
        121,
        122
      ]
    },
    {
      "name": "RightToeBaseBind"
    },
    {
      "name": "RightToeBase",
      "translation": [
        0.0000013125854820827954,
        15.557550430297852,
        0.37402814626693726
      ],
      "rotation": [
        0.19231541454792023,
        -8.914971625501034e-14,
        -1.681233108286051e-8,
        0.9813331961631775
      ],
      "children": [
        124
      ]
    },
    {
      "name": "RightFootBind",
      "rotation": [
        0.000018171969713876024,
        -7.061018436615996e-14,
        -3.706515996904081e-12,
        1
      ],
      "children": [
        125
      ]
    },
    {
      "name": "RightFoot",
      "translation": [
        -3.26638144088065e-7,
        30.953834533691406,
        -0.0008173006353899837
      ],
      "rotation": [
        0.5535410046577454,
        -7.280874569914886e-8,
        1.81299658445766e-12,
        0.8328219652175903
      ],
      "children": [
        126
      ]
    },
    {
      "name": "RightLegTwist2Bind",
      "translation": [
        -3.266851251737535e-7,
        10.27658748626709,
        -0.000279934931313619
      ],
      "rotation": [
        -0.000014506281331705395,
        -7.101957910649048e-15,
        -1.2683788481321345e-12,
        1
      ]
    },
    {
      "name": "RightLegTwist3Bind",
      "translation": [
        -3.2665909088791523e-7,
        20.615215301513672,
        -0.0005777495680376887
      ],
      "rotation": [
        -0.000014109537914919201,
        1.779826286352204e-15,
        -1.2334034618297074e-12,
        1
      ]
    },
    {
      "name": "RightLegTwist1Bind"
    },
    {
      "name": "RightLeg",
      "translation": [
        6.439204724983938e-10,
        35.82879638671875,
        -0.0025987657718360424
      ],
      "rotation": [
        -0.02055700309574604,
        -3.17797912430251e-8,
        -2.450585956381701e-9,
        0.9997887015342712
      ],
      "children": [
        127,
        128,
        129,
        130
      ]
    },
    {
      "name": "RightUpLegTwist3Bind",
      "translation": [
        2.532400955601588e-10,
        23.82064437866211,
        -0.00001137713115895167
      ]
    },
    {
      "name": "RightUpLegTwist2Bind",
      "translation": [
        2.519460196026557e-10,
        11.874481201171875,
        -0.000002767658315860899
      ]
    },
    {
      "name": "RightUpLegTwist1Bind"
    },
    {
      "name": "RightUpLeg",
      "translation": [
        -6.1165032386779785,
        -0.07163132727146149,
        -6.752088665962219e-8
      ],
      "rotation": [
        7.549197533762708e-8,
        -0.012534691952168941,
        -0.999921441078186,
        9.463426708933298e-10
      ],
      "children": [
        131,
        132,
        133,
        134
      ]
    },
    {
      "name": "Hips",
      "translation": [
        0,
        77.57381439208984,
        0.000011565452950890176
      ],
      "rotation": [
        0.012533959001302719,
        0,
        0,
        0.999921441078186
      ],
      "children": [
        1,
        13,
        123,
        135
      ]
    },
    {
      "name": "Submesh_0",
      "mesh": 0,
      "skin": 0
    },
    {
      "name": "Submesh_1",
      "mesh": 1,
      "skin": 0
    },
    {
      "name": "Submesh_2",
      "mesh": 2,
      "skin": 0
    },
    {
      "name": "Submesh_3",
      "mesh": 3,
      "skin": 0
    },
    {
      "name": "Submesh_4",
      "mesh": 4,
      "skin": 0
    },
    {
      "name": "Submesh_5",
      "mesh": 5,
      "skin": 0
    },
    {
      "name": "Submesh_6",
      "mesh": 6,
      "skin": 0
    },
    {
      "name": "Root",
      "rotation": [
        -0.7071068286895752,
        0,
        0,
        0.7071068286895752
      ],
      "children": [
        137,
        138,
        139,
        140,
        141,
        142,
        143,
        136
      ]
    },
    {
      "name": "SkeletonModifierRig"
    },
    {
      "name": "Genie",
      "rotation": [
        0.7071068286895752,
        0,
        0,
        0.7071068286895752
      ],
      "scale": [
        0.009999999776482582,
        0.009999999776482582,
        0.009999999776482582
      ],
      "children": [
        0,
        144,
        145
      ]
    }
  ],
  "skins": [
    {
      "name": "Root",
      "inverseBindMatrices": 12,
      "joints": [
        136,
        1,
        13,
        2,
        3,
        4,
        12,
        5,
        6,
        7,
        11,
        10,
        9,
        8,
        123,
        121,
        119,
        33,
        14,
        32,
        31,
        15,
        19,
        18,
        17,
        16,
        23,
        22,
        21,
        20,
        24,
        25,
        27,
        26,
        28,
        29,
        30,
        75,
        73,
        34,
        35,
        36,
        72,
        37,
        38,
        70,
        69,
        44,
        39,
        43,
        40,
        42,
        41,
        50,
        45,
        49,
        46,
        48,
        47,
        56,
        51,
        55,
        53,
        52,
        54,
        62,
        57,
        61,
        58,
        60,
        59,
        68,
        66,
        63,
        65,
        64,
        67,
        71,
        74,
        76,
        118,
        77,
        117,
        113,
        78,
        110,
        109,
        84,
        82,
        79,
        81,
        80,
        83,
        90,
        88,
        85,
        87,
        86,
        89,
        96,
        91,
        95,
        92,
        94,
        93,
        102,
        100,
        97,
        99,
        98,
        101,
        108,
        106,
        104,
        103,
        105,
        107,
        111,
        112,
        114,
        115,
        116,
        120,
        122,
        135,
        131,
        127,
        126,
        125,
        124,
        128,
        129,
        130,
        132,
        133,
        134
      ]
    }
  ],
  "scenes": [
    {
      "name": "Scene",
      "nodes": [
        146
      ]
    }
  ],
  "scene": 0
}